<ttFont>
    <TTGlyph name=".notdef" xMin="0" yMin="0" xMax="500" yMax="700">
      <contour>
        <pt x="0" y="700" on="1"/>
        <pt x="500" y="700" on="1"/>
        <pt x="500" y="0" on="1"/>
        <pt x="0" y="0" on="1"/>
      </contour>
      <contour>
        <pt x="50" y="650" on="1"/>
        <pt x="50" y="50" on="1"/>
        <pt x="450" y="50" on="1"/>
        <pt x="450" y="650" on="1"/>
      </contour>
      <contour>
        <pt x="229" y="278" on="1"/>
        <pt x="229" y="307" on="0"/>
        <pt x="256" y="345" on="0"/>
        <pt x="283" y="367" on="1"/>
        <pt x="311" y="390" on="0"/>
        <pt x="339" y="431" on="0"/>
        <pt x="339" y="465" on="1"/>
        <pt x="339" y="496" on="0"/>
        <pt x="301" y="552" on="0"/>
        <pt x="250" y="552" on="1"/>
        <pt x="192" y="552" on="0"/>
        <pt x="152" y="485" on="0"/>
        <pt x="152" y="452" on="1"/>
        <pt x="152" y="424" on="1"/>
        <pt x="103" y="424" on="1"/>
        <pt x="99" y="444" on="0"/>
        <pt x="99" y="455" on="1"/>
        <pt x="99" y="478" on="0"/>
        <pt x="120" y="544" on="0"/>
        <pt x="187" y="602" on="0"/>
        <pt x="250" y="602" on="1"/>
        <pt x="313" y="602" on="0"/>
        <pt x="376" y="546" on="0"/>
        <pt x="393" y="486" on="0"/>
        <pt x="393" y="467" on="1"/>
        <pt x="393" y="422" on="0"/>
        <pt x="356" y="364" on="0"/>
        <pt x="326" y="338" on="1"/>
        <pt x="304" y="320" on="0"/>
        <pt x="282" y="290" on="0"/>
        <pt x="282" y="268" on="1"/>
        <pt x="282" y="215" on="1"/>
        <pt x="229" y="215" on="1"/>
      </contour>
      <contour>
        <pt x="225" y="169" on="1"/>
        <pt x="285" y="169" on="1"/>
        <pt x="285" y="99" on="1"/>
        <pt x="225" y="99" on="1"/>
      </contour>
    </TTGlyph>
    <TTGlyph name="A" xMin="33" yMin="0" xMax="650" yMax="688">
      <contour>
        <pt x="503" y="200" on="1"/>
        <pt x="178" y="200" on="1"/>
        <pt x="99" y="0" on="1"/>
        <pt x="33" y="0" on="1"/>
        <pt x="303" y="688" on="1"/>
        <pt x="380" y="688" on="1"/>
        <pt x="650" y="0" on="1"/>
        <pt x="582" y="0" on="1"/>
      </contour>
      <contour>
        <pt x="338" y="613" on="1"/>
        <pt x="199" y="260" on="1"/>
        <pt x="482" y="260" on="1"/>
        <pt x="343" y="613" on="1"/>
      </contour>
    </TTGlyph>
    <TTGlyph name="A.ss01" xMin="97" yMin="0" xMax="614" yMax="696">
      <contour>
        <pt x="550" y="252" on="1"/>
        <pt x="161" y="252" on="1"/>
        <pt x="161" y="0" on="1"/>
        <pt x="97" y="0" on="1"/>
        <pt x="97" y="390" on="1"/>
        <pt x="97" y="523" on="0"/>
        <pt x="130" y="646" on="0"/>
        <pt x="236" y="696" on="0"/>
        <pt x="355" y="696" on="1"/>
        <pt x="474" y="696" on="0"/>
        <pt x="581" y="645" on="0"/>
        <pt x="614" y="523" on="0"/>
        <pt x="614" y="390" on="1"/>
        <pt x="614" y="0" on="1"/>
        <pt x="550" y="0" on="1"/>
      </contour>
      <contour>
        <pt x="550" y="519" on="0"/>
        <pt x="528" y="602" on="0"/>
        <pt x="448" y="636" on="0"/>
        <pt x="355" y="636" on="1"/>
        <pt x="262" y="636" on="0"/>
        <pt x="183" y="602" on="0"/>
        <pt x="161" y="519" on="0"/>
        <pt x="161" y="422" on="1"/>
        <pt x="161" y="314" on="1"/>
        <pt x="550" y="314" on="1"/>
        <pt x="550" y="422" on="1"/>
      </contour>
    </TTGlyph>
    <TTGlyph name="AE" xMin="-4" yMin="0" xMax="894" yMax="688">
      <contour>
        <pt x="487" y="200" on="1"/>
        <pt x="162" y="200" on="1"/>
        <pt x="62" y="0" on="1"/>
        <pt x="-4" y="0" on="1"/>
        <pt x="339" y="688" on="1"/>
        <pt x="894" y="688" on="1"/>
        <pt x="894" y="628" on="1"/>
        <pt x="431" y="628" on="1"/>
        <pt x="506" y="378" on="1"/>
        <pt x="847" y="378" on="1"/>
        <pt x="847" y="318" on="1"/>
        <pt x="520" y="318" on="1"/>
        <pt x="597" y="60" on="1"/>
        <pt x="894" y="60" on="1"/>
        <pt x="894" y="0" on="1"/>
        <pt x="545" y="0" on="1"/>
      </contour>
      <contour>
        <pt x="366" y="613" on="1"/>
        <pt x="189" y="260" on="1"/>
        <pt x="472" y="260" on="1"/>
        <pt x="371" y="613" on="1"/>
      </contour>
    </TTGlyph>
    <TTGlyph name="AEacute" xMin="-4" yMin="0" xMax="894" yMax="888">
      <component glyphName="AE" x="0" y="0" flags="0x0"/>
      <component glyphName="acutecomb.case" x="636" y="0" flags="0x0"/>
    </TTGlyph>
    <TTGlyph name="Aacute" xMin="33" yMin="0" xMax="650" yMax="890">
      <component glyphName="A" x="0" y="0" flags="0x0"/>
      <component glyphName="acute" x="282" y="147" flags="0x4"/>
    </TTGlyph>
    <TTGlyph name="Aacute.ss01" xMin="97" yMin="0" xMax="614" yMax="890">
      <component glyphName="A.ss01" x="0" y="0" flags="0x0"/>
      <component glyphName="acute" x="299" y="147" flags="0x4"/>
    </TTGlyph>
    <TTGlyph name="Abreve" xMin="33" yMin="0" xMax="650" yMax="888">
      <component glyphName="A" x="0" y="0" flags="0x0"/>
      <component glyphName="uni0306.case" x="495" y="0" flags="0x0"/>
    </TTGlyph>
    <TTGlyph name="Abreve.ss01" xMin="97" yMin="0" xMax="614" yMax="888">
      <component glyphName="A.ss01" x="0" y="0" flags="0x0"/>
      <component glyphName="uni0306.case" x="509" y="0" flags="0x0"/>
    </TTGlyph>
    <TTGlyph name="Acircumflex" xMin="33" yMin="0" xMax="650" yMax="890">
      <component glyphName="A" x="0" y="0" flags="0x0"/>
      <component glyphName="circumflex" x="183" y="147" flags="0x4"/>
    </TTGlyph>
    <TTGlyph name="Acircumflex.ss01" xMin="97" yMin="0" xMax="614" yMax="890">
      <component glyphName="A.ss01" x="0" y="0" flags="0x0"/>
      <component glyphName="circumflex" x="200" y="147" flags="0x4"/>
    </TTGlyph>
    <TTGlyph name="Adieresis" xMin="33" yMin="0" xMax="650" yMax="847">
      <component glyphName="A" x="0" y="0" flags="0x0"/>
      <component glyphName="dieresis" x="198" y="116" flags="0x4"/>
    </TTGlyph>
    <TTGlyph name="Adieresis.ss01" xMin="97" yMin="0" xMax="614" yMax="847">
      <component glyphName="A.ss01" x="0" y="0" flags="0x0"/>
      <component glyphName="dieresis" x="215" y="116" flags="0x4"/>
    </TTGlyph>
    <TTGlyph name="Agrave" xMin="33" yMin="0" xMax="650" yMax="890">
      <component glyphName="A" x="0" y="0" flags="0x0"/>
      <component glyphName="grave" x="187" y="147" flags="0x4"/>
    </TTGlyph>
    <TTGlyph name="Agrave.ss01" xMin="97" yMin="0" xMax="614" yMax="890">
      <component glyphName="A.ss01" x="0" y="0" flags="0x0"/>
      <component glyphName="grave" x="203" y="147" flags="0x4"/>
    </TTGlyph>
    <TTGlyph name="Amacron" xMin="33" yMin="0" xMax="650" yMax="887">
      <component glyphName="A" x="0" y="0" flags="0x0"/>
      <component glyphName="uni0304.case" x="521" y="0" flags="0x0"/>
    </TTGlyph>
    <TTGlyph name="Amacron.ss01" xMin="97" yMin="0" xMax="614" yMax="887">
      <component glyphName="A.ss01" x="0" y="0" flags="0x0"/>
      <component glyphName="uni0304.case" x="535" y="0" flags="0x0"/>
    </TTGlyph>
    <TTGlyph name="Aogonek" xMin="33" yMin="-196" xMax="650" yMax="688">
      <contour>
        <pt x="577" y="-150" on="0"/>
        <pt x="624" y="-150" on="1"/>
        <pt x="633" y="-150" on="0"/>
        <pt x="641" y="-149" on="1"/>
        <pt x="641" y="-194" on="1"/>
        <pt x="627" y="-196" on="0"/>
        <pt x="609" y="-196" on="1"/>
        <pt x="563" y="-196" on="0"/>
        <pt x="522" y="-155" on="0"/>
        <pt x="522" y="-121" on="1"/>
        <pt x="522" y="-92" on="0"/>
        <pt x="555" y="-26" on="0"/>
        <pt x="581" y="1" on="1"/>
        <pt x="503" y="200" on="1"/>
        <pt x="178" y="200" on="1"/>
        <pt x="99" y="0" on="1"/>
        <pt x="33" y="0" on="1"/>
        <pt x="303" y="688" on="1"/>
        <pt x="380" y="688" on="1"/>
        <pt x="650" y="0" on="1"/>
        <pt x="636" y="0" on="1"/>
        <pt x="614" y="-20" on="0"/>
        <pt x="577" y="-82" on="0"/>
        <pt x="577" y="-107" on="1"/>
      </contour>
      <contour>
        <pt x="482" y="260" on="1"/>
        <pt x="343" y="613" on="1"/>
        <pt x="338" y="613" on="1"/>
        <pt x="199" y="260" on="1"/>
      </contour>
    </TTGlyph>
    <TTGlyph name="Aogonek.ss01" xMin="97" yMin="-196" xMax="614" yMax="696">
      <contour>
        <pt x="582" y="-20" on="0"/>
        <pt x="545" y="-83" on="0"/>
        <pt x="545" y="-107" on="1"/>
        <pt x="545" y="-150" on="0"/>
        <pt x="592" y="-150" on="1"/>
        <pt x="601" y="-150" on="0"/>
        <pt x="609" y="-149" on="1"/>
        <pt x="609" y="-194" on="1"/>
        <pt x="598" y="-196" on="0"/>
        <pt x="578" y="-196" on="1"/>
        <pt x="491" y="-196" on="0"/>
        <pt x="491" y="-121" on="1"/>
        <pt x="491" y="-92" on="0"/>
        <pt x="523" y="-27" on="0"/>
        <pt x="550" y="1" on="1"/>
        <pt x="550" y="252" on="1"/>
        <pt x="161" y="252" on="1"/>
        <pt x="161" y="0" on="1"/>
        <pt x="97" y="0" on="1"/>
        <pt x="97" y="390" on="1"/>
        <pt x="97" y="523" on="0"/>
        <pt x="130" y="646" on="0"/>
        <pt x="236" y="696" on="0"/>
        <pt x="355" y="696" on="1"/>
        <pt x="474" y="696" on="0"/>
        <pt x="581" y="645" on="0"/>
        <pt x="614" y="523" on="0"/>
        <pt x="614" y="390" on="1"/>
        <pt x="614" y="0" on="1"/>
        <pt x="604" y="0" on="1"/>
      </contour>
      <contour>
        <pt x="550" y="314" on="1"/>
        <pt x="550" y="422" on="1"/>
        <pt x="550" y="519" on="0"/>
        <pt x="528" y="602" on="0"/>
        <pt x="448" y="636" on="0"/>
        <pt x="355" y="636" on="1"/>
        <pt x="262" y="636" on="0"/>
        <pt x="183" y="602" on="0"/>
        <pt x="161" y="519" on="0"/>
        <pt x="161" y="422" on="1"/>
        <pt x="161" y="314" on="1"/>
      </contour>
    </TTGlyph>
    <TTGlyph name="Aring" xMin="33" yMin="0" xMax="650" yMax="868">
      <contour>
        <pt x="650" y="0" on="1"/>
        <pt x="582" y="0" on="1"/>
        <pt x="503" y="200" on="1"/>
        <pt x="178" y="200" on="1"/>
        <pt x="99" y="0" on="1"/>
        <pt x="33" y="0" on="1"/>
        <pt x="293" y="668" on="1"/>
        <pt x="260" y="672" on="0"/>
        <pt x="230" y="694" on="0"/>
        <pt x="221" y="732" on="0"/>
        <pt x="221" y="767" on="1"/>
        <pt x="221" y="809" on="0"/>
        <pt x="235" y="849" on="0"/>
        <pt x="285" y="868" on="0"/>
        <pt x="341" y="868" on="1"/>
        <pt x="397" y="868" on="0"/>
        <pt x="448" y="849" on="0"/>
        <pt x="462" y="809" on="0"/>
        <pt x="462" y="767" on="1"/>
        <pt x="462" y="731" on="0"/>
        <pt x="454" y="694" on="0"/>
        <pt x="423" y="672" on="0"/>
        <pt x="389" y="668" on="1"/>
      </contour>
      <contour>
        <pt x="265" y="739" on="0"/>
        <pt x="272" y="715" on="0"/>
        <pt x="304" y="704" on="0"/>
        <pt x="341" y="704" on="1"/>
        <pt x="379" y="704" on="0"/>
        <pt x="410" y="715" on="0"/>
        <pt x="418" y="739" on="0"/>
        <pt x="418" y="767" on="1"/>
        <pt x="418" y="795" on="0"/>
        <pt x="410" y="819" on="0"/>
        <pt x="379" y="830" on="0"/>
        <pt x="341" y="830" on="1"/>
        <pt x="304" y="830" on="0"/>
        <pt x="272" y="819" on="0"/>
        <pt x="265" y="795" on="0"/>
        <pt x="265" y="767" on="1"/>
      </contour>
      <contour>
        <pt x="482" y="260" on="1"/>
        <pt x="343" y="613" on="1"/>
        <pt x="338" y="613" on="1"/>
        <pt x="199" y="260" on="1"/>
      </contour>
    </TTGlyph>
    <TTGlyph name="Aring.ss01" xMin="97" yMin="0" xMax="614" yMax="946">
      <component glyphName="A.ss01" x="0" y="0" flags="0x0"/>
      <component glyphName="ring" x="208" y="138" flags="0x4"/>
    </TTGlyph>
    <TTGlyph name="Aringacute" xMin="33" yMin="0" xMax="650" yMax="1068">
      <component glyphName="Aring" x="0" y="0" flags="0x0"/>
      <component glyphName="acutecomb.case" x="505" y="180" flags="0x4"/>
    </TTGlyph>
    <TTGlyph name="Aringacute.ss01" xMin="97" yMin="0" xMax="614" yMax="1093">
      <component glyphName="A.ss01" x="0" y="0" flags="0x0"/>
      <component glyphName="uni030A.case" x="503" y="0" flags="0x0"/>
      <component glyphName="acutecomb.case" x="522" y="205" flags="0x4"/>
    </TTGlyph>
    <TTGlyph name="Atilde" xMin="33" yMin="0" xMax="650" yMax="868">
      <component glyphName="A" x="0" y="0" flags="0x0"/>
      <component glyphName="tilde" x="145" y="125" flags="0x4"/>
    </TTGlyph>
    <TTGlyph name="Atilde.ss01" xMin="97" yMin="0" xMax="614" yMax="868">
      <component glyphName="A.ss01" x="0" y="0" flags="0x0"/>
      <component glyphName="tilde" x="158" y="125" flags="0x4"/>
    </TTGlyph>
    <TTGlyph name="B" xMin="106" yMin="0" xMax="606" yMax="688">
      <contour>
        <pt x="106" y="688" on="1"/>
        <pt x="420" y="688" on="1"/>
        <pt x="517" y="688" on="0"/>
        <pt x="598" y="599" on="0"/>
        <pt x="598" y="516" on="1"/>
        <pt x="598" y="448" on="0"/>
        <pt x="542" y="366" on="0"/>
        <pt x="481" y="354" on="1"/>
        <pt x="481" y="350" on="1"/>
        <pt x="554" y="337" on="0"/>
        <pt x="606" y="250" on="0"/>
        <pt x="606" y="181" on="1"/>
        <pt x="606" y="98" on="0"/>
        <pt x="525" y="0" on="0"/>
        <pt x="414" y="0" on="1"/>
        <pt x="106" y="0" on="1"/>
      </contour>
      <contour>
        <pt x="534" y="379" on="0"/>
        <pt x="534" y="503" on="1"/>
        <pt x="534" y="570" on="0"/>
        <pt x="477" y="628" on="0"/>
        <pt x="401" y="628" on="1"/>
        <pt x="170" y="628" on="1"/>
        <pt x="170" y="379" on="1"/>
        <pt x="401" y="379" on="1"/>
      </contour>
      <contour>
        <pt x="481" y="60" on="0"/>
        <pt x="542" y="120" on="0"/>
        <pt x="542" y="189" on="1"/>
        <pt x="542" y="258" on="0"/>
        <pt x="478" y="319" on="0"/>
        <pt x="405" y="319" on="1"/>
        <pt x="170" y="319" on="1"/>
        <pt x="170" y="60" on="1"/>
        <pt x="405" y="60" on="1"/>
      </contour>
    </TTGlyph>
    <TTGlyph name="C" xMin="82" yMin="-8" xMax="515" yMax="696">
      <contour>
        <pt x="484" y="-1" on="0"/>
        <pt x="393" y="-8" on="0"/>
        <pt x="355" y="-8" on="1"/>
        <pt x="232" y="-8" on="0"/>
        <pt x="121" y="42" on="0"/>
        <pt x="82" y="185" on="0"/>
        <pt x="82" y="344" on="1"/>
        <pt x="82" y="502" on="0"/>
        <pt x="121" y="645" on="0"/>
        <pt x="232" y="696" on="0"/>
        <pt x="355" y="696" on="1"/>
        <pt x="394" y="696" on="0"/>
        <pt x="481" y="688" on="0"/>
        <pt x="511" y="682" on="1"/>
        <pt x="511" y="626" on="1"/>
        <pt x="439" y="636" on="0"/>
        <pt x="371" y="636" on="1"/>
        <pt x="261" y="636" on="0"/>
        <pt x="174" y="601" on="0"/>
        <pt x="146" y="487" on="0"/>
        <pt x="146" y="344" on="1"/>
        <pt x="146" y="201" on="0"/>
        <pt x="174" y="87" on="0"/>
        <pt x="261" y="52" on="0"/>
        <pt x="371" y="52" on="1"/>
        <pt x="450" y="52" on="0"/>
        <pt x="515" y="62" on="1"/>
        <pt x="515" y="4" on="1"/>
      </contour>
    </TTGlyph>
    <TTGlyph name="Cacute" xMin="82" yMin="-8" xMax="515" yMax="888">
      <component glyphName="C" x="0" y="0" flags="0x0"/>
      <component glyphName="acutecomb.case" x="452" y="0" flags="0x0"/>
    </TTGlyph>
    <TTGlyph name="Cacute.loclPLK" xMin="82" yMin="-8" xMax="515" yMax="888">
      <component glyphName="C" x="0" y="0" flags="0x0"/>
      <component glyphName="acute.case.loclPLK" x="239" y="0" flags="0x0"/>
    </TTGlyph>
    <TTGlyph name="Ccaron" xMin="82" yMin="-8" xMax="515" yMax="888">
      <component glyphName="C" x="0" y="0" flags="0x0"/>
      <component glyphName="uni030C.case" x="446" y="0" flags="0x0"/>
    </TTGlyph>
    <TTGlyph name="Ccedilla" xMin="82" yMin="-190" xMax="515" yMax="696">
      <contour>
        <pt x="450" y="52" on="0"/>
        <pt x="515" y="62" on="1"/>
        <pt x="515" y="4" on="1"/>
        <pt x="484" y="-1" on="0"/>
        <pt x="393" y="-8" on="0"/>
        <pt x="355" y="-8" on="1"/>
        <pt x="323" y="-8" on="0"/>
        <pt x="309" y="-7" on="1"/>
        <pt x="269" y="-190" on="1"/>
        <pt x="206" y="-190" on="1"/>
        <pt x="206" y="-185" on="1"/>
        <pt x="264" y="-4" on="1"/>
        <pt x="186" y="4" on="0"/>
        <pt x="110" y="68" on="0"/>
        <pt x="82" y="207" on="0"/>
        <pt x="82" y="344" on="1"/>
        <pt x="82" y="502" on="0"/>
        <pt x="121" y="645" on="0"/>
        <pt x="232" y="696" on="0"/>
        <pt x="355" y="696" on="1"/>
        <pt x="394" y="696" on="0"/>
        <pt x="481" y="688" on="0"/>
        <pt x="511" y="682" on="1"/>
        <pt x="511" y="626" on="1"/>
        <pt x="439" y="636" on="0"/>
        <pt x="371" y="636" on="1"/>
        <pt x="261" y="636" on="0"/>
        <pt x="174" y="601" on="0"/>
        <pt x="146" y="487" on="0"/>
        <pt x="146" y="344" on="1"/>
        <pt x="146" y="201" on="0"/>
        <pt x="174" y="87" on="0"/>
        <pt x="261" y="52" on="0"/>
        <pt x="371" y="52" on="1"/>
      </contour>
    </TTGlyph>
    <TTGlyph name="Ccircumflex" xMin="82" yMin="-8" xMax="515" yMax="888">
      <component glyphName="C" x="0" y="0" flags="0x0"/>
      <component glyphName="uni0302.case" x="446" y="0" flags="0x0"/>
    </TTGlyph>
    <TTGlyph name="Cdotaccent" xMin="82" yMin="-8" xMax="515" yMax="876">
      <component glyphName="C" x="0" y="0" flags="0x0"/>
      <component glyphName="uni0307.case" x="339" y="0" flags="0x0"/>
    </TTGlyph>
    <TTGlyph name="D" xMin="106" yMin="0" xMax="607" yMax="688">
      <contour>
        <pt x="106" y="688" on="1"/>
        <pt x="319" y="688" on="1"/>
        <pt x="460" y="688" on="0"/>
        <pt x="575" y="640" on="0"/>
        <pt x="607" y="508" on="0"/>
        <pt x="607" y="344" on="1"/>
        <pt x="607" y="180" on="0"/>
        <pt x="575" y="48" on="0"/>
        <pt x="460" y="0" on="0"/>
        <pt x="319" y="0" on="1"/>
        <pt x="106" y="0" on="1"/>
      </contour>
      <contour>
        <pt x="302" y="60" on="1"/>
        <pt x="429" y="60" on="0"/>
        <pt x="517" y="87" on="0"/>
        <pt x="543" y="193" on="0"/>
        <pt x="543" y="344" on="1"/>
        <pt x="543" y="493" on="0"/>
        <pt x="516" y="601" on="0"/>
        <pt x="427" y="628" on="0"/>
        <pt x="302" y="628" on="1"/>
        <pt x="170" y="628" on="1"/>
        <pt x="170" y="60" on="1"/>
      </contour>
    </TTGlyph>
    <TTGlyph name="Dcaron" xMin="106" yMin="0" xMax="607" yMax="888">
      <component glyphName="D" x="0" y="0" flags="0x0"/>
      <component glyphName="uni030C.case" x="504" y="0" flags="0x0"/>
    </TTGlyph>
    <TTGlyph name="Dcroat" xMin="37" yMin="0" xMax="607" yMax="688">
      <component glyphName="Eth" x="0" y="0" flags="0x0"/>
    </TTGlyph>
    <TTGlyph name="E" xMin="106" yMin="0" xMax="544" yMax="688">
      <contour>
        <pt x="106" y="688" on="1"/>
        <pt x="544" y="688" on="1"/>
        <pt x="544" y="628" on="1"/>
        <pt x="170" y="628" on="1"/>
        <pt x="170" y="378" on="1"/>
        <pt x="497" y="378" on="1"/>
        <pt x="497" y="318" on="1"/>
        <pt x="170" y="318" on="1"/>
        <pt x="170" y="60" on="1"/>
        <pt x="544" y="60" on="1"/>
        <pt x="544" y="0" on="1"/>
        <pt x="106" y="0" on="1"/>
      </contour>
    </TTGlyph>
    <TTGlyph name="Eacute" xMin="106" yMin="0" xMax="544" yMax="890">
      <component glyphName="E" x="0" y="0" flags="0x0"/>
      <component glyphName="acute" x="273" y="147" flags="0x4"/>
    </TTGlyph>
    <TTGlyph name="Ebreve" xMin="106" yMin="0" xMax="544" yMax="888">
      <component glyphName="E" x="0" y="0" flags="0x0"/>
      <component glyphName="uni0306.case" x="478" y="0" flags="0x0"/>
    </TTGlyph>
    <TTGlyph name="Ecaron" xMin="106" yMin="0" xMax="544" yMax="888">
      <component glyphName="E" x="0" y="0" flags="0x0"/>
      <component glyphName="uni030C.case" x="483" y="0" flags="0x0"/>
    </TTGlyph>
    <TTGlyph name="Ecircumflex" xMin="106" yMin="0" xMax="544" yMax="890">
      <component glyphName="E" x="0" y="0" flags="0x0"/>
      <component glyphName="circumflex" x="170" y="147" flags="0x4"/>
    </TTGlyph>
    <TTGlyph name="Edieresis" xMin="106" yMin="0" xMax="544" yMax="847">
      <component glyphName="E" x="0" y="0" flags="0x0"/>
      <component glyphName="dieresis" x="189" y="116" flags="0x4"/>
    </TTGlyph>
    <TTGlyph name="Edotaccent" xMin="106" yMin="0" xMax="544" yMax="876">
      <component glyphName="E" x="0" y="0" flags="0x0"/>
      <component glyphName="uni0307.case" x="376" y="0" flags="0x0"/>
    </TTGlyph>
    <TTGlyph name="Egrave" xMin="106" yMin="0" xMax="544" yMax="890">
      <component glyphName="E" x="0" y="0" flags="0x0"/>
      <component glyphName="grave" x="173" y="147" flags="0x4"/>
    </TTGlyph>
    <TTGlyph name="Emacron" xMin="106" yMin="0" xMax="544" yMax="887">
      <component glyphName="E" x="0" y="0" flags="0x0"/>
      <component glyphName="uni0304.case" x="504" y="0" flags="0x0"/>
    </TTGlyph>
    <TTGlyph name="Eng" xMin="106" yMin="-200" xMax="627" yMax="688">
      <contour>
        <pt x="627" y="688" on="1"/>
        <pt x="627" y="-77" on="1"/>
        <pt x="627" y="-134" on="0"/>
        <pt x="596" y="-185" on="0"/>
        <pt x="532" y="-200" on="0"/>
        <pt x="467" y="-200" on="1"/>
        <pt x="467" y="-148" on="1"/>
        <pt x="512" y="-148" on="0"/>
        <pt x="553" y="-138" on="0"/>
        <pt x="566" y="-116" on="0"/>
        <pt x="566" y="-92" on="1"/>
        <pt x="566" y="0" on="1"/>
        <pt x="172" y="567" on="1"/>
        <pt x="168" y="567" on="1"/>
        <pt x="168" y="0" on="1"/>
        <pt x="106" y="0" on="1"/>
        <pt x="106" y="688" on="1"/>
        <pt x="171" y="688" on="1"/>
        <pt x="562" y="127" on="1"/>
        <pt x="566" y="127" on="1"/>
        <pt x="566" y="688" on="1"/>
      </contour>
    </TTGlyph>
    <TTGlyph name="Eogonek" xMin="106" yMin="-196" xMax="544" yMax="688">
      <contour>
        <pt x="463" y="-196" on="0"/>
        <pt x="422" y="-156" on="0"/>
        <pt x="422" y="-123" on="1"/>
        <pt x="422" y="-92" on="0"/>
        <pt x="457" y="-29" on="0"/>
        <pt x="488" y="0" on="1"/>
        <pt x="106" y="0" on="1"/>
        <pt x="106" y="688" on="1"/>
        <pt x="544" y="688" on="1"/>
        <pt x="544" y="628" on="1"/>
        <pt x="170" y="628" on="1"/>
        <pt x="170" y="378" on="1"/>
        <pt x="497" y="378" on="1"/>
        <pt x="497" y="318" on="1"/>
        <pt x="170" y="318" on="1"/>
        <pt x="170" y="60" on="1"/>
        <pt x="544" y="60" on="1"/>
        <pt x="544" y="0" on="1"/>
        <pt x="519" y="-18" on="0"/>
        <pt x="476" y="-82" on="0"/>
        <pt x="476" y="-109" on="1"/>
        <pt x="476" y="-127" on="0"/>
        <pt x="499" y="-150" on="0"/>
        <pt x="523" y="-150" on="1"/>
        <pt x="534" y="-150" on="0"/>
        <pt x="540" y="-149" on="1"/>
        <pt x="540" y="-194" on="1"/>
        <pt x="528" y="-196" on="0"/>
        <pt x="509" y="-196" on="1"/>
      </contour>
    </TTGlyph>
    <TTGlyph name="Eth" xMin="37" yMin="0" xMax="607" yMax="688">
      <contour>
        <pt x="106" y="320" on="1"/>
        <pt x="37" y="320" on="1"/>
        <pt x="37" y="378" on="1"/>
        <pt x="106" y="378" on="1"/>
        <pt x="106" y="688" on="1"/>
        <pt x="319" y="688" on="1"/>
        <pt x="460" y="688" on="0"/>
        <pt x="575" y="640" on="0"/>
        <pt x="607" y="508" on="0"/>
        <pt x="607" y="344" on="1"/>
        <pt x="607" y="180" on="0"/>
        <pt x="575" y="48" on="0"/>
        <pt x="460" y="0" on="0"/>
        <pt x="319" y="0" on="1"/>
        <pt x="106" y="0" on="1"/>
      </contour>
      <contour>
        <pt x="429" y="60" on="0"/>
        <pt x="517" y="87" on="0"/>
        <pt x="543" y="193" on="0"/>
        <pt x="543" y="344" on="1"/>
        <pt x="543" y="493" on="0"/>
        <pt x="516" y="601" on="0"/>
        <pt x="427" y="628" on="0"/>
        <pt x="302" y="628" on="1"/>
        <pt x="170" y="628" on="1"/>
        <pt x="170" y="378" on="1"/>
        <pt x="289" y="378" on="1"/>
        <pt x="289" y="320" on="1"/>
        <pt x="170" y="320" on="1"/>
        <pt x="170" y="60" on="1"/>
        <pt x="302" y="60" on="1"/>
      </contour>
    </TTGlyph>
    <TTGlyph name="Euro" xMin="39" yMin="-8" xMax="561" yMax="696">
      <contour>
        <pt x="292" y="-8" on="0"/>
        <pt x="184" y="28" on="0"/>
        <pt x="136" y="134" on="0"/>
        <pt x="131" y="245" on="1"/>
        <pt x="39" y="245" on="1"/>
        <pt x="39" y="293" on="1"/>
        <pt x="130" y="293" on="1"/>
        <pt x="130" y="398" on="1"/>
        <pt x="39" y="398" on="1"/>
        <pt x="39" y="445" on="1"/>
        <pt x="131" y="445" on="1"/>
        <pt x="137" y="552" on="0"/>
        <pt x="186" y="657" on="0"/>
        <pt x="294" y="696" on="0"/>
        <pt x="401" y="696" on="1"/>
        <pt x="444" y="696" on="0"/>
        <pt x="531" y="687" on="0"/>
        <pt x="557" y="682" on="1"/>
        <pt x="557" y="626" on="1"/>
        <pt x="532" y="630" on="0"/>
        <pt x="451" y="636" on="0"/>
        <pt x="418" y="636" on="1"/>
        <pt x="323" y="636" on="0"/>
        <pt x="236" y="612" on="0"/>
        <pt x="200" y="534" on="0"/>
        <pt x="196" y="445" on="1"/>
        <pt x="508" y="445" on="1"/>
        <pt x="508" y="398" on="1"/>
        <pt x="195" y="398" on="1"/>
        <pt x="195" y="293" on="1"/>
        <pt x="508" y="293" on="1"/>
        <pt x="508" y="245" on="1"/>
        <pt x="196" y="245" on="1"/>
        <pt x="200" y="155" on="0"/>
        <pt x="236" y="76" on="0"/>
        <pt x="322" y="52" on="0"/>
        <pt x="418" y="52" on="1"/>
        <pt x="491" y="52" on="0"/>
        <pt x="561" y="62" on="1"/>
        <pt x="561" y="3" on="1"/>
        <pt x="458" y="-8" on="0"/>
        <pt x="401" y="-8" on="1"/>
      </contour>
    </TTGlyph>
    <TTGlyph name="F" xMin="106" yMin="0" xMax="524" yMax="688">
      <contour>
        <pt x="106" y="688" on="1"/>
        <pt x="524" y="688" on="1"/>
        <pt x="524" y="628" on="1"/>
        <pt x="170" y="628" on="1"/>
        <pt x="170" y="363" on="1"/>
        <pt x="487" y="363" on="1"/>
        <pt x="487" y="303" on="1"/>
        <pt x="170" y="303" on="1"/>
        <pt x="170" y="0" on="1"/>
        <pt x="106" y="0" on="1"/>
      </contour>
    </TTGlyph>
    <TTGlyph name="G" xMin="82" yMin="-8" xMax="585" yMax="696">
      <contour>
        <pt x="351" y="303" on="1"/>
        <pt x="351" y="362" on="1"/>
        <pt x="585" y="362" on="1"/>
        <pt x="585" y="11" on="1"/>
        <pt x="536" y="3" on="0"/>
        <pt x="415" y="-8" on="0"/>
        <pt x="370" y="-8" on="1"/>
        <pt x="244" y="-8" on="0"/>
        <pt x="126" y="44" on="0"/>
        <pt x="82" y="188" on="0"/>
        <pt x="82" y="344" on="1"/>
        <pt x="82" y="499" on="0"/>
        <pt x="127" y="645" on="0"/>
        <pt x="245" y="696" on="0"/>
        <pt x="370" y="696" on="1"/>
        <pt x="420" y="696" on="0"/>
        <pt x="540" y="685" on="0"/>
        <pt x="582" y="677" on="1"/>
        <pt x="582" y="620" on="1"/>
        <pt x="474" y="636" on="0"/>
        <pt x="406" y="636" on="1"/>
        <pt x="283" y="636" on="0"/>
        <pt x="186" y="608" on="0"/>
        <pt x="146" y="490" on="0"/>
        <pt x="146" y="344" on="1"/>
        <pt x="146" y="209" on="0"/>
        <pt x="176" y="92" on="0"/>
        <pt x="266" y="51" on="0"/>
        <pt x="370" y="51" on="1"/>
        <pt x="402" y="51" on="0"/>
        <pt x="494" y="57" on="0"/>
        <pt x="523" y="61" on="1"/>
        <pt x="523" y="303" on="1"/>
      </contour>
    </TTGlyph>
    <TTGlyph name="G.ss01" xMin="82" yMin="-8" xMax="616" yMax="696">
      <contour>
        <pt x="242" y="-8" on="0"/>
        <pt x="125" y="44" on="0"/>
        <pt x="82" y="188" on="0"/>
        <pt x="82" y="344" on="1"/>
        <pt x="82" y="499" on="0"/>
        <pt x="129" y="644" on="0"/>
        <pt x="250" y="696" on="0"/>
        <pt x="378" y="696" on="1"/>
        <pt x="429" y="696" on="0"/>
        <pt x="550" y="685" on="0"/>
        <pt x="592" y="677" on="1"/>
        <pt x="592" y="620" on="1"/>
        <pt x="482" y="636" on="0"/>
        <pt x="415" y="636" on="1"/>
        <pt x="287" y="636" on="0"/>
        <pt x="187" y="608" on="0"/>
        <pt x="146" y="490" on="0"/>
        <pt x="146" y="344" on="1"/>
        <pt x="146" y="208" on="0"/>
        <pt x="176" y="91" on="0"/>
        <pt x="264" y="52" on="0"/>
        <pt x="367" y="52" on="1"/>
        <pt x="460" y="52" on="0"/>
        <pt x="532" y="81" on="0"/>
        <pt x="552" y="171" on="0"/>
        <pt x="552" y="288" on="1"/>
        <pt x="552" y="312" on="1"/>
        <pt x="383" y="312" on="1"/>
        <pt x="383" y="371" on="1"/>
        <pt x="616" y="371" on="1"/>
        <pt x="616" y="298" on="1"/>
        <pt x="616" y="157" on="0"/>
        <pt x="590" y="40" on="0"/>
        <pt x="490" y="-8" on="0"/>
        <pt x="369" y="-8" on="1"/>
      </contour>
    </TTGlyph>
    <TTGlyph name="G_tilde.loclGUA" xMin="82" yMin="-8" xMax="585" yMax="888">
      <component glyphName="G" x="0" y="0" flags="0x0"/>
      <component glyphName="tildecomb.case" x="536" y="0" flags="0x0"/>
    </TTGlyph>
    <TTGlyph name="Gbreve" xMin="82" yMin="-8" xMax="585" yMax="888">
      <component glyphName="G" x="0" y="0" flags="0x0"/>
      <component glyphName="uni0306.case" x="493" y="0" flags="0x0"/>
    </TTGlyph>
    <TTGlyph name="Gbreve.ss01" xMin="82" yMin="-8" xMax="616" yMax="888">
      <component glyphName="G.ss01" x="0" y="0" flags="0x0"/>
      <component glyphName="uni0306.case" x="501" y="0" flags="0x0"/>
    </TTGlyph>
    <TTGlyph name="Gcaron" xMin="82" yMin="-8" xMax="585" yMax="888">
      <component glyphName="G" x="0" y="0" flags="0x0"/>
      <component glyphName="uni030C.case" x="498" y="0" flags="0x0"/>
    </TTGlyph>
    <TTGlyph name="Gcaron.ss01" xMin="82" yMin="-8" xMax="616" yMax="888">
      <component glyphName="G.ss01" x="0" y="0" flags="0x0"/>
      <component glyphName="uni030C.case" x="506" y="0" flags="0x0"/>
    </TTGlyph>
    <TTGlyph name="Gcircumflex" xMin="82" yMin="-8" xMax="585" yMax="888">
      <component glyphName="G" x="0" y="0" flags="0x0"/>
      <component glyphName="uni0302.case" x="498" y="0" flags="0x0"/>
    </TTGlyph>
    <TTGlyph name="Gcircumflex.ss01" xMin="82" yMin="-8" xMax="616" yMax="888">
      <component glyphName="G.ss01" x="0" y="0" flags="0x0"/>
      <component glyphName="uni0302.case" x="506" y="0" flags="0x0"/>
    </TTGlyph>
    <TTGlyph name="Gcommaaccent" xMin="82" yMin="-250" xMax="585" yMax="696">
      <component glyphName="G" x="0" y="0" flags="0x0"/>
      <component glyphName="uni0326" x="452" y="0" flags="0x0"/>
    </TTGlyph>
    <TTGlyph name="Gcommaaccent.ss01" xMin="82" yMin="-250" xMax="616" yMax="696">
      <component glyphName="G.ss01" x="0" y="0" flags="0x0"/>
      <component glyphName="uni0326" x="460" y="0" flags="0x0"/>
    </TTGlyph>
    <TTGlyph name="Gdotaccent" xMin="82" yMin="-8" xMax="585" yMax="876">
      <component glyphName="G" x="0" y="0" flags="0x0"/>
      <component glyphName="uni0307.case" x="391" y="0" flags="0x0"/>
    </TTGlyph>
    <TTGlyph name="Gdotaccent.ss01" xMin="82" yMin="-8" xMax="616" yMax="876">
      <component glyphName="G.ss01" x="0" y="0" flags="0x0"/>
      <component glyphName="uni0307.case" x="399" y="0" flags="0x0"/>
    </TTGlyph>
    <TTGlyph name="Gtilde.loclGUA.ss01" xMin="82" yMin="-8" xMax="616" yMax="888">
      <component glyphName="G.ss01" x="0" y="0" flags="0x0"/>
      <component glyphName="tildecomb.case" x="544" y="0" flags="0x0"/>
    </TTGlyph>
    <TTGlyph name="H" xMin="106" yMin="0" xMax="627" yMax="688">
      <contour>
        <pt x="563" y="317" on="1"/>
        <pt x="170" y="317" on="1"/>
        <pt x="170" y="0" on="1"/>
        <pt x="106" y="0" on="1"/>
        <pt x="106" y="688" on="1"/>
        <pt x="170" y="688" on="1"/>
        <pt x="170" y="378" on="1"/>
        <pt x="563" y="378" on="1"/>
        <pt x="563" y="688" on="1"/>
        <pt x="627" y="688" on="1"/>
        <pt x="627" y="0" on="1"/>
        <pt x="563" y="0" on="1"/>
      </contour>
    </TTGlyph>
    <TTGlyph name="Hbar" xMin="106" yMin="0" xMax="627" yMax="688">
      <contour>
        <pt x="627" y="688" on="1"/>
        <pt x="627" y="0" on="1"/>
        <pt x="563" y="0" on="1"/>
        <pt x="563" y="289" on="1"/>
        <pt x="170" y="289" on="1"/>
        <pt x="170" y="0" on="1"/>
        <pt x="106" y="0" on="1"/>
        <pt x="106" y="688" on="1"/>
        <pt x="170" y="688" on="1"/>
        <pt x="170" y="544" on="1"/>
        <pt x="563" y="544" on="1"/>
        <pt x="563" y="688" on="1"/>
      </contour>
      <contour>
        <pt x="563" y="351" on="1"/>
        <pt x="563" y="486" on="1"/>
        <pt x="170" y="486" on="1"/>
        <pt x="170" y="351" on="1"/>
      </contour>
    </TTGlyph>
    <TTGlyph name="Hcircumflex" xMin="106" yMin="0" xMax="627" yMax="888">
      <component glyphName="H" x="0" y="0" flags="0x0"/>
      <component glyphName="uni0302.case" x="525" y="0" flags="0x0"/>
    </TTGlyph>
    <TTGlyph name="I" xMin="106" yMin="0" xMax="170" yMax="688">
      <contour>
        <pt x="106" y="688" on="1"/>
        <pt x="170" y="688" on="1"/>
        <pt x="170" y="0" on="1"/>
        <pt x="106" y="0" on="1"/>
      </contour>
    </TTGlyph>
    <TTGlyph name="IJ" xMin="106" yMin="0" xMax="520" yMax="688">
      <component glyphName="I" x="0" y="0" flags="0x0"/>
      <component glyphName="J" x="277" y="0" flags="0x0"/>
    </TTGlyph>
    <TTGlyph name="Iacute" xMin="102" yMin="0" xMax="275" yMax="890">
      <component glyphName="I" x="0" y="0" flags="0x0"/>
      <component glyphName="acute" x="82" y="147" flags="0x4"/>
    </TTGlyph>
    <TTGlyph name="Iacute_J.loclNLD" xMin="106" yMin="0" xMax="632" yMax="888">
      <component glyphName="I" x="0" y="0" flags="0x0"/>
      <component glyphName="acutecomb.case" x="302" y="0" flags="0x0"/>
      <component glyphName="J" x="277" y="0" flags="0x0"/>
      <component glyphName="acutecomb.case" x="652" y="0" flags="0x0"/>
    </TTGlyph>
    <TTGlyph name="Ibreve" xMin="4" yMin="0" xMax="271" yMax="888">
      <component glyphName="I" x="0" y="0" flags="0x0"/>
      <component glyphName="uni0306.case" x="291" y="0" flags="0x0"/>
    </TTGlyph>
    <TTGlyph name="Icircumflex" xMin="0" yMin="0" xMax="276" yMax="890">
      <component glyphName="I" x="0" y="0" flags="0x0"/>
      <component glyphName="circumflex" x="-20" y="147" flags="0x4"/>
    </TTGlyph>
    <TTGlyph name="Idieresis" xMin="15" yMin="0" xMax="262" yMax="846">
      <component glyphName="I" x="0" y="0" flags="0x0"/>
      <component glyphName="dieresis" x="-5" y="115" flags="0x4"/>
    </TTGlyph>
    <TTGlyph name="Idotaccent" xMin="106" yMin="0" xMax="170" yMax="876">
      <component glyphName="I" x="0" y="0" flags="0x0"/>
      <component glyphName="uni0307.case" x="189" y="0" flags="0x0"/>
    </TTGlyph>
    <TTGlyph name="Igrave" xMin="5" yMin="0" xMax="178" yMax="890">
      <component glyphName="I" x="0" y="0" flags="0x0"/>
      <component glyphName="grave" x="-15" y="147" flags="0x4"/>
    </TTGlyph>
    <TTGlyph name="Imacron" xMin="20" yMin="0" xMax="255" yMax="887">
      <component glyphName="I" x="0" y="0" flags="0x0"/>
      <component glyphName="uni0304.case" x="317" y="0" flags="0x0"/>
    </TTGlyph>
    <TTGlyph name="Iogonek" xMin="53" yMin="-196" xMax="171" yMax="688">
      <contour>
        <pt x="53" y="-196" on="0"/>
        <pt x="53" y="-121" on="1"/>
        <pt x="53" y="-92" on="0"/>
        <pt x="87" y="-27" on="0"/>
        <pt x="115" y="0" on="1"/>
        <pt x="106" y="0" on="1"/>
        <pt x="106" y="688" on="1"/>
        <pt x="170" y="688" on="1"/>
        <pt x="170" y="0" on="1"/>
        <pt x="148" y="-18" on="0"/>
        <pt x="108" y="-82" on="0"/>
        <pt x="108" y="-107" on="1"/>
        <pt x="108" y="-150" on="0"/>
        <pt x="155" y="-150" on="1"/>
        <pt x="165" y="-150" on="0"/>
        <pt x="171" y="-149" on="1"/>
        <pt x="171" y="-194" on="1"/>
        <pt x="159" y="-196" on="0"/>
        <pt x="140" y="-196" on="1"/>
      </contour>
    </TTGlyph>
    <TTGlyph name="Itilde" xMin="-39" yMin="0" xMax="314" yMax="888">
      <component glyphName="I" x="0" y="0" flags="0x0"/>
      <component glyphName="tildecomb.case" x="334" y="0" flags="0x0"/>
    </TTGlyph>
    <TTGlyph name="J" xMin="36" yMin="0" xMax="243" yMax="688">
      <contour>
        <pt x="113" y="60" on="0"/>
        <pt x="165" y="80" on="0"/>
        <pt x="179" y="149" on="0"/>
        <pt x="179" y="251" on="1"/>
        <pt x="179" y="688" on="1"/>
        <pt x="243" y="688" on="1"/>
        <pt x="243" y="275" on="1"/>
        <pt x="243" y="132" on="0"/>
        <pt x="221" y="30" on="0"/>
        <pt x="144" y="1" on="0"/>
        <pt x="36" y="0" on="1"/>
        <pt x="36" y="58" on="1"/>
      </contour>
    </TTGlyph>
    <TTGlyph name="Jcircumflex" xMin="36" yMin="0" xMax="349" yMax="888">
      <component glyphName="J" x="0" y="0" flags="0x0"/>
      <component glyphName="uni0302.case" x="369" y="0" flags="0x0"/>
    </TTGlyph>
    <TTGlyph name="K" xMin="106" yMin="0" xMax="635" yMax="688">
      <contour>
        <pt x="316" y="319" on="1"/>
        <pt x="170" y="319" on="1"/>
        <pt x="170" y="0" on="1"/>
        <pt x="106" y="0" on="1"/>
        <pt x="106" y="688" on="1"/>
        <pt x="170" y="688" on="1"/>
        <pt x="170" y="379" on="1"/>
        <pt x="316" y="379" on="1"/>
        <pt x="560" y="688" on="1"/>
        <pt x="632" y="688" on="1"/>
        <pt x="368" y="352" on="1"/>
        <pt x="635" y="0" on="1"/>
        <pt x="560" y="0" on="1"/>
      </contour>
    </TTGlyph>
    <TTGlyph name="Kcommaaccent" xMin="106" yMin="-250" xMax="635" yMax="688">
      <component glyphName="K" x="0" y="0" flags="0x0"/>
      <component glyphName="uni0326" x="446" y="0" flags="0x0"/>
    </TTGlyph>
    <TTGlyph name="L" xMin="106" yMin="0" xMax="504" yMax="688">
      <contour>
        <pt x="106" y="688" on="1"/>
        <pt x="170" y="688" on="1"/>
        <pt x="170" y="62" on="1"/>
        <pt x="504" y="62" on="1"/>
        <pt x="504" y="0" on="1"/>
        <pt x="106" y="0" on="1"/>
      </contour>
    </TTGlyph>
    <TTGlyph name="Lacute" xMin="106" yMin="0" xMax="504" yMax="888">
      <component glyphName="L" x="0" y="0" flags="0x0"/>
      <component glyphName="acutecomb.case" x="302" y="0" flags="0x0"/>
    </TTGlyph>
    <TTGlyph name="Lcaron" xMin="106" yMin="0" xMax="504" yMax="688">
      <component glyphName="L" x="0" y="0" flags="0x0"/>
      <component glyphName="caron.loclCSY" x="272" y="0" flags="0x0"/>
    </TTGlyph>
    <TTGlyph name="Lcommaaccent" xMin="106" yMin="-250" xMax="504" yMax="688">
      <component glyphName="L" x="0" y="0" flags="0x0"/>
      <component glyphName="uni0326" x="400" y="0" flags="0x0"/>
    </TTGlyph>
    <TTGlyph name="Ldot" xMin="106" yMin="0" xMax="504" yMax="688">
      <component glyphName="L" x="0" y="0" flags="0x0"/>
      <component glyphName="periodcentered" x="309" y="65" flags="0x4"/>
    </TTGlyph>
    <TTGlyph name="Lslash" xMin="40" yMin="0" xMax="504" yMax="688">
      <contour>
        <pt x="504" y="62" on="1"/>
        <pt x="504" y="0" on="1"/>
        <pt x="106" y="0" on="1"/>
        <pt x="106" y="298" on="1"/>
        <pt x="40" y="273" on="1"/>
        <pt x="40" y="328" on="1"/>
        <pt x="106" y="353" on="1"/>
        <pt x="106" y="688" on="1"/>
        <pt x="170" y="688" on="1"/>
        <pt x="170" y="376" on="1"/>
        <pt x="370" y="451" on="1"/>
        <pt x="370" y="396" on="1"/>
        <pt x="170" y="321" on="1"/>
        <pt x="170" y="62" on="1"/>
      </contour>
    </TTGlyph>
    <TTGlyph name="M" xMin="106" yMin="0" xMax="803" yMax="688">
      <contour>
        <pt x="740" y="574" on="1"/>
        <pt x="736" y="574" on="1"/>
        <pt x="478" y="0" on="1"/>
        <pt x="429" y="0" on="1"/>
        <pt x="171" y="574" on="1"/>
        <pt x="167" y="574" on="1"/>
        <pt x="167" y="0" on="1"/>
        <pt x="106" y="0" on="1"/>
        <pt x="106" y="688" on="1"/>
        <pt x="192" y="688" on="1"/>
        <pt x="452" y="110" on="1"/>
        <pt x="457" y="110" on="1"/>
        <pt x="718" y="688" on="1"/>
        <pt x="803" y="688" on="1"/>
        <pt x="803" y="0" on="1"/>
        <pt x="740" y="0" on="1"/>
      </contour>
    </TTGlyph>
    <TTGlyph name="N" xMin="106" yMin="0" xMax="627" yMax="688">
      <contour>
        <pt x="172" y="567" on="1"/>
        <pt x="168" y="567" on="1"/>
        <pt x="168" y="0" on="1"/>
        <pt x="106" y="0" on="1"/>
        <pt x="106" y="688" on="1"/>
        <pt x="171" y="688" on="1"/>
        <pt x="562" y="127" on="1"/>
        <pt x="566" y="127" on="1"/>
        <pt x="566" y="688" on="1"/>
        <pt x="627" y="688" on="1"/>
        <pt x="627" y="0" on="1"/>
        <pt x="566" y="0" on="1"/>
      </contour>
    </TTGlyph>
    <TTGlyph name="Nacute" xMin="106" yMin="0" xMax="627" yMax="888">
      <component glyphName="N" x="0" y="0" flags="0x0"/>
      <component glyphName="acutecomb.case" x="531" y="0" flags="0x0"/>
    </TTGlyph>
    <TTGlyph name="Nacute.loclPLK" xMin="106" yMin="0" xMax="627" yMax="888">
      <component glyphName="N" x="0" y="0" flags="0x0"/>
      <component glyphName="acute.case.loclPLK" x="318" y="0" flags="0x0"/>
    </TTGlyph>
    <TTGlyph name="Ncaron" xMin="106" yMin="0" xMax="627" yMax="888">
      <component glyphName="N" x="0" y="0" flags="0x0"/>
      <component glyphName="uni030C.case" x="525" y="0" flags="0x0"/>
    </TTGlyph>
    <TTGlyph name="Ncommaaccent" xMin="106" yMin="-250" xMax="627" yMax="688">
      <component glyphName="N" x="0" y="0" flags="0x0"/>
      <component glyphName="uni0326" x="479" y="0" flags="0x0"/>
    </TTGlyph>
    <TTGlyph name="Ntilde" xMin="106" yMin="0" xMax="627" yMax="869">
      <component glyphName="N" x="0" y="0" flags="0x0"/>
      <component glyphName="tilde" x="173" y="126" flags="0x4"/>
    </TTGlyph>
    <TTGlyph name="O" xMin="82" yMin="-8" xMax="638" yMax="696">
      <contour>
        <pt x="225" y="-8" on="0"/>
        <pt x="113" y="43" on="0"/>
        <pt x="82" y="178" on="0"/>
        <pt x="82" y="344" on="1"/>
        <pt x="82" y="510" on="0"/>
        <pt x="113" y="645" on="0"/>
        <pt x="225" y="696" on="0"/>
        <pt x="360" y="696" on="1"/>
        <pt x="495" y="696" on="0"/>
        <pt x="607" y="645" on="0"/>
        <pt x="638" y="510" on="0"/>
        <pt x="638" y="344" on="1"/>
        <pt x="638" y="178" on="0"/>
        <pt x="607" y="43" on="0"/>
        <pt x="495" y="-8" on="0"/>
        <pt x="360" y="-8" on="1"/>
      </contour>
      <contour>
        <pt x="470" y="52" on="0"/>
        <pt x="549" y="81" on="0"/>
        <pt x="574" y="192" on="0"/>
        <pt x="574" y="344" on="1"/>
        <pt x="574" y="496" on="0"/>
        <pt x="549" y="607" on="0"/>
        <pt x="470" y="636" on="0"/>
        <pt x="360" y="636" on="1"/>
        <pt x="250" y="636" on="0"/>
        <pt x="171" y="607" on="0"/>
        <pt x="146" y="496" on="0"/>
        <pt x="146" y="344" on="1"/>
        <pt x="146" y="192" on="0"/>
        <pt x="171" y="81" on="0"/>
        <pt x="250" y="52" on="0"/>
        <pt x="360" y="52" on="1"/>
      </contour>
    </TTGlyph>
    <TTGlyph name="OE" xMin="82" yMin="0" xMax="1000" yMax="688">
      <contour>
        <pt x="225" y="0" on="0"/>
        <pt x="113" y="49" on="0"/>
        <pt x="82" y="182" on="0"/>
        <pt x="82" y="344" on="1"/>
        <pt x="82" y="506" on="0"/>
        <pt x="113" y="639" on="0"/>
        <pt x="225" y="688" on="0"/>
        <pt x="360" y="688" on="1"/>
        <pt x="1000" y="688" on="1"/>
        <pt x="1000" y="628" on="1"/>
        <pt x="651" y="628" on="1"/>
        <pt x="606" y="628" on="0"/>
        <pt x="578" y="633" on="1"/>
        <pt x="614" y="603" on="0"/>
        <pt x="637" y="490" on="0"/>
        <pt x="638" y="378" on="1"/>
        <pt x="953" y="378" on="1"/>
        <pt x="953" y="318" on="1"/>
        <pt x="638" y="318" on="1"/>
        <pt x="637" y="199" on="0"/>
        <pt x="615" y="85" on="0"/>
        <pt x="578" y="55" on="1"/>
        <pt x="606" y="60" on="0"/>
        <pt x="651" y="60" on="1"/>
        <pt x="1000" y="60" on="1"/>
        <pt x="1000" y="0" on="1"/>
        <pt x="360" y="0" on="1"/>
      </contour>
      <contour>
        <pt x="470" y="60" on="0"/>
        <pt x="549" y="88" on="0"/>
        <pt x="574" y="197" on="0"/>
        <pt x="574" y="344" on="1"/>
        <pt x="574" y="491" on="0"/>
        <pt x="549" y="600" on="0"/>
        <pt x="470" y="628" on="0"/>
        <pt x="360" y="628" on="1"/>
        <pt x="250" y="628" on="0"/>
        <pt x="171" y="600" on="0"/>
        <pt x="146" y="491" on="0"/>
        <pt x="146" y="344" on="1"/>
        <pt x="146" y="197" on="0"/>
        <pt x="171" y="88" on="0"/>
        <pt x="250" y="60" on="0"/>
        <pt x="360" y="60" on="1"/>
      </contour>
    </TTGlyph>
    <TTGlyph name="Oacute" xMin="82" yMin="-8" xMax="638" yMax="890">
      <component glyphName="O" x="0" y="0" flags="0x0"/>
      <component glyphName="acute" x="306" y="147" flags="0x4"/>
    </TTGlyph>
    <TTGlyph name="Oacute.loclPLK" xMin="82" yMin="-8" xMax="638" yMax="888">
      <component glyphName="O" x="0" y="0" flags="0x0"/>
      <component glyphName="acute.case.loclPLK" x="311" y="0" flags="0x0"/>
    </TTGlyph>
    <TTGlyph name="Obreve" xMin="82" yMin="-8" xMax="638" yMax="888">
      <component glyphName="O" x="0" y="0" flags="0x0"/>
      <component glyphName="uni0306.case" x="513" y="0" flags="0x0"/>
    </TTGlyph>
    <TTGlyph name="Ocircumflex" xMin="82" yMin="-8" xMax="638" yMax="890">
      <component glyphName="O" x="0" y="0" flags="0x0"/>
      <component glyphName="circumflex" x="202" y="147" flags="0x4"/>
    </TTGlyph>
    <TTGlyph name="Odieresis" xMin="82" yMin="-8" xMax="638" yMax="847">
      <component glyphName="O" x="0" y="0" flags="0x0"/>
      <component glyphName="dieresis" x="217" y="116" flags="0x4"/>
    </TTGlyph>
    <TTGlyph name="Ograve" xMin="82" yMin="-8" xMax="638" yMax="890">
      <component glyphName="O" x="0" y="0" flags="0x0"/>
      <component glyphName="grave" x="195" y="147" flags="0x4"/>
    </TTGlyph>
    <TTGlyph name="Ohorn" xMin="82" yMin="-8" xMax="650" yMax="784">
      <contour>
        <pt x="650" y="702" on="0"/>
        <pt x="621" y="658" on="0"/>
        <pt x="578" y="654" on="1"/>
        <pt x="605" y="632" on="0"/>
        <pt x="630" y="555" on="0"/>
        <pt x="638" y="443" on="0"/>
        <pt x="638" y="344" on="1"/>
        <pt x="638" y="178" on="0"/>
        <pt x="607" y="43" on="0"/>
        <pt x="495" y="-8" on="0"/>
        <pt x="360" y="-8" on="1"/>
        <pt x="225" y="-8" on="0"/>
        <pt x="113" y="43" on="0"/>
        <pt x="82" y="178" on="0"/>
        <pt x="82" y="344" on="1"/>
        <pt x="82" y="510" on="0"/>
        <pt x="113" y="645" on="0"/>
        <pt x="225" y="696" on="0"/>
        <pt x="360" y="696" on="1"/>
        <pt x="445" y="696" on="0"/>
        <pt x="492" y="688" on="1"/>
        <pt x="549" y="688" on="1"/>
        <pt x="573" y="688" on="0"/>
        <pt x="595" y="699" on="0"/>
        <pt x="602" y="724" on="0"/>
        <pt x="602" y="751" on="1"/>
        <pt x="602" y="784" on="1"/>
        <pt x="650" y="784" on="1"/>
        <pt x="650" y="758" on="1"/>
      </contour>
      <contour>
        <pt x="470" y="52" on="0"/>
        <pt x="549" y="81" on="0"/>
        <pt x="574" y="192" on="0"/>
        <pt x="574" y="344" on="1"/>
        <pt x="574" y="496" on="0"/>
        <pt x="549" y="607" on="0"/>
        <pt x="470" y="636" on="0"/>
        <pt x="360" y="636" on="1"/>
        <pt x="250" y="636" on="0"/>
        <pt x="171" y="607" on="0"/>
        <pt x="146" y="496" on="0"/>
        <pt x="146" y="344" on="1"/>
        <pt x="146" y="192" on="0"/>
        <pt x="171" y="81" on="0"/>
        <pt x="250" y="52" on="0"/>
        <pt x="360" y="52" on="1"/>
      </contour>
    </TTGlyph>
    <TTGlyph name="Ohungarumlaut" xMin="82" yMin="-8" xMax="638" yMax="885">
      <component glyphName="O" x="0" y="0" flags="0x0"/>
      <component glyphName="uni030B.case" x="618" y="0" flags="0x0"/>
    </TTGlyph>
    <TTGlyph name="Omacron" xMin="82" yMin="-8" xMax="638" yMax="887">
      <component glyphName="O" x="0" y="0" flags="0x0"/>
      <component glyphName="uni0304.case" x="539" y="0" flags="0x0"/>
    </TTGlyph>
    <TTGlyph name="Oslash" xMin="82" yMin="-55" xMax="638" yMax="743">
      <contour>
        <pt x="617" y="619" on="0"/>
        <pt x="638" y="487" on="0"/>
        <pt x="638" y="344" on="1"/>
        <pt x="638" y="178" on="0"/>
        <pt x="607" y="43" on="0"/>
        <pt x="495" y="-8" on="0"/>
        <pt x="360" y="-8" on="1"/>
        <pt x="235" y="-8" on="0"/>
        <pt x="182" y="12" on="1"/>
        <pt x="140" y="-55" on="1"/>
        <pt x="82" y="-55" on="1"/>
        <pt x="139" y="37" on="1"/>
        <pt x="103" y="69" on="0"/>
        <pt x="82" y="201" on="0"/>
        <pt x="82" y="344" on="1"/>
        <pt x="82" y="510" on="0"/>
        <pt x="113" y="645" on="0"/>
        <pt x="225" y="696" on="0"/>
        <pt x="360" y="696" on="1"/>
        <pt x="484" y="696" on="0"/>
        <pt x="537" y="676" on="1"/>
        <pt x="579" y="743" on="1"/>
        <pt x="638" y="743" on="1"/>
        <pt x="581" y="651" on="1"/>
      </contour>
      <contour>
        <pt x="146" y="232" on="0"/>
        <pt x="158" y="123" on="0"/>
        <pt x="176" y="95" on="1"/>
        <pt x="505" y="623" on="1"/>
        <pt x="483" y="631" on="0"/>
        <pt x="418" y="636" on="0"/>
        <pt x="360" y="636" on="1"/>
        <pt x="250" y="636" on="0"/>
        <pt x="171" y="607" on="0"/>
        <pt x="146" y="496" on="0"/>
        <pt x="146" y="344" on="1"/>
      </contour>
      <contour>
        <pt x="470" y="52" on="0"/>
        <pt x="549" y="81" on="0"/>
        <pt x="574" y="192" on="0"/>
        <pt x="574" y="344" on="1"/>
        <pt x="574" y="456" on="0"/>
        <pt x="562" y="565" on="0"/>
        <pt x="544" y="593" on="1"/>
        <pt x="215" y="65" on="1"/>
        <pt x="237" y="57" on="0"/>
        <pt x="302" y="52" on="0"/>
        <pt x="360" y="52" on="1"/>
      </contour>
    </TTGlyph>
    <TTGlyph name="Oslashacute" xMin="82" yMin="-55" xMax="638" yMax="888">
      <component glyphName="Oslash" x="0" y="0" flags="0x0"/>
      <component glyphName="acutecomb.case" x="524" y="0" flags="0x0"/>
    </TTGlyph>
    <TTGlyph name="Otilde" xMin="82" yMin="-8" xMax="638" yMax="868">
      <component glyphName="O" x="0" y="0" flags="0x0"/>
      <component glyphName="tilde" x="164" y="125" flags="0x4"/>
    </TTGlyph>
    <TTGlyph name="P" xMin="106" yMin="0" xMax="594" yMax="688">
      <contour>
        <pt x="106" y="688" on="1"/>
        <pt x="402" y="688" on="1"/>
        <pt x="486" y="688" on="0"/>
        <pt x="569" y="634" on="0"/>
        <pt x="594" y="545" on="0"/>
        <pt x="594" y="474" on="1"/>
        <pt x="594" y="406" on="0"/>
        <pt x="569" y="316" on="0"/>
        <pt x="485" y="261" on="0"/>
        <pt x="401" y="261" on="1"/>
        <pt x="170" y="261" on="1"/>
        <pt x="170" y="0" on="1"/>
        <pt x="106" y="0" on="1"/>
      </contour>
      <contour>
        <pt x="384" y="321" on="1"/>
        <pt x="450" y="321" on="0"/>
        <pt x="512" y="354" on="0"/>
        <pt x="530" y="416" on="0"/>
        <pt x="530" y="474" on="1"/>
        <pt x="530" y="534" on="0"/>
        <pt x="513" y="595" on="0"/>
        <pt x="452" y="628" on="0"/>
        <pt x="385" y="628" on="1"/>
        <pt x="170" y="628" on="1"/>
        <pt x="170" y="321" on="1"/>
      </contour>
    </TTGlyph>
    <TTGlyph name="Q" xMin="82" yMin="-115" xMax="653" yMax="696">
      <contour>
        <pt x="653" y="-113" on="1"/>
        <pt x="653" y="-115" on="1"/>
        <pt x="579" y="-115" on="1"/>
        <pt x="494" y="0" on="1"/>
        <pt x="446" y="-8" on="0"/>
        <pt x="360" y="-8" on="1"/>
        <pt x="225" y="-8" on="0"/>
        <pt x="113" y="43" on="0"/>
        <pt x="82" y="178" on="0"/>
        <pt x="82" y="344" on="1"/>
        <pt x="82" y="510" on="0"/>
        <pt x="113" y="645" on="0"/>
        <pt x="225" y="696" on="0"/>
        <pt x="360" y="696" on="1"/>
        <pt x="495" y="696" on="0"/>
        <pt x="607" y="645" on="0"/>
        <pt x="638" y="510" on="0"/>
        <pt x="638" y="344" on="1"/>
        <pt x="638" y="232" on="0"/>
        <pt x="628" y="113" on="0"/>
        <pt x="592" y="38" on="0"/>
        <pt x="554" y="19" on="1"/>
      </contour>
      <contour>
        <pt x="429" y="52" on="0"/>
        <pt x="454" y="54" on="1"/>
        <pt x="333" y="218" on="1"/>
        <pt x="404" y="218" on="1"/>
        <pt x="517" y="68" on="1"/>
        <pt x="542" y="81" on="0"/>
        <pt x="566" y="140" on="0"/>
        <pt x="574" y="245" on="0"/>
        <pt x="574" y="344" on="1"/>
        <pt x="574" y="496" on="0"/>
        <pt x="549" y="607" on="0"/>
        <pt x="470" y="636" on="0"/>
        <pt x="360" y="636" on="1"/>
        <pt x="250" y="636" on="0"/>
        <pt x="171" y="607" on="0"/>
        <pt x="146" y="496" on="0"/>
        <pt x="146" y="344" on="1"/>
        <pt x="146" y="192" on="0"/>
        <pt x="171" y="81" on="0"/>
        <pt x="250" y="52" on="0"/>
        <pt x="360" y="52" on="1"/>
      </contour>
    </TTGlyph>
    <TTGlyph name="R" xMin="106" yMin="0" xMax="611" yMax="688">
      <contour>
        <pt x="542" y="0" on="1"/>
        <pt x="431" y="281" on="1"/>
        <pt x="403" y="281" on="1"/>
        <pt x="170" y="281" on="1"/>
        <pt x="170" y="0" on="1"/>
        <pt x="106" y="0" on="1"/>
        <pt x="106" y="688" on="1"/>
        <pt x="418" y="688" on="1"/>
        <pt x="499" y="688" on="0"/>
        <pt x="579" y="635" on="0"/>
        <pt x="603" y="550" on="0"/>
        <pt x="603" y="484" on="1"/>
        <pt x="603" y="410" on="0"/>
        <pt x="561" y="310" on="0"/>
        <pt x="493" y="292" on="1"/>
        <pt x="611" y="0" on="1"/>
      </contour>
      <contour>
        <pt x="456" y="341" on="0"/>
        <pt x="520" y="373" on="0"/>
        <pt x="539" y="432" on="0"/>
        <pt x="539" y="484" on="1"/>
        <pt x="539" y="538" on="0"/>
        <pt x="523" y="596" on="0"/>
        <pt x="463" y="628" on="0"/>
        <pt x="400" y="628" on="1"/>
        <pt x="170" y="628" on="1"/>
        <pt x="170" y="341" on="1"/>
        <pt x="390" y="341" on="1"/>
      </contour>
    </TTGlyph>
    <TTGlyph name="R.ss01" xMin="106" yMin="0" xMax="607" yMax="688">
      <contour>
        <pt x="607" y="0" on="1"/>
        <pt x="544" y="0" on="1"/>
        <pt x="534" y="152" on="1"/>
        <pt x="531" y="199" on="0"/>
        <pt x="515" y="249" on="0"/>
        <pt x="457" y="284" on="0"/>
        <pt x="395" y="284" on="1"/>
        <pt x="170" y="284" on="1"/>
        <pt x="170" y="0" on="1"/>
        <pt x="106" y="0" on="1"/>
        <pt x="106" y="688" on="1"/>
        <pt x="417" y="688" on="1"/>
        <pt x="488" y="688" on="0"/>
        <pt x="569" y="647" on="0"/>
        <pt x="603" y="565" on="0"/>
        <pt x="603" y="501" on="1"/>
        <pt x="603" y="413" on="0"/>
        <pt x="546" y="334" on="0"/>
        <pt x="485" y="320" on="1"/>
        <pt x="485" y="316" on="1"/>
        <pt x="523" y="307" on="0"/>
        <pt x="568" y="279" on="0"/>
        <pt x="593" y="222" on="0"/>
        <pt x="596" y="171" on="1"/>
      </contour>
      <contour>
        <pt x="453" y="344" on="0"/>
        <pt x="516" y="377" on="0"/>
        <pt x="538" y="438" on="0"/>
        <pt x="538" y="486" on="1"/>
        <pt x="538" y="539" on="0"/>
        <pt x="522" y="596" on="0"/>
        <pt x="462" y="628" on="0"/>
        <pt x="398" y="628" on="1"/>
        <pt x="170" y="628" on="1"/>
        <pt x="170" y="344" on="1"/>
        <pt x="393" y="344" on="1"/>
      </contour>
    </TTGlyph>
    <TTGlyph name="Racute" xMin="106" yMin="0" xMax="611" yMax="888">
      <component glyphName="R" x="0" y="0" flags="0x0"/>
      <component glyphName="acutecomb.case" x="506" y="0" flags="0x0"/>
    </TTGlyph>
    <TTGlyph name="Racute.ss01" xMin="106" yMin="0" xMax="607" yMax="888">
      <component glyphName="R.ss01" x="0" y="0" flags="0x0"/>
      <component glyphName="acutecomb.case" x="508" y="0" flags="0x0"/>
    </TTGlyph>
    <TTGlyph name="Rcaron" xMin="106" yMin="0" xMax="611" yMax="888">
      <component glyphName="R" x="0" y="0" flags="0x0"/>
      <component glyphName="uni030C.case" x="500" y="0" flags="0x0"/>
    </TTGlyph>
    <TTGlyph name="Rcaron.ss01" xMin="106" yMin="0" xMax="607" yMax="888">
      <component glyphName="R.ss01" x="0" y="0" flags="0x0"/>
      <component glyphName="uni030C.case" x="502" y="0" flags="0x0"/>
    </TTGlyph>
    <TTGlyph name="Rcommaaccent" xMin="106" yMin="-250" xMax="611" yMax="688">
      <component glyphName="R" x="0" y="0" flags="0x0"/>
      <component glyphName="uni0326" x="454" y="0" flags="0x0"/>
    </TTGlyph>
    <TTGlyph name="Rcommaaccent.ss01" xMin="106" yMin="-250" xMax="607" yMax="688">
      <component glyphName="R.ss01" x="0" y="0" flags="0x0"/>
      <component glyphName="uni0326" x="456" y="0" flags="0x0"/>
    </TTGlyph>
    <TTGlyph name="S" xMin="73" yMin="-8" xMax="558" yMax="696">
      <contour>
        <pt x="273" y="-8" on="0"/>
        <pt x="141" y="-1" on="0"/>
        <pt x="93" y="5" on="1"/>
        <pt x="93" y="65" on="1"/>
        <pt x="145" y="60" on="0"/>
        <pt x="271" y="52" on="0"/>
        <pt x="312" y="52" on="1"/>
        <pt x="367" y="52" on="0"/>
        <pt x="432" y="61" on="0"/>
        <pt x="456" y="75" on="1"/>
        <pt x="479" y="88" on="0"/>
        <pt x="494" y="143" on="0"/>
        <pt x="494" y="188" on="1"/>
        <pt x="494" y="244" on="0"/>
        <pt x="483" y="288" on="0"/>
        <pt x="440" y="307" on="0"/>
        <pt x="386" y="313" on="1"/>
        <pt x="211" y="332" on="1"/>
        <pt x="149" y="338" on="0"/>
        <pt x="90" y="382" on="0"/>
        <pt x="73" y="449" on="0"/>
        <pt x="73" y="508" on="1"/>
        <pt x="73" y="587" on="0"/>
        <pt x="126" y="668" on="0"/>
        <pt x="228" y="696" on="0"/>
        <pt x="315" y="696" on="1"/>
        <pt x="373" y="696" on="0"/>
        <pt x="490" y="688" on="0"/>
        <pt x="524" y="681" on="1"/>
        <pt x="524" y="624" on="1"/>
        <pt x="484" y="629" on="0"/>
        <pt x="372" y="636" on="0"/>
        <pt x="325" y="636" on="1"/>
        <pt x="266" y="636" on="0"/>
        <pt x="194" y="624" on="0"/>
        <pt x="173" y="611" on="1"/>
        <pt x="151" y="597" on="0"/>
        <pt x="137" y="549" on="0"/>
        <pt x="137" y="508" on="1"/>
        <pt x="137" y="463" on="0"/>
        <pt x="150" y="420" on="0"/>
        <pt x="187" y="401" on="0"/>
        <pt x="228" y="396" on="1"/>
        <pt x="398" y="378" on="1"/>
        <pt x="466" y="371" on="0"/>
        <pt x="533" y="343" on="0"/>
        <pt x="547" y="303" on="1"/>
        <pt x="558" y="270" on="0"/>
        <pt x="558" y="193" on="1"/>
        <pt x="558" y="103" on="0"/>
        <pt x="504" y="16" on="0"/>
        <pt x="411" y="-8" on="0"/>
        <pt x="330" y="-8" on="1"/>
      </contour>
    </TTGlyph>
    <TTGlyph name="Sacute" xMin="73" yMin="-8" xMax="558" yMax="888">
      <component glyphName="S" x="0" y="0" flags="0x0"/>
      <component glyphName="acutecomb.case" x="480" y="0" flags="0x0"/>
    </TTGlyph>
    <TTGlyph name="Sacute.loclPLK" xMin="73" yMin="-8" xMax="558" yMax="888">
      <component glyphName="S" x="0" y="0" flags="0x0"/>
      <component glyphName="acute.case.loclPLK" x="267" y="0" flags="0x0"/>
    </TTGlyph>
    <TTGlyph name="Scaron" xMin="73" yMin="-8" xMax="558" yMax="890">
      <component glyphName="S" x="0" y="0" flags="0x0"/>
      <component glyphName="caron" x="167" y="147" flags="0x4"/>
    </TTGlyph>
    <TTGlyph name="Scedilla" xMin="73" yMin="-190" xMax="558" yMax="696">
      <contour>
        <pt x="558" y="104" on="0"/>
        <pt x="506" y="17" on="0"/>
        <pt x="415" y="-8" on="0"/>
        <pt x="337" y="-8" on="1"/>
        <pt x="297" y="-190" on="1"/>
        <pt x="234" y="-190" on="1"/>
        <pt x="234" y="-185" on="1"/>
        <pt x="291" y="-8" on="1"/>
        <pt x="164" y="-4" on="0"/>
        <pt x="93" y="5" on="1"/>
        <pt x="93" y="65" on="1"/>
        <pt x="145" y="60" on="0"/>
        <pt x="271" y="52" on="0"/>
        <pt x="312" y="52" on="1"/>
        <pt x="367" y="52" on="0"/>
        <pt x="432" y="61" on="0"/>
        <pt x="456" y="75" on="1"/>
        <pt x="479" y="88" on="0"/>
        <pt x="494" y="143" on="0"/>
        <pt x="494" y="188" on="1"/>
        <pt x="494" y="244" on="0"/>
        <pt x="483" y="288" on="0"/>
        <pt x="440" y="307" on="0"/>
        <pt x="386" y="313" on="1"/>
        <pt x="211" y="332" on="1"/>
        <pt x="149" y="338" on="0"/>
        <pt x="90" y="382" on="0"/>
        <pt x="73" y="449" on="0"/>
        <pt x="73" y="508" on="1"/>
        <pt x="73" y="587" on="0"/>
        <pt x="126" y="668" on="0"/>
        <pt x="228" y="696" on="0"/>
        <pt x="315" y="696" on="1"/>
        <pt x="373" y="696" on="0"/>
        <pt x="490" y="688" on="0"/>
        <pt x="524" y="681" on="1"/>
        <pt x="524" y="624" on="1"/>
        <pt x="484" y="629" on="0"/>
        <pt x="372" y="636" on="0"/>
        <pt x="325" y="636" on="1"/>
        <pt x="266" y="636" on="0"/>
        <pt x="194" y="624" on="0"/>
        <pt x="173" y="611" on="1"/>
        <pt x="151" y="597" on="0"/>
        <pt x="137" y="549" on="0"/>
        <pt x="137" y="508" on="1"/>
        <pt x="137" y="463" on="0"/>
        <pt x="150" y="420" on="0"/>
        <pt x="187" y="401" on="0"/>
        <pt x="228" y="396" on="1"/>
        <pt x="398" y="378" on="1"/>
        <pt x="466" y="371" on="0"/>
        <pt x="533" y="343" on="0"/>
        <pt x="547" y="303" on="1"/>
        <pt x="558" y="270" on="0"/>
        <pt x="558" y="193" on="1"/>
      </contour>
    </TTGlyph>
    <TTGlyph name="Scircumflex" xMin="73" yMin="-8" xMax="558" yMax="888">
      <component glyphName="S" x="0" y="0" flags="0x0"/>
      <component glyphName="uni0302.case" x="474" y="0" flags="0x0"/>
    </TTGlyph>
    <TTGlyph name="Scommaaccent" xMin="73" yMin="-250" xMax="558" yMax="696">
      <component glyphName="S" x="0" y="0" flags="0x0"/>
      <component glyphName="uni0326" x="428" y="0" flags="0x0"/>
    </TTGlyph>
    <TTGlyph name="T" xMin="34" yMin="0" xMax="547" yMax="688">
      <contour>
        <pt x="258" y="626" on="1"/>
        <pt x="34" y="626" on="1"/>
        <pt x="34" y="688" on="1"/>
        <pt x="547" y="688" on="1"/>
        <pt x="547" y="626" on="1"/>
        <pt x="323" y="626" on="1"/>
        <pt x="323" y="0" on="1"/>
        <pt x="258" y="0" on="1"/>
      </contour>
    </TTGlyph>
    <TTGlyph name="Tbar" xMin="34" yMin="0" xMax="547" yMax="688">
      <contour>
        <pt x="323" y="626" on="1"/>
        <pt x="323" y="376" on="1"/>
        <pt x="519" y="376" on="1"/>
        <pt x="519" y="321" on="1"/>
        <pt x="323" y="321" on="1"/>
        <pt x="323" y="0" on="1"/>
        <pt x="258" y="0" on="1"/>
        <pt x="258" y="321" on="1"/>
        <pt x="62" y="321" on="1"/>
        <pt x="62" y="376" on="1"/>
        <pt x="258" y="376" on="1"/>
        <pt x="258" y="626" on="1"/>
        <pt x="34" y="626" on="1"/>
        <pt x="34" y="688" on="1"/>
        <pt x="547" y="688" on="1"/>
        <pt x="547" y="626" on="1"/>
      </contour>
    </TTGlyph>
    <TTGlyph name="Tcaron" xMin="34" yMin="0" xMax="547" yMax="888">
      <component glyphName="T" x="0" y="0" flags="0x0"/>
      <component glyphName="uni030C.case" x="448" y="0" flags="0x0"/>
    </TTGlyph>
    <TTGlyph name="Thorn" xMin="106" yMin="0" xMax="594" yMax="688">
      <contour>
        <pt x="106" y="688" on="1"/>
        <pt x="170" y="688" on="1"/>
        <pt x="170" y="564" on="1"/>
        <pt x="402" y="564" on="1"/>
        <pt x="486" y="564" on="0"/>
        <pt x="569" y="510" on="0"/>
        <pt x="594" y="421" on="0"/>
        <pt x="594" y="350" on="1"/>
        <pt x="594" y="282" on="0"/>
        <pt x="569" y="192" on="0"/>
        <pt x="485" y="137" on="0"/>
        <pt x="401" y="137" on="1"/>
        <pt x="170" y="137" on="1"/>
        <pt x="170" y="0" on="1"/>
        <pt x="106" y="0" on="1"/>
      </contour>
      <contour>
        <pt x="384" y="197" on="1"/>
        <pt x="450" y="197" on="0"/>
        <pt x="512" y="230" on="0"/>
        <pt x="530" y="292" on="0"/>
        <pt x="530" y="350" on="1"/>
        <pt x="530" y="410" on="0"/>
        <pt x="513" y="471" on="0"/>
        <pt x="452" y="504" on="0"/>
        <pt x="385" y="504" on="1"/>
        <pt x="170" y="504" on="1"/>
        <pt x="170" y="197" on="1"/>
      </contour>
    </TTGlyph>
    <TTGlyph name="U" xMin="97" yMin="-8" xMax="614" yMax="688">
      <contour>
        <pt x="614" y="688" on="1"/>
        <pt x="614" y="298" on="1"/>
        <pt x="614" y="165" on="0"/>
        <pt x="581" y="42" on="0"/>
        <pt x="475" y="-8" on="0"/>
        <pt x="356" y="-8" on="1"/>
        <pt x="237" y="-8" on="0"/>
        <pt x="130" y="43" on="0"/>
        <pt x="97" y="165" on="0"/>
        <pt x="97" y="298" on="1"/>
        <pt x="97" y="688" on="1"/>
        <pt x="161" y="688" on="1"/>
        <pt x="161" y="266" on="1"/>
        <pt x="161" y="169" on="0"/>
        <pt x="184" y="86" on="0"/>
        <pt x="263" y="52" on="0"/>
        <pt x="356" y="52" on="1"/>
        <pt x="449" y="52" on="0"/>
        <pt x="528" y="86" on="0"/>
        <pt x="550" y="169" on="0"/>
        <pt x="550" y="266" on="1"/>
        <pt x="550" y="688" on="1"/>
      </contour>
    </TTGlyph>
    <TTGlyph name="Uacute" xMin="97" yMin="-8" xMax="614" yMax="890">
      <component glyphName="U" x="0" y="0" flags="0x0"/>
      <component glyphName="acute" x="302" y="147" flags="0x4"/>
    </TTGlyph>
    <TTGlyph name="Ubreve" xMin="97" yMin="-8" xMax="614" yMax="888">
      <component glyphName="U" x="0" y="0" flags="0x0"/>
      <component glyphName="uni0306.case" x="509" y="0" flags="0x0"/>
    </TTGlyph>
    <TTGlyph name="Ucircumflex" xMin="97" yMin="-8" xMax="614" yMax="890">
      <component glyphName="U" x="0" y="0" flags="0x0"/>
      <component glyphName="circumflex" x="199" y="147" flags="0x4"/>
    </TTGlyph>
    <TTGlyph name="Udieresis" xMin="97" yMin="-8" xMax="614" yMax="847">
      <component glyphName="U" x="0" y="0" flags="0x0"/>
      <component glyphName="dieresis" x="212" y="116" flags="0x4"/>
    </TTGlyph>
    <TTGlyph name="Ugrave" xMin="97" yMin="-8" xMax="614" yMax="890">
      <component glyphName="U" x="0" y="0" flags="0x0"/>
      <component glyphName="grave" x="213" y="147" flags="0x4"/>
    </TTGlyph>
    <TTGlyph name="Uhorn" xMin="97" yMin="-8" xMax="723" yMax="784">
      <contour>
        <pt x="723" y="784" on="1"/>
        <pt x="723" y="758" on="1"/>
        <pt x="723" y="715" on="0"/>
        <pt x="707" y="671" on="0"/>
        <pt x="665" y="653" on="0"/>
        <pt x="622" y="653" on="1"/>
        <pt x="614" y="653" on="1"/>
        <pt x="614" y="298" on="1"/>
        <pt x="614" y="165" on="0"/>
        <pt x="581" y="42" on="0"/>
        <pt x="475" y="-8" on="0"/>
        <pt x="356" y="-8" on="1"/>
        <pt x="237" y="-8" on="0"/>
        <pt x="130" y="43" on="0"/>
        <pt x="97" y="165" on="0"/>
        <pt x="97" y="298" on="1"/>
        <pt x="97" y="688" on="1"/>
        <pt x="161" y="688" on="1"/>
        <pt x="161" y="266" on="1"/>
        <pt x="161" y="169" on="0"/>
        <pt x="184" y="86" on="0"/>
        <pt x="263" y="52" on="0"/>
        <pt x="356" y="52" on="1"/>
        <pt x="449" y="52" on="0"/>
        <pt x="528" y="86" on="0"/>
        <pt x="550" y="169" on="0"/>
        <pt x="550" y="266" on="1"/>
        <pt x="550" y="688" on="1"/>
        <pt x="622" y="688" on="1"/>
        <pt x="646" y="688" on="0"/>
        <pt x="668" y="699" on="0"/>
        <pt x="675" y="724" on="0"/>
        <pt x="675" y="751" on="1"/>
        <pt x="675" y="784" on="1"/>
      </contour>
    </TTGlyph>
    <TTGlyph name="Uhungarumlaut" xMin="97" yMin="-8" xMax="614" yMax="885">
      <component glyphName="U" x="0" y="0" flags="0x0"/>
      <component glyphName="uni030B.case" x="614" y="0" flags="0x0"/>
    </TTGlyph>
    <TTGlyph name="Umacron" xMin="97" yMin="-8" xMax="614" yMax="887">
      <component glyphName="U" x="0" y="0" flags="0x0"/>
      <component glyphName="uni0304.case" x="535" y="0" flags="0x0"/>
    </TTGlyph>
    <TTGlyph name="Uogonek" xMin="97" yMin="-196" xMax="614" yMax="688">
      <contour>
        <pt x="614" y="688" on="1"/>
        <pt x="614" y="298" on="1"/>
        <pt x="614" y="212" on="0"/>
        <pt x="603" y="109" on="0"/>
        <pt x="570" y="40" on="0"/>
        <pt x="536" y="22" on="1"/>
        <pt x="502" y="3" on="0"/>
        <pt x="447" y="-68" on="0"/>
        <pt x="447" y="-107" on="1"/>
        <pt x="447" y="-150" on="0"/>
        <pt x="494" y="-150" on="1"/>
        <pt x="503" y="-150" on="0"/>
        <pt x="511" y="-149" on="1"/>
        <pt x="511" y="-194" on="1"/>
        <pt x="497" y="-196" on="0"/>
        <pt x="479" y="-196" on="1"/>
        <pt x="433" y="-196" on="0"/>
        <pt x="392" y="-155" on="0"/>
        <pt x="392" y="-121" on="1"/>
        <pt x="392" y="-93" on="0"/>
        <pt x="425" y="-30" on="0"/>
        <pt x="453" y="-2" on="1"/>
        <pt x="413" y="-8" on="0"/>
        <pt x="356" y="-8" on="1"/>
        <pt x="237" y="-8" on="0"/>
        <pt x="130" y="43" on="0"/>
        <pt x="97" y="165" on="0"/>
        <pt x="97" y="298" on="1"/>
        <pt x="97" y="688" on="1"/>
        <pt x="161" y="688" on="1"/>
        <pt x="161" y="266" on="1"/>
        <pt x="161" y="169" on="0"/>
        <pt x="184" y="86" on="0"/>
        <pt x="263" y="52" on="0"/>
        <pt x="356" y="52" on="1"/>
        <pt x="449" y="52" on="0"/>
        <pt x="528" y="86" on="0"/>
        <pt x="550" y="169" on="0"/>
        <pt x="550" y="266" on="1"/>
        <pt x="550" y="688" on="1"/>
      </contour>
    </TTGlyph>
    <TTGlyph name="Uring" xMin="97" yMin="-8" xMax="614" yMax="923">
      <component glyphName="U" x="0" y="0" flags="0x0"/>
      <component glyphName="uni030A.case" x="503" y="0" flags="0x0"/>
    </TTGlyph>
    <TTGlyph name="Utilde" xMin="97" yMin="-8" xMax="614" yMax="888">
      <component glyphName="U" x="0" y="0" flags="0x0"/>
      <component glyphName="tildecomb.case" x="552" y="0" flags="0x0"/>
    </TTGlyph>
    <TTGlyph name="V" xMin="34" yMin="0" xMax="628" yMax="688">
      <contour>
        <pt x="34" y="688" on="1"/>
        <pt x="101" y="688" on="1"/>
        <pt x="329" y="84" on="1"/>
        <pt x="334" y="84" on="1"/>
        <pt x="563" y="688" on="1"/>
        <pt x="628" y="688" on="1"/>
        <pt x="369" y="0" on="1"/>
        <pt x="293" y="0" on="1"/>
      </contour>
    </TTGlyph>
    <TTGlyph name="W" xMin="41" yMin="0" xMax="944" yMax="688">
      <contour>
        <pt x="495" y="580" on="1"/>
        <pt x="491" y="580" on="1"/>
        <pt x="309" y="0" on="1"/>
        <pt x="236" y="0" on="1"/>
        <pt x="41" y="688" on="1"/>
        <pt x="108" y="688" on="1"/>
        <pt x="273" y="95" on="1"/>
        <pt x="279" y="95" on="1"/>
        <pt x="460" y="688" on="1"/>
        <pt x="528" y="688" on="1"/>
        <pt x="711" y="95" on="1"/>
        <pt x="716" y="95" on="1"/>
        <pt x="879" y="688" on="1"/>
        <pt x="944" y="688" on="1"/>
        <pt x="750" y="0" on="1"/>
        <pt x="677" y="0" on="1"/>
      </contour>
    </TTGlyph>
    <TTGlyph name="Wacute" xMin="41" yMin="0" xMax="944" yMax="888">
      <component glyphName="W" x="0" y="0" flags="0x0"/>
      <component glyphName="acutecomb.case" x="657" y="0" flags="0x0"/>
    </TTGlyph>
    <TTGlyph name="Wcircumflex" xMin="41" yMin="0" xMax="944" yMax="888">
      <component glyphName="W" x="0" y="0" flags="0x0"/>
      <component glyphName="uni0302.case" x="651" y="0" flags="0x0"/>
    </TTGlyph>
    <TTGlyph name="Wdieresis" xMin="41" yMin="0" xMax="944" yMax="876">
      <component glyphName="W" x="0" y="0" flags="0x0"/>
      <component glyphName="uni0308.case" x="636" y="0" flags="0x0"/>
    </TTGlyph>
    <TTGlyph name="Wgrave" xMin="41" yMin="0" xMax="944" yMax="888">
      <component glyphName="W" x="0" y="0" flags="0x0"/>
      <component glyphName="gravecomb.case" x="546" y="0" flags="0x0"/>
    </TTGlyph>
    <TTGlyph name="X" xMin="34" yMin="0" xMax="640" yMax="688">
      <contour>
        <pt x="340" y="289" on="1"/>
        <pt x="332" y="289" on="1"/>
        <pt x="108" y="0" on="1"/>
        <pt x="34" y="0" on="1"/>
        <pt x="298" y="346" on="1"/>
        <pt x="38" y="688" on="1"/>
        <pt x="115" y="688" on="1"/>
        <pt x="334" y="404" on="1"/>
        <pt x="342" y="404" on="1"/>
        <pt x="562" y="688" on="1"/>
        <pt x="637" y="688" on="1"/>
        <pt x="376" y="347" on="1"/>
        <pt x="640" y="0" on="1"/>
        <pt x="563" y="0" on="1"/>
      </contour>
    </TTGlyph>
    <TTGlyph name="Y" xMin="15" yMin="0" xMax="589" yMax="688">
      <contour>
        <pt x="269" y="269" on="1"/>
        <pt x="15" y="688" on="1"/>
        <pt x="86" y="688" on="1"/>
        <pt x="299" y="338" on="1"/>
        <pt x="306" y="338" on="1"/>
        <pt x="520" y="688" on="1"/>
        <pt x="589" y="688" on="1"/>
        <pt x="334" y="269" on="1"/>
        <pt x="334" y="0" on="1"/>
        <pt x="269" y="0" on="1"/>
      </contour>
    </TTGlyph>
    <TTGlyph name="Y.loclGUA" xMin="43" yMin="0" xMax="560" yMax="688">
      <contour>
        <pt x="560" y="688" on="1"/>
        <pt x="560" y="505" on="1"/>
        <pt x="560" y="377" on="0"/>
        <pt x="531" y="256" on="0"/>
        <pt x="437" y="201" on="0"/>
        <pt x="334" y="198" on="1"/>
        <pt x="334" y="0" on="1"/>
        <pt x="269" y="0" on="1"/>
        <pt x="269" y="198" on="1"/>
        <pt x="167" y="201" on="0"/>
        <pt x="72" y="256" on="0"/>
        <pt x="43" y="378" on="0"/>
        <pt x="43" y="505" on="1"/>
        <pt x="43" y="688" on="1"/>
        <pt x="108" y="688" on="1"/>
        <pt x="108" y="473" on="1"/>
        <pt x="108" y="376" on="0"/>
        <pt x="130" y="292" on="0"/>
        <pt x="209" y="259" on="0"/>
        <pt x="302" y="259" on="1"/>
        <pt x="395" y="259" on="0"/>
        <pt x="474" y="292" on="0"/>
        <pt x="496" y="376" on="0"/>
        <pt x="496" y="473" on="1"/>
        <pt x="496" y="688" on="1"/>
      </contour>
    </TTGlyph>
    <TTGlyph name="Yacute" xMin="15" yMin="0" xMax="589" yMax="890">
      <component glyphName="Y" x="0" y="0" flags="0x0"/>
      <component glyphName="acute" x="258" y="147" flags="0x4"/>
    </TTGlyph>
    <TTGlyph name="Yacute.loclGUA" xMin="43" yMin="0" xMax="560" yMax="888">
      <component glyphName="Y.loclGUA" x="0" y="0" flags="0x0"/>
      <component glyphName="acutecomb.case" x="465" y="0" flags="0x0"/>
    </TTGlyph>
    <TTGlyph name="Ycircumflex" xMin="15" yMin="0" xMax="589" yMax="888">
      <component glyphName="Y" x="0" y="0" flags="0x0"/>
      <component glyphName="uni0302.case" x="461" y="0" flags="0x0"/>
    </TTGlyph>
    <TTGlyph name="Ycircumflex.loclGUA" xMin="43" yMin="0" xMax="560" yMax="888">
      <component glyphName="Y.loclGUA" x="0" y="0" flags="0x0"/>
      <component glyphName="uni0302.case" x="459" y="0" flags="0x0"/>
    </TTGlyph>
    <TTGlyph name="Ydieresis" xMin="15" yMin="0" xMax="589" yMax="847">
      <component glyphName="Y" x="0" y="0" flags="0x0"/>
      <component glyphName="dieresis" x="162" y="116" flags="0x4"/>
    </TTGlyph>
    <TTGlyph name="Ydieresis.loclGUA" xMin="43" yMin="0" xMax="560" yMax="876">
      <component glyphName="Y.loclGUA" x="0" y="0" flags="0x0"/>
      <component glyphName="uni0308.case" x="444" y="0" flags="0x0"/>
    </TTGlyph>
    <TTGlyph name="Ygrave" xMin="15" yMin="0" xMax="589" yMax="888">
      <component glyphName="Y" x="0" y="0" flags="0x0"/>
      <component glyphName="gravecomb.case" x="356" y="0" flags="0x0"/>
    </TTGlyph>
    <TTGlyph name="Ygrave.loclGUA" xMin="43" yMin="0" xMax="560" yMax="888">
      <component glyphName="Y.loclGUA" x="0" y="0" flags="0x0"/>
      <component glyphName="gravecomb.case" x="354" y="0" flags="0x0"/>
    </TTGlyph>
    <TTGlyph name="Z" xMin="56" yMin="0" xMax="551" yMax="688">
      <contour>
        <pt x="56" y="57" on="1"/>
        <pt x="463" y="628" on="1"/>
        <pt x="67" y="628" on="1"/>
        <pt x="67" y="688" on="1"/>
        <pt x="544" y="688" on="1"/>
        <pt x="544" y="632" on="1"/>
        <pt x="137" y="60" on="1"/>
        <pt x="551" y="60" on="1"/>
        <pt x="551" y="0" on="1"/>
        <pt x="56" y="0" on="1"/>
      </contour>
    </TTGlyph>
    <TTGlyph name="Zacute" xMin="56" yMin="0" xMax="551" yMax="888">
      <component glyphName="Z" x="0" y="0" flags="0x0"/>
      <component glyphName="acutecomb.case" x="466" y="0" flags="0x0"/>
    </TTGlyph>
    <TTGlyph name="Zacute.loclPLK" xMin="56" yMin="0" xMax="551" yMax="888">
      <component glyphName="Z" x="0" y="0" flags="0x0"/>
      <component glyphName="acute.case.loclPLK" x="253" y="0" flags="0x0"/>
    </TTGlyph>
    <TTGlyph name="Zcaron" xMin="56" yMin="0" xMax="551" yMax="889">
      <component glyphName="Z" x="0" y="0" flags="0x0"/>
      <component glyphName="caron" x="150" y="146" flags="0x4"/>
    </TTGlyph>
    <TTGlyph name="Zdotaccent" xMin="56" yMin="0" xMax="551" yMax="876">
      <component glyphName="Z" x="0" y="0" flags="0x0"/>
      <component glyphName="uni0307.case" x="353" y="0" flags="0x0"/>
    </TTGlyph>
    <TTGlyph name="a" xMin="59" yMin="-8" xMax="478" yMax="518">
      <contour>
        <pt x="172" y="-8" on="0"/>
        <pt x="97" y="17" on="0"/>
        <pt x="59" y="81" on="0"/>
        <pt x="59" y="139" on="1"/>
        <pt x="59" y="198" on="0"/>
        <pt x="86" y="262" on="0"/>
        <pt x="152" y="290" on="0"/>
        <pt x="213" y="290" on="1"/>
        <pt x="242" y="290" on="0"/>
        <pt x="417" y="285" on="1"/>
        <pt x="417" y="322" on="1"/>
        <pt x="417" y="389" on="0"/>
        <pt x="393" y="445" on="0"/>
        <pt x="329" y="462" on="0"/>
        <pt x="252" y="462" on="1"/>
        <pt x="219" y="462" on="0"/>
        <pt x="121" y="455" on="0"/>
        <pt x="94" y="450" on="1"/>
        <pt x="94" y="505" on="1"/>
        <pt x="169" y="518" on="0"/>
        <pt x="275" y="518" on="1"/>
        <pt x="363" y="518" on="0"/>
        <pt x="448" y="484" on="0"/>
        <pt x="478" y="404" on="0"/>
        <pt x="478" y="324" on="1"/>
        <pt x="478" y="0" on="1"/>
        <pt x="425" y="0" on="1"/>
        <pt x="422" y="76" on="1"/>
        <pt x="417" y="76" on="1"/>
        <pt x="397" y="25" on="0"/>
        <pt x="300" y="-8" on="0"/>
        <pt x="234" y="-8" on="1"/>
      </contour>
      <contour>
        <pt x="308" y="47" on="0"/>
        <pt x="379" y="67" on="0"/>
        <pt x="395" y="98" on="1"/>
        <pt x="407" y="122" on="0"/>
        <pt x="417" y="174" on="0"/>
        <pt x="417" y="209" on="1"/>
        <pt x="417" y="240" on="1"/>
        <pt x="229" y="240" on="1"/>
        <pt x="182" y="240" on="0"/>
        <pt x="138" y="227" on="0"/>
        <pt x="120" y="187" on="0"/>
        <pt x="120" y="144" on="1"/>
        <pt x="120" y="103" on="0"/>
        <pt x="141" y="62" on="0"/>
        <pt x="195" y="47" on="0"/>
        <pt x="251" y="47" on="1"/>
      </contour>
    </TTGlyph>
    <TTGlyph name="aacute" xMin="59" yMin="-8" xMax="478" yMax="743">
      <component glyphName="a" x="0" y="0" flags="0x0"/>
      <component glyphName="acute" x="226" y="0" flags="0x0"/>
    </TTGlyph>
    <TTGlyph name="abreve" xMin="59" yMin="-8" xMax="478" yMax="743">
      <component glyphName="a" x="0" y="0" flags="0x0"/>
      <component glyphName="uni0306" x="439" y="0" flags="0x0"/>
    </TTGlyph>
    <TTGlyph name="acircumflex" xMin="59" yMin="-8" xMax="478" yMax="743">
      <component glyphName="a" x="0" y="0" flags="0x0"/>
      <component glyphName="circumflex" x="130" y="0" flags="0x0"/>
    </TTGlyph>
    <TTGlyph name="acute" xMin="20" yMin="603" xMax="193" yMax="743">
      <contour>
        <pt x="20" y="608" on="1"/>
        <pt x="123" y="743" on="1"/>
        <pt x="193" y="743" on="1"/>
        <pt x="193" y="738" on="1"/>
        <pt x="66" y="603" on="1"/>
        <pt x="20" y="603" on="1"/>
      </contour>
    </TTGlyph>
    <TTGlyph name="acute.case.loclPLK" xMin="20" yMin="748" xMax="143" yMax="888">
      <contour>
        <pt x="20" y="753" on="1"/>
        <pt x="74" y="888" on="1"/>
        <pt x="143" y="888" on="1"/>
        <pt x="143" y="883" on="1"/>
        <pt x="66" y="748" on="1"/>
        <pt x="20" y="748" on="1"/>
      </contour>
    </TTGlyph>
    <TTGlyph name="acute.loclPLK" xMin="20" yMin="603" xMax="143" yMax="743">
      <contour>
        <pt x="20" y="608" on="1"/>
        <pt x="74" y="743" on="1"/>
        <pt x="143" y="743" on="1"/>
        <pt x="143" y="738" on="1"/>
        <pt x="66" y="603" on="1"/>
        <pt x="20" y="603" on="1"/>
      </contour>
    </TTGlyph>
    <TTGlyph name="acutecomb" xMin="-193" yMin="603" xMax="-20" yMax="743">
      <contour>
        <pt x="-193" y="608" on="1"/>
        <pt x="-90" y="743" on="1"/>
        <pt x="-20" y="743" on="1"/>
        <pt x="-20" y="738" on="1"/>
        <pt x="-147" y="603" on="1"/>
        <pt x="-193" y="603" on="1"/>
      </contour>
    </TTGlyph>
    <TTGlyph name="acutecomb.case" xMin="-193" yMin="748" xMax="-20" yMax="888">
      <contour>
        <pt x="-193" y="753" on="1"/>
        <pt x="-90" y="888" on="1"/>
        <pt x="-20" y="888" on="1"/>
        <pt x="-20" y="883" on="1"/>
        <pt x="-147" y="748" on="1"/>
        <pt x="-193" y="748" on="1"/>
      </contour>
    </TTGlyph>
    <TTGlyph name="adieresis" xMin="59" yMin="-8" xMax="478" yMax="731">
      <component glyphName="a" x="0" y="0" flags="0x0"/>
      <component glyphName="dieresis" x="144" y="0" flags="0x0"/>
    </TTGlyph>
    <TTGlyph name="ae" xMin="59" yMin="-8" xMax="839" yMax="518">
      <contour>
        <pt x="839" y="236" on="1"/>
        <pt x="479" y="236" on="1"/>
        <pt x="479" y="153" on="0"/>
        <pt x="500" y="78" on="0"/>
        <pt x="572" y="48" on="0"/>
        <pt x="653" y="48" on="1"/>
        <pt x="691" y="48" on="0"/>
        <pt x="784" y="55" on="0"/>
        <pt x="819" y="60" on="1"/>
        <pt x="819" y="6" on="1"/>
        <pt x="790" y="-1" on="0"/>
        <pt x="690" y="-8" on="0"/>
        <pt x="641" y="-8" on="1"/>
        <pt x="550" y="-8" on="0"/>
        <pt x="460" y="30" on="0"/>
        <pt x="441" y="79" on="1"/>
        <pt x="415" y="26" on="0"/>
        <pt x="313" y="-8" on="0"/>
        <pt x="240" y="-8" on="1"/>
        <pt x="176" y="-8" on="0"/>
        <pt x="98" y="17" on="0"/>
        <pt x="59" y="81" on="0"/>
        <pt x="59" y="139" on="1"/>
        <pt x="59" y="196" on="0"/>
        <pt x="86" y="260" on="0"/>
        <pt x="152" y="287" on="0"/>
        <pt x="213" y="287" on="1"/>
        <pt x="417" y="286" on="1"/>
        <pt x="417" y="322" on="1"/>
        <pt x="417" y="389" on="0"/>
        <pt x="393" y="445" on="0"/>
        <pt x="329" y="462" on="0"/>
        <pt x="252" y="462" on="1"/>
        <pt x="218" y="462" on="0"/>
        <pt x="119" y="454" on="0"/>
        <pt x="94" y="450" on="1"/>
        <pt x="94" y="505" on="1"/>
        <pt x="170" y="518" on="0"/>
        <pt x="275" y="518" on="1"/>
        <pt x="353" y="518" on="0"/>
        <pt x="434" y="491" on="0"/>
        <pt x="452" y="456" on="1"/>
        <pt x="474" y="489" on="0"/>
        <pt x="561" y="518" on="0"/>
        <pt x="640" y="518" on="1"/>
        <pt x="733" y="518" on="0"/>
        <pt x="817" y="470" on="0"/>
        <pt x="839" y="368" on="0"/>
        <pt x="839" y="258" on="1"/>
      </contour>
      <contour>
        <pt x="563" y="462" on="0"/>
        <pt x="499" y="437" on="0"/>
        <pt x="479" y="366" on="0"/>
        <pt x="479" y="285" on="1"/>
        <pt x="780" y="285" on="1"/>
        <pt x="780" y="296" on="1"/>
        <pt x="780" y="371" on="0"/>
        <pt x="755" y="440" on="0"/>
        <pt x="698" y="462" on="0"/>
        <pt x="637" y="462" on="1"/>
      </contour>
      <contour>
        <pt x="417" y="237" on="1"/>
        <pt x="229" y="237" on="1"/>
        <pt x="182" y="237" on="0"/>
        <pt x="138" y="224" on="0"/>
        <pt x="120" y="186" on="0"/>
        <pt x="120" y="144" on="1"/>
        <pt x="120" y="103" on="0"/>
        <pt x="141" y="62" on="0"/>
        <pt x="195" y="47" on="0"/>
        <pt x="251" y="47" on="1"/>
        <pt x="309" y="47" on="0"/>
        <pt x="382" y="69" on="0"/>
        <pt x="398" y="103" on="1"/>
        <pt x="408" y="126" on="0"/>
        <pt x="417" y="175" on="0"/>
        <pt x="417" y="209" on="1"/>
      </contour>
    </TTGlyph>
    <TTGlyph name="aeacute" xMin="59" yMin="-8" xMax="839" yMax="743">
      <component glyphName="ae" x="0" y="0" flags="0x0"/>
      <component glyphName="acutecomb" x="620" y="0" flags="0x0"/>
    </TTGlyph>
    <TTGlyph name="agrave" xMin="59" yMin="-8" xMax="478" yMax="743">
      <component glyphName="a" x="0" y="0" flags="0x0"/>
      <component glyphName="grave" x="140" y="0" flags="0x0"/>
    </TTGlyph>
    <TTGlyph name="amacron" xMin="59" yMin="-8" xMax="478" yMax="742">
      <component glyphName="a" x="0" y="0" flags="0x0"/>
      <component glyphName="uni0304" x="465" y="0" flags="0x0"/>
    </TTGlyph>
    <TTGlyph name="ampersand" xMin="72" yMin="-8" xMax="693" yMax="696">
      <contour>
        <pt x="693" y="377" on="1"/>
        <pt x="693" y="320" on="1"/>
        <pt x="575" y="320" on="1"/>
        <pt x="575" y="10" on="1"/>
        <pt x="550" y="5" on="0"/>
        <pt x="424" y="-8" on="0"/>
        <pt x="363" y="-8" on="1"/>
        <pt x="240" y="-8" on="0"/>
        <pt x="114" y="37" on="0"/>
        <pt x="72" y="118" on="0"/>
        <pt x="72" y="184" on="1"/>
        <pt x="72" y="239" on="0"/>
        <pt x="100" y="304" on="0"/>
        <pt x="153" y="339" on="0"/>
        <pt x="197" y="349" on="1"/>
        <pt x="197" y="353" on="1"/>
        <pt x="135" y="368" on="0"/>
        <pt x="78" y="442" on="0"/>
        <pt x="78" y="515" on="1"/>
        <pt x="78" y="574" on="0"/>
        <pt x="123" y="652" on="0"/>
        <pt x="247" y="696" on="0"/>
        <pt x="362" y="696" on="1"/>
        <pt x="408" y="696" on="0"/>
        <pt x="527" y="686" on="0"/>
        <pt x="571" y="678" on="1"/>
        <pt x="571" y="624" on="1"/>
        <pt x="527" y="631" on="0"/>
        <pt x="421" y="639" on="0"/>
        <pt x="385" y="639" on="1"/>
        <pt x="278" y="639" on="0"/>
        <pt x="174" y="613" on="0"/>
        <pt x="140" y="558" on="0"/>
        <pt x="140" y="506" on="1"/>
        <pt x="140" y="469" on="0"/>
        <pt x="159" y="415" on="0"/>
        <pt x="227" y="377" on="0"/>
        <pt x="294" y="377" on="1"/>
        <pt x="398" y="377" on="1"/>
        <pt x="398" y="320" on="1"/>
        <pt x="294" y="320" on="1"/>
        <pt x="224" y="320" on="0"/>
        <pt x="155" y="289" on="0"/>
        <pt x="134" y="232" on="0"/>
        <pt x="134" y="183" on="1"/>
        <pt x="134" y="126" on="0"/>
        <pt x="182" y="68" on="0"/>
        <pt x="277" y="48" on="0"/>
        <pt x="363" y="48" on="1"/>
        <pt x="449" y="48" on="0"/>
        <pt x="514" y="56" on="1"/>
        <pt x="514" y="377" on="1"/>
      </contour>
    </TTGlyph>
    <TTGlyph name="aogonek" xMin="59" yMin="-196" xMax="482" yMax="518">
      <contour>
        <pt x="474" y="-150" on="0"/>
        <pt x="482" y="-149" on="1"/>
        <pt x="482" y="-194" on="1"/>
        <pt x="468" y="-196" on="0"/>
        <pt x="450" y="-196" on="1"/>
        <pt x="404" y="-196" on="0"/>
        <pt x="363" y="-155" on="0"/>
        <pt x="363" y="-123" on="1"/>
        <pt x="363" y="-92" on="0"/>
        <pt x="397" y="-26" on="0"/>
        <pt x="425" y="1" on="1"/>
        <pt x="422" y="76" on="1"/>
        <pt x="417" y="76" on="1"/>
        <pt x="397" y="25" on="0"/>
        <pt x="300" y="-8" on="0"/>
        <pt x="234" y="-8" on="1"/>
        <pt x="172" y="-8" on="0"/>
        <pt x="97" y="17" on="0"/>
        <pt x="59" y="81" on="0"/>
        <pt x="59" y="139" on="1"/>
        <pt x="59" y="198" on="0"/>
        <pt x="86" y="262" on="0"/>
        <pt x="152" y="290" on="0"/>
        <pt x="213" y="290" on="1"/>
        <pt x="242" y="290" on="0"/>
        <pt x="417" y="285" on="1"/>
        <pt x="417" y="322" on="1"/>
        <pt x="417" y="389" on="0"/>
        <pt x="393" y="445" on="0"/>
        <pt x="329" y="462" on="0"/>
        <pt x="252" y="462" on="1"/>
        <pt x="219" y="462" on="0"/>
        <pt x="121" y="455" on="0"/>
        <pt x="94" y="450" on="1"/>
        <pt x="94" y="505" on="1"/>
        <pt x="169" y="518" on="0"/>
        <pt x="275" y="518" on="1"/>
        <pt x="363" y="518" on="0"/>
        <pt x="448" y="484" on="0"/>
        <pt x="478" y="404" on="0"/>
        <pt x="478" y="324" on="1"/>
        <pt x="478" y="0" on="1"/>
        <pt x="457" y="-17" on="0"/>
        <pt x="418" y="-81" on="0"/>
        <pt x="418" y="-109" on="1"/>
        <pt x="418" y="-150" on="0"/>
        <pt x="464" y="-150" on="1"/>
      </contour>
      <contour>
        <pt x="417" y="240" on="1"/>
        <pt x="229" y="240" on="1"/>
        <pt x="182" y="240" on="0"/>
        <pt x="138" y="227" on="0"/>
        <pt x="120" y="187" on="0"/>
        <pt x="120" y="144" on="1"/>
        <pt x="120" y="103" on="0"/>
        <pt x="141" y="62" on="0"/>
        <pt x="195" y="47" on="0"/>
        <pt x="251" y="47" on="1"/>
        <pt x="308" y="47" on="0"/>
        <pt x="379" y="67" on="0"/>
        <pt x="395" y="98" on="1"/>
        <pt x="407" y="122" on="0"/>
        <pt x="417" y="174" on="0"/>
        <pt x="417" y="209" on="1"/>
      </contour>
    </TTGlyph>
    <TTGlyph name="approxequal" xMin="71" yMin="101" xMax="425" yMax="409">
      <contour>
        <pt x="71" y="351" on="0"/>
        <pt x="97" y="398" on="0"/>
        <pt x="140" y="398" on="1"/>
        <pt x="166" y="398" on="0"/>
        <pt x="216" y="386" on="0"/>
        <pt x="260" y="373" on="1"/>
        <pt x="293" y="362" on="0"/>
        <pt x="334" y="352" on="0"/>
        <pt x="354" y="352" on="1"/>
        <pt x="375" y="352" on="0"/>
        <pt x="386" y="375" on="0"/>
        <pt x="386" y="409" on="1"/>
        <pt x="425" y="409" on="1"/>
        <pt x="425" y="349" on="0"/>
        <pt x="399" y="302" on="0"/>
        <pt x="356" y="302" on="1"/>
        <pt x="330" y="302" on="0"/>
        <pt x="282" y="313" on="0"/>
        <pt x="237" y="327" on="1"/>
        <pt x="202" y="338" on="0"/>
        <pt x="162" y="348" on="0"/>
        <pt x="143" y="348" on="1"/>
        <pt x="122" y="348" on="0"/>
        <pt x="110" y="324" on="0"/>
        <pt x="110" y="291" on="1"/>
        <pt x="71" y="291" on="1"/>
      </contour>
      <contour>
        <pt x="71" y="161" on="0"/>
        <pt x="97" y="209" on="0"/>
        <pt x="140" y="209" on="1"/>
        <pt x="167" y="209" on="0"/>
        <pt x="220" y="196" on="0"/>
        <pt x="260" y="183" on="1"/>
        <pt x="293" y="172" on="0"/>
        <pt x="334" y="162" on="0"/>
        <pt x="354" y="162" on="1"/>
        <pt x="375" y="162" on="0"/>
        <pt x="386" y="186" on="0"/>
        <pt x="386" y="220" on="1"/>
        <pt x="425" y="220" on="1"/>
        <pt x="425" y="159" on="0"/>
        <pt x="399" y="112" on="0"/>
        <pt x="356" y="112" on="1"/>
        <pt x="330" y="112" on="0"/>
        <pt x="279" y="124" on="0"/>
        <pt x="236" y="138" on="1"/>
        <pt x="174" y="158" on="0"/>
        <pt x="143" y="158" on="1"/>
        <pt x="122" y="158" on="0"/>
        <pt x="110" y="134" on="0"/>
        <pt x="110" y="101" on="1"/>
        <pt x="71" y="101" on="1"/>
      </contour>
    </TTGlyph>
    <TTGlyph name="aring" xMin="59" yMin="-8" xMax="478" yMax="802">
      <component glyphName="a" x="0" y="0" flags="0x0"/>
      <component glyphName="ring" x="137" y="-6" flags="0x4"/>
    </TTGlyph>
    <TTGlyph name="aringacute" xMin="59" yMin="-8" xMax="478" yMax="981">
      <component glyphName="a" x="0" y="0" flags="0x0"/>
      <component glyphName="uni030A" x="433" y="0" flags="0x0"/>
      <component glyphName="acutecomb" x="453" y="238" flags="0x4"/>
    </TTGlyph>
    <TTGlyph name="arrowboth" xMin="55" yMin="181" xMax="828" yMax="428">
      <contour>
        <pt x="55" y="304" on="1"/>
        <pt x="319" y="428" on="1"/>
        <pt x="279" y="331" on="1"/>
        <pt x="603" y="331" on="1"/>
        <pt x="564" y="428" on="1"/>
        <pt x="828" y="304" on="1"/>
        <pt x="564" y="181" on="1"/>
        <pt x="603" y="277" on="1"/>
        <pt x="279" y="277" on="1"/>
        <pt x="319" y="181" on="1"/>
      </contour>
    </TTGlyph>
    <TTGlyph name="arrowdown" xMin="76" yMin="-85" xMax="319" yMax="688">
      <contour>
        <pt x="76" y="181" on="1"/>
        <pt x="172" y="141" on="1"/>
        <pt x="172" y="688" on="1"/>
        <pt x="224" y="688" on="1"/>
        <pt x="224" y="141" on="1"/>
        <pt x="319" y="181" on="1"/>
        <pt x="198" y="-85" on="1"/>
      </contour>
    </TTGlyph>
    <TTGlyph name="arrowdown.ss01" xMin="30" yMin="171" xMax="315" yMax="456">
      <contour>
        <pt x="30" y="456" on="1"/>
        <pt x="315" y="456" on="1"/>
        <pt x="173" y="171" on="1"/>
      </contour>
    </TTGlyph>
    <TTGlyph name="arrowleft" xMin="55" yMin="181" xMax="828" yMax="428">
      <contour>
        <pt x="312" y="181" on="1"/>
        <pt x="55" y="304" on="1"/>
        <pt x="312" y="428" on="1"/>
        <pt x="272" y="331" on="1"/>
        <pt x="828" y="331" on="1"/>
        <pt x="828" y="277" on="1"/>
        <pt x="272" y="277" on="1"/>
      </contour>
    </TTGlyph>
    <TTGlyph name="arrowleft.ss01" xMin="30" yMin="201" xMax="315" yMax="486">
      <contour>
        <pt x="30" y="343" on="1"/>
        <pt x="315" y="486" on="1"/>
        <pt x="315" y="201" on="1"/>
      </contour>
    </TTGlyph>
    <TTGlyph name="arrowright" xMin="55" yMin="181" xMax="828" yMax="428">
      <contour>
        <pt x="603" y="277" on="1"/>
        <pt x="55" y="277" on="1"/>
        <pt x="55" y="331" on="1"/>
        <pt x="603" y="331" on="1"/>
        <pt x="564" y="428" on="1"/>
        <pt x="828" y="304" on="1"/>
        <pt x="564" y="181" on="1"/>
      </contour>
    </TTGlyph>
    <TTGlyph name="arrowright.ss01" xMin="48" yMin="201" xMax="333" yMax="486">
      <contour>
        <pt x="48" y="486" on="1"/>
        <pt x="333" y="343" on="1"/>
        <pt x="48" y="201" on="1"/>
      </contour>
    </TTGlyph>
    <TTGlyph name="arrowup" xMin="76" yMin="-81" xMax="319" yMax="691">
      <contour>
        <pt x="172" y="464" on="1"/>
        <pt x="76" y="425" on="1"/>
        <pt x="198" y="691" on="1"/>
        <pt x="319" y="425" on="1"/>
        <pt x="224" y="464" on="1"/>
        <pt x="224" y="-81" on="1"/>
        <pt x="172" y="-81" on="1"/>
      </contour>
    </TTGlyph>
    <TTGlyph name="arrowup.ss01" xMin="30" yMin="231" xMax="315" yMax="516">
      <contour>
        <pt x="173" y="516" on="1"/>
        <pt x="315" y="231" on="1"/>
        <pt x="30" y="231" on="1"/>
      </contour>
    </TTGlyph>
    <TTGlyph name="arrowupdn" xMin="76" yMin="-85" xMax="319" yMax="696">
      <contour>
        <pt x="76" y="181" on="1"/>
        <pt x="172" y="141" on="1"/>
        <pt x="172" y="469" on="1"/>
        <pt x="76" y="430" on="1"/>
        <pt x="198" y="696" on="1"/>
        <pt x="319" y="430" on="1"/>
        <pt x="224" y="469" on="1"/>
        <pt x="224" y="141" on="1"/>
        <pt x="319" y="181" on="1"/>
        <pt x="198" y="-85" on="1"/>
      </contour>
    </TTGlyph>
    <TTGlyph name="arrowupdnbse" xMin="55" yMin="-176" xMax="340" yMax="696">
      <contour>
        <pt x="76" y="181" on="1"/>
        <pt x="172" y="141" on="1"/>
        <pt x="172" y="469" on="1"/>
        <pt x="76" y="430" on="1"/>
        <pt x="198" y="696" on="1"/>
        <pt x="319" y="430" on="1"/>
        <pt x="224" y="469" on="1"/>
        <pt x="224" y="141" on="1"/>
        <pt x="319" y="181" on="1"/>
        <pt x="198" y="-85" on="1"/>
      </contour>
      <contour>
        <pt x="55" y="-125" on="1"/>
        <pt x="340" y="-125" on="1"/>
        <pt x="340" y="-176" on="1"/>
        <pt x="55" y="-176" on="1"/>
      </contour>
    </TTGlyph>
    <TTGlyph name="asciicircum" xMin="59" yMin="443" xMax="403" yMax="749">
      <contour>
        <pt x="231" y="705" on="1"/>
        <pt x="112" y="443" on="1"/>
        <pt x="59" y="443" on="1"/>
        <pt x="198" y="749" on="1"/>
        <pt x="264" y="749" on="1"/>
        <pt x="403" y="443" on="1"/>
        <pt x="350" y="443" on="1"/>
      </contour>
    </TTGlyph>
    <TTGlyph name="asciitilde" xMin="71" yMin="243" xMax="425" yMax="361">
      <contour>
        <pt x="425" y="301" on="0"/>
        <pt x="399" y="254" on="0"/>
        <pt x="356" y="254" on="1"/>
        <pt x="330" y="254" on="0"/>
        <pt x="279" y="266" on="0"/>
        <pt x="236" y="280" on="1"/>
        <pt x="230" y="282" on="0"/>
        <pt x="190" y="294" on="0"/>
        <pt x="156" y="300" on="0"/>
        <pt x="143" y="300" on="1"/>
        <pt x="122" y="300" on="0"/>
        <pt x="110" y="276" on="0"/>
        <pt x="110" y="243" on="1"/>
        <pt x="71" y="243" on="1"/>
        <pt x="71" y="303" on="0"/>
        <pt x="97" y="350" on="0"/>
        <pt x="140" y="350" on="1"/>
        <pt x="166" y="350" on="0"/>
        <pt x="216" y="338" on="0"/>
        <pt x="260" y="325" on="1"/>
        <pt x="293" y="314" on="0"/>
        <pt x="334" y="304" on="0"/>
        <pt x="354" y="304" on="1"/>
        <pt x="375" y="304" on="0"/>
        <pt x="386" y="327" on="0"/>
        <pt x="386" y="361" on="1"/>
        <pt x="425" y="361" on="1"/>
      </contour>
    </TTGlyph>
    <TTGlyph name="asterisk" xMin="49" yMin="320" xMax="391" yMax="688">
      <contour>
        <pt x="244" y="320" on="1"/>
        <pt x="196" y="320" on="1"/>
        <pt x="203" y="471" on="1"/>
        <pt x="73" y="389" on="1"/>
        <pt x="49" y="433" on="1"/>
        <pt x="185" y="503" on="1"/>
        <pt x="49" y="575" on="1"/>
        <pt x="73" y="618" on="1"/>
        <pt x="203" y="535" on="1"/>
        <pt x="196" y="688" on="1"/>
        <pt x="244" y="688" on="1"/>
        <pt x="237" y="536" on="1"/>
        <pt x="367" y="618" on="1"/>
        <pt x="391" y="575" on="1"/>
        <pt x="256" y="503" on="1"/>
        <pt x="391" y="433" on="1"/>
        <pt x="367" y="389" on="1"/>
        <pt x="238" y="471" on="1"/>
      </contour>
    </TTGlyph>
    <TTGlyph name="asterisk.ss02" xMin="35" yMin="-14" xMax="782" yMax="705">
      <contour>
        <pt x="269" y="262" on="1"/>
        <pt x="35" y="436" on="1"/>
        <pt x="322" y="436" on="1"/>
        <pt x="409" y="705" on="1"/>
        <pt x="494" y="436" on="1"/>
        <pt x="782" y="436" on="1"/>
        <pt x="550" y="262" on="1"/>
        <pt x="640" y="-14" on="1"/>
        <pt x="409" y="156" on="1"/>
        <pt x="178" y="-14" on="1"/>
      </contour>
    </TTGlyph>
    <TTGlyph name="at" xMin="86" yMin="-108" xMax="840" yMax="696">
      <contour>
        <pt x="272" y="-108" on="0"/>
        <pt x="123" y="-52" on="0"/>
        <pt x="86" y="97" on="0"/>
        <pt x="86" y="294" on="1"/>
        <pt x="86" y="491" on="0"/>
        <pt x="123" y="640" on="0"/>
        <pt x="272" y="696" on="0"/>
        <pt x="463" y="696" on="1"/>
        <pt x="654" y="696" on="0"/>
        <pt x="803" y="641" on="0"/>
        <pt x="840" y="492" on="0"/>
        <pt x="840" y="294" on="1"/>
        <pt x="840" y="190" on="0"/>
        <pt x="816" y="98" on="0"/>
        <pt x="767" y="75" on="0"/>
        <pt x="713" y="75" on="1"/>
        <pt x="593" y="75" on="1"/>
        <pt x="590" y="140" on="1"/>
        <pt x="585" y="140" on="1"/>
        <pt x="568" y="96" on="0"/>
        <pt x="489" y="68" on="0"/>
        <pt x="433" y="68" on="1"/>
        <pt x="352" y="68" on="0"/>
        <pt x="282" y="122" on="0"/>
        <pt x="282" y="195" on="1"/>
        <pt x="282" y="245" on="0"/>
        <pt x="305" y="300" on="0"/>
        <pt x="361" y="324" on="0"/>
        <pt x="413" y="324" on="1"/>
        <pt x="474" y="324" on="0"/>
        <pt x="586" y="320" on="1"/>
        <pt x="586" y="350" on="1"/>
        <pt x="586" y="406" on="0"/>
        <pt x="567" y="452" on="0"/>
        <pt x="513" y="466" on="0"/>
        <pt x="448" y="466" on="1"/>
        <pt x="417" y="466" on="0"/>
        <pt x="332" y="461" on="0"/>
        <pt x="312" y="457" on="1"/>
        <pt x="312" y="507" on="1"/>
        <pt x="380" y="518" on="0"/>
        <pt x="468" y="518" on="1"/>
        <pt x="544" y="518" on="0"/>
        <pt x="618" y="489" on="0"/>
        <pt x="643" y="421" on="0"/>
        <pt x="643" y="353" on="1"/>
        <pt x="643" y="113" on="1"/>
        <pt x="725" y="113" on="1"/>
        <pt x="756" y="113" on="0"/>
        <pt x="784" y="131" on="0"/>
        <pt x="799" y="207" on="0"/>
        <pt x="799" y="294" on="1"/>
        <pt x="799" y="442" on="0"/>
        <pt x="782" y="573" on="0"/>
        <pt x="718" y="637" on="0"/>
        <pt x="644" y="647" on="1"/>
        <pt x="581" y="657" on="0"/>
        <pt x="462" y="657" on="1"/>
        <pt x="359" y="657" on="0"/>
        <pt x="290" y="649" on="1"/>
        <pt x="212" y="640" on="0"/>
        <pt x="145" y="577" on="0"/>
        <pt x="127" y="445" on="0"/>
        <pt x="127" y="294" on="1"/>
        <pt x="127" y="137" on="0"/>
        <pt x="147" y="5" on="0"/>
        <pt x="225" y="-56" on="0"/>
        <pt x="317" y="-64" on="1"/>
        <pt x="365" y="-69" on="0"/>
        <pt x="463" y="-69" on="1"/>
        <pt x="593" y="-69" on="0"/>
        <pt x="643" y="-65" on="1"/>
        <pt x="643" y="-106" on="1"/>
        <pt x="606" y="-108" on="0"/>
        <pt x="463" y="-108" on="1"/>
      </contour>
      <contour>
        <pt x="502" y="117" on="0"/>
        <pt x="561" y="140" on="0"/>
        <pt x="586" y="196" on="0"/>
        <pt x="586" y="249" on="1"/>
        <pt x="586" y="279" on="1"/>
        <pt x="427" y="279" on="1"/>
        <pt x="388" y="279" on="0"/>
        <pt x="353" y="268" on="0"/>
        <pt x="339" y="234" on="0"/>
        <pt x="339" y="198" on="1"/>
        <pt x="339" y="163" on="0"/>
        <pt x="356" y="130" on="0"/>
        <pt x="400" y="117" on="0"/>
        <pt x="447" y="117" on="1"/>
      </contour>
    </TTGlyph>
    <TTGlyph name="atilde" xMin="59" yMin="-8" xMax="478" yMax="743">
      <component glyphName="a" x="0" y="0" flags="0x0"/>
      <component glyphName="tilde" x="89" y="0" flags="0x0"/>
    </TTGlyph>
    <TTGlyph name="b" xMin="92" yMin="-8" xMax="523" yMax="743">
      <contour>
        <pt x="263" y="-8" on="0"/>
        <pt x="174" y="26" on="0"/>
        <pt x="154" y="76" on="1"/>
        <pt x="149" y="76" on="1"/>
        <pt x="146" y="0" on="1"/>
        <pt x="92" y="0" on="1"/>
        <pt x="92" y="743" on="1"/>
        <pt x="153" y="743" on="1"/>
        <pt x="153" y="442" on="1"/>
        <pt x="158" y="442" on="1"/>
        <pt x="177" y="483" on="0"/>
        <pt x="261" y="518" on="0"/>
        <pt x="331" y="518" on="1"/>
        <pt x="411" y="518" on="0"/>
        <pt x="492" y="474" on="0"/>
        <pt x="523" y="364" on="0"/>
        <pt x="523" y="255" on="1"/>
        <pt x="523" y="146" on="0"/>
        <pt x="491" y="36" on="0"/>
        <pt x="410" y="-8" on="0"/>
        <pt x="329" y="-8" on="1"/>
      </contour>
      <contour>
        <pt x="379" y="50" on="0"/>
        <pt x="441" y="78" on="0"/>
        <pt x="462" y="160" on="0"/>
        <pt x="462" y="255" on="1"/>
        <pt x="462" y="350" on="0"/>
        <pt x="441" y="432" on="0"/>
        <pt x="379" y="460" on="0"/>
        <pt x="307" y="460" on="1"/>
        <pt x="251" y="460" on="0"/>
        <pt x="184" y="430" on="0"/>
        <pt x="170" y="398" on="1"/>
        <pt x="160" y="372" on="0"/>
        <pt x="153" y="307" on="0"/>
        <pt x="153" y="255" on="1"/>
        <pt x="153" y="202" on="0"/>
        <pt x="159" y="138" on="0"/>
        <pt x="170" y="113" on="1"/>
        <pt x="183" y="80" on="0"/>
        <pt x="250" y="50" on="0"/>
        <pt x="307" y="50" on="1"/>
      </contour>
    </TTGlyph>
    <TTGlyph name="backslash" xMin="-2" yMin="-55" xMax="347" yMax="743">
      <contour>
        <pt x="-2" y="743" on="1"/>
        <pt x="57" y="743" on="1"/>
        <pt x="347" y="-55" on="1"/>
        <pt x="289" y="-55" on="1"/>
      </contour>
    </TTGlyph>
    <TTGlyph name="bar" xMin="107" yMin="-161" xMax="164" yMax="743">
      <contour>
        <pt x="107" y="743" on="1"/>
        <pt x="164" y="743" on="1"/>
        <pt x="164" y="-161" on="1"/>
        <pt x="107" y="-161" on="1"/>
      </contour>
    </TTGlyph>
    <TTGlyph name="bar.ss02" xMin="-1" yMin="0" xMax="499" yMax="696">
      <contour>
        <pt x="-1" y="696" on="1"/>
        <pt x="499" y="696" on="1"/>
        <pt x="499" y="0" on="1"/>
        <pt x="-1" y="0" on="1"/>
      </contour>
    </TTGlyph>
    <TTGlyph name="braceleft" xMin="28" yMin="-150" xMax="294" yMax="743">
      <contour>
        <pt x="219" y="-139" on="0"/>
        <pt x="168" y="-85" on="0"/>
        <pt x="133" y="-9" on="0"/>
        <pt x="133" y="34" on="1"/>
        <pt x="133" y="150" on="1"/>
        <pt x="133" y="203" on="0"/>
        <pt x="85" y="277" on="0"/>
        <pt x="28" y="277" on="1"/>
        <pt x="28" y="316" on="1"/>
        <pt x="85" y="316" on="0"/>
        <pt x="133" y="390" on="0"/>
        <pt x="133" y="443" on="1"/>
        <pt x="133" y="558" on="1"/>
        <pt x="133" y="601" on="0"/>
        <pt x="168" y="678" on="0"/>
        <pt x="219" y="732" on="0"/>
        <pt x="242" y="743" on="1"/>
        <pt x="294" y="743" on="1"/>
        <pt x="257" y="721" on="0"/>
        <pt x="191" y="621" on="0"/>
        <pt x="191" y="568" on="1"/>
        <pt x="191" y="447" on="1"/>
        <pt x="191" y="322" on="0"/>
        <pt x="99" y="299" on="1"/>
        <pt x="99" y="294" on="1"/>
        <pt x="191" y="271" on="0"/>
        <pt x="191" y="146" on="1"/>
        <pt x="191" y="25" on="1"/>
        <pt x="191" y="-28" on="0"/>
        <pt x="257" y="-128" on="0"/>
        <pt x="294" y="-150" on="1"/>
        <pt x="242" y="-150" on="1"/>
      </contour>
    </TTGlyph>
    <TTGlyph name="braceright" xMin="20" yMin="-150" xMax="285" yMax="743">
      <contour>
        <pt x="57" y="-128" on="0"/>
        <pt x="122" y="-28" on="0"/>
        <pt x="122" y="25" on="1"/>
        <pt x="122" y="146" on="1"/>
        <pt x="122" y="271" on="0"/>
        <pt x="214" y="294" on="1"/>
        <pt x="214" y="299" on="1"/>
        <pt x="122" y="322" on="0"/>
        <pt x="122" y="447" on="1"/>
        <pt x="122" y="568" on="1"/>
        <pt x="122" y="621" on="0"/>
        <pt x="57" y="721" on="0"/>
        <pt x="20" y="743" on="1"/>
        <pt x="71" y="743" on="1"/>
        <pt x="94" y="732" on="0"/>
        <pt x="145" y="678" on="0"/>
        <pt x="180" y="601" on="0"/>
        <pt x="180" y="558" on="1"/>
        <pt x="180" y="443" on="1"/>
        <pt x="180" y="390" on="0"/>
        <pt x="228" y="316" on="0"/>
        <pt x="285" y="316" on="1"/>
        <pt x="285" y="277" on="1"/>
        <pt x="228" y="277" on="0"/>
        <pt x="180" y="203" on="0"/>
        <pt x="180" y="150" on="1"/>
        <pt x="180" y="34" on="1"/>
        <pt x="180" y="-9" on="0"/>
        <pt x="145" y="-85" on="0"/>
        <pt x="94" y="-139" on="0"/>
        <pt x="71" y="-150" on="1"/>
        <pt x="20" y="-150" on="1"/>
      </contour>
    </TTGlyph>
    <TTGlyph name="bracketleft" xMin="106" yMin="-150" xMax="283" yMax="743">
      <contour>
        <pt x="106" y="743" on="1"/>
        <pt x="283" y="743" on="1"/>
        <pt x="283" y="693" on="1"/>
        <pt x="164" y="689" on="1"/>
        <pt x="164" y="-96" on="1"/>
        <pt x="283" y="-100" on="1"/>
        <pt x="283" y="-150" on="1"/>
        <pt x="106" y="-150" on="1"/>
      </contour>
    </TTGlyph>
    <TTGlyph name="bracketleft.ss02" xMin="45" yMin="0" xMax="397" yMax="696">
      <contour>
        <pt x="45" y="0" on="1"/>
        <pt x="45" y="348" on="1"/>
        <pt x="45" y="449" on="0"/>
        <pt x="135" y="608" on="0"/>
        <pt x="295" y="696" on="0"/>
        <pt x="397" y="696" on="1"/>
        <pt x="397" y="0" on="1"/>
      </contour>
    </TTGlyph>
    <TTGlyph name="bracketright" xMin="41" yMin="-150" xMax="218" yMax="743">
      <contour>
        <pt x="41" y="-100" on="1"/>
        <pt x="160" y="-96" on="1"/>
        <pt x="160" y="689" on="1"/>
        <pt x="41" y="693" on="1"/>
        <pt x="41" y="743" on="1"/>
        <pt x="218" y="743" on="1"/>
        <pt x="218" y="-150" on="1"/>
        <pt x="41" y="-150" on="1"/>
      </contour>
    </TTGlyph>
    <TTGlyph name="bracketright.ss02" xMin="0" yMin="0" xMax="352" yMax="696">
      <contour>
        <pt x="0" y="696" on="1"/>
        <pt x="102" y="696" on="0"/>
        <pt x="262" y="608" on="0"/>
        <pt x="352" y="449" on="0"/>
        <pt x="352" y="348" on="1"/>
        <pt x="352" y="0" on="1"/>
        <pt x="0" y="0" on="1"/>
      </contour>
    </TTGlyph>
    <TTGlyph name="breve" xMin="20" yMin="600" xMax="287" yMax="743">
      <contour>
        <pt x="287" y="692" on="0"/>
        <pt x="272" y="635" on="0"/>
        <pt x="214" y="600" on="0"/>
        <pt x="153" y="600" on="1"/>
        <pt x="92" y="600" on="0"/>
        <pt x="34" y="635" on="0"/>
        <pt x="20" y="692" on="0"/>
        <pt x="20" y="743" on="1"/>
        <pt x="63" y="743" on="1"/>
        <pt x="63" y="703" on="0"/>
        <pt x="72" y="665" on="0"/>
        <pt x="110" y="643" on="0"/>
        <pt x="153" y="643" on="1"/>
        <pt x="196" y="643" on="0"/>
        <pt x="235" y="665" on="0"/>
        <pt x="244" y="704" on="0"/>
        <pt x="244" y="743" on="1"/>
        <pt x="287" y="743" on="1"/>
      </contour>
    </TTGlyph>
    <TTGlyph name="brokenbar" xMin="107" yMin="-161" xMax="164" yMax="743">
      <contour>
        <pt x="107" y="743" on="1"/>
        <pt x="164" y="743" on="1"/>
        <pt x="164" y="390" on="1"/>
        <pt x="107" y="390" on="1"/>
      </contour>
      <contour>
        <pt x="107" y="192" on="1"/>
        <pt x="164" y="192" on="1"/>
        <pt x="164" y="-161" on="1"/>
        <pt x="107" y="-161" on="1"/>
      </contour>
    </TTGlyph>
    <TTGlyph name="bullet" xMin="75" yMin="235" xMax="288" yMax="452">
      <contour>
        <pt x="288" y="291" on="0"/>
        <pt x="277" y="250" on="0"/>
        <pt x="233" y="235" on="0"/>
        <pt x="180" y="235" on="1"/>
        <pt x="128" y="235" on="0"/>
        <pt x="86" y="250" on="0"/>
        <pt x="75" y="291" on="0"/>
        <pt x="75" y="342" on="1"/>
        <pt x="75" y="395" on="0"/>
        <pt x="86" y="437" on="0"/>
        <pt x="128" y="452" on="0"/>
        <pt x="180" y="452" on="1"/>
        <pt x="234" y="452" on="0"/>
        <pt x="277" y="437" on="0"/>
        <pt x="288" y="395" on="0"/>
        <pt x="288" y="342" on="1"/>
      </contour>
    </TTGlyph>
    <TTGlyph name="bullet.ss02" xMin="40" yMin="-8" xMax="743" yMax="696">
      <contour>
        <pt x="343" y="421" on="0"/>
        <pt x="279" y="480" on="0"/>
        <pt x="279" y="533" on="1"/>
        <pt x="279" y="575" on="0"/>
        <pt x="318" y="650" on="0"/>
        <pt x="373" y="696" on="0"/>
        <pt x="392" y="696" on="1"/>
        <pt x="411" y="696" on="0"/>
        <pt x="465" y="650" on="0"/>
        <pt x="504" y="575" on="0"/>
        <pt x="504" y="533" on="1"/>
        <pt x="504" y="480" on="0"/>
        <pt x="441" y="421" on="0"/>
        <pt x="392" y="421" on="1"/>
      </contour>
      <contour>
        <pt x="415" y="481" on="0"/>
        <pt x="444" y="508" on="0"/>
        <pt x="444" y="533" on="1"/>
        <pt x="444" y="560" on="0"/>
        <pt x="426" y="607" on="0"/>
        <pt x="401" y="636" on="0"/>
        <pt x="392" y="636" on="1"/>
        <pt x="383" y="636" on="0"/>
        <pt x="358" y="607" on="0"/>
        <pt x="339" y="560" on="0"/>
        <pt x="339" y="533" on="1"/>
        <pt x="339" y="508" on="0"/>
        <pt x="369" y="481" on="0"/>
        <pt x="392" y="481" on="1"/>
      </contour>
      <contour>
        <pt x="161" y="231" on="0"/>
        <pt x="86" y="270" on="0"/>
        <pt x="40" y="325" on="0"/>
        <pt x="40" y="344" on="1"/>
        <pt x="40" y="363" on="0"/>
        <pt x="86" y="417" on="0"/>
        <pt x="161" y="456" on="0"/>
        <pt x="203" y="456" on="1"/>
        <pt x="256" y="456" on="0"/>
        <pt x="315" y="393" on="0"/>
        <pt x="315" y="344" on="1"/>
        <pt x="315" y="295" on="0"/>
        <pt x="256" y="231" on="0"/>
        <pt x="203" y="231" on="1"/>
      </contour>
      <contour>
        <pt x="527" y="231" on="0"/>
        <pt x="468" y="295" on="0"/>
        <pt x="468" y="344" on="1"/>
        <pt x="468" y="393" on="0"/>
        <pt x="527" y="456" on="0"/>
        <pt x="581" y="456" on="1"/>
        <pt x="622" y="456" on="0"/>
        <pt x="697" y="417" on="0"/>
        <pt x="743" y="363" on="0"/>
        <pt x="743" y="344" on="1"/>
        <pt x="743" y="325" on="0"/>
        <pt x="697" y="270" on="0"/>
        <pt x="623" y="231" on="0"/>
        <pt x="581" y="231" on="1"/>
      </contour>
      <contour>
        <pt x="228" y="291" on="0"/>
        <pt x="255" y="321" on="0"/>
        <pt x="255" y="344" on="1"/>
        <pt x="255" y="367" on="0"/>
        <pt x="228" y="396" on="0"/>
        <pt x="203" y="396" on="1"/>
        <pt x="176" y="396" on="0"/>
        <pt x="129" y="378" on="0"/>
        <pt x="100" y="353" on="0"/>
        <pt x="100" y="344" on="1"/>
        <pt x="100" y="335" on="0"/>
        <pt x="129" y="310" on="0"/>
        <pt x="176" y="291" on="0"/>
        <pt x="203" y="291" on="1"/>
      </contour>
      <contour>
        <pt x="607" y="291" on="0"/>
        <pt x="654" y="310" on="0"/>
        <pt x="683" y="335" on="0"/>
        <pt x="683" y="344" on="1"/>
        <pt x="683" y="353" on="0"/>
        <pt x="654" y="378" on="0"/>
        <pt x="607" y="396" on="0"/>
        <pt x="581" y="396" on="1"/>
        <pt x="556" y="396" on="0"/>
        <pt x="528" y="367" on="0"/>
        <pt x="528" y="344" on="1"/>
        <pt x="528" y="321" on="0"/>
        <pt x="556" y="291" on="0"/>
        <pt x="581" y="291" on="1"/>
      </contour>
      <contour>
        <pt x="373" y="-8" on="0"/>
        <pt x="318" y="38" on="0"/>
        <pt x="279" y="113" on="0"/>
        <pt x="279" y="155" on="1"/>
        <pt x="279" y="208" on="0"/>
        <pt x="343" y="267" on="0"/>
        <pt x="392" y="267" on="1"/>
        <pt x="441" y="267" on="0"/>
        <pt x="504" y="208" on="0"/>
        <pt x="504" y="155" on="1"/>
        <pt x="504" y="113" on="0"/>
        <pt x="465" y="38" on="0"/>
        <pt x="411" y="-8" on="0"/>
        <pt x="392" y="-8" on="1"/>
      </contour>
      <contour>
        <pt x="401" y="52" on="0"/>
        <pt x="426" y="81" on="0"/>
        <pt x="444" y="128" on="0"/>
        <pt x="444" y="155" on="1"/>
        <pt x="444" y="180" on="0"/>
        <pt x="415" y="207" on="0"/>
        <pt x="392" y="207" on="1"/>
        <pt x="369" y="207" on="0"/>
        <pt x="339" y="180" on="0"/>
        <pt x="339" y="155" on="1"/>
        <pt x="339" y="128" on="0"/>
        <pt x="358" y="81" on="0"/>
        <pt x="383" y="52" on="0"/>
        <pt x="392" y="52" on="1"/>
      </contour>
    </TTGlyph>
    <TTGlyph name="c" xMin="69" yMin="-8" xMax="409" yMax="518">
      <contour>
        <pt x="385" y="-1" on="0"/>
        <pt x="309" y="-8" on="0"/>
        <pt x="274" y="-8" on="1"/>
        <pt x="181" y="-8" on="0"/>
        <pt x="95" y="44" on="0"/>
        <pt x="69" y="151" on="0"/>
        <pt x="69" y="255" on="1"/>
        <pt x="69" y="359" on="0"/>
        <pt x="100" y="469" on="0"/>
        <pt x="186" y="518" on="0"/>
        <pt x="270" y="518" on="1"/>
        <pt x="304" y="518" on="0"/>
        <pt x="379" y="511" on="0"/>
        <pt x="404" y="506" on="1"/>
        <pt x="404" y="451" on="1"/>
        <pt x="342" y="462" on="0"/>
        <pt x="284" y="462" on="1"/>
        <pt x="215" y="462" on="0"/>
        <pt x="152" y="429" on="0"/>
        <pt x="130" y="345" on="0"/>
        <pt x="130" y="256" on="1"/>
        <pt x="130" y="163" on="0"/>
        <pt x="152" y="79" on="0"/>
        <pt x="216" y="48" on="0"/>
        <pt x="287" y="48" on="1"/>
        <pt x="347" y="48" on="0"/>
        <pt x="409" y="59" on="1"/>
        <pt x="409" y="5" on="1"/>
      </contour>
    </TTGlyph>
    <TTGlyph name="cacute" xMin="69" yMin="-8" xMax="409" yMax="743">
      <component glyphName="c" x="0" y="0" flags="0x0"/>
      <component glyphName="acutecomb" x="394" y="0" flags="0x0"/>
    </TTGlyph>
    <TTGlyph name="cacute.loclPLK" xMin="69" yMin="-8" xMax="409" yMax="743">
      <component glyphName="c" x="0" y="0" flags="0x0"/>
      <component glyphName="acute.loclPLK" x="181" y="0" flags="0x0"/>
    </TTGlyph>
    <TTGlyph name="caron" xMin="20" yMin="603" xMax="296" yMax="743">
      <contour>
        <pt x="20" y="737" on="1"/>
        <pt x="20" y="743" on="1"/>
        <pt x="63" y="743" on="1"/>
        <pt x="158" y="642" on="1"/>
        <pt x="253" y="743" on="1"/>
        <pt x="296" y="743" on="1"/>
        <pt x="296" y="737" on="1"/>
        <pt x="192" y="603" on="1"/>
        <pt x="124" y="603" on="1"/>
      </contour>
    </TTGlyph>
    <TTGlyph name="caron.loclCSY" xMin="52" yMin="447" xMax="126" yMax="688">
      <contour>
        <pt x="65" y="607" on="1"/>
        <pt x="65" y="688" on="1"/>
        <pt x="126" y="688" on="1"/>
        <pt x="126" y="607" on="1"/>
        <pt x="93" y="447" on="1"/>
        <pt x="52" y="447" on="1"/>
      </contour>
    </TTGlyph>
    <TTGlyph name="ccaron" xMin="69" yMin="-8" xMax="409" yMax="743">
      <component glyphName="c" x="0" y="0" flags="0x0"/>
      <component glyphName="uni030C" x="387" y="0" flags="0x0"/>
    </TTGlyph>
    <TTGlyph name="ccedilla" xMin="69" yMin="-190" xMax="409" yMax="518">
      <contour>
        <pt x="347" y="48" on="0"/>
        <pt x="409" y="59" on="1"/>
        <pt x="409" y="5" on="1"/>
        <pt x="385" y="-1" on="0"/>
        <pt x="309" y="-8" on="0"/>
        <pt x="274" y="-8" on="1"/>
        <pt x="250" y="-8" on="1"/>
        <pt x="210" y="-190" on="1"/>
        <pt x="147" y="-190" on="1"/>
        <pt x="147" y="-185" on="1"/>
        <pt x="205" y="-4" on="1"/>
        <pt x="145" y="5" on="0"/>
        <pt x="87" y="65" on="0"/>
        <pt x="69" y="165" on="0"/>
        <pt x="69" y="255" on="1"/>
        <pt x="69" y="359" on="0"/>
        <pt x="100" y="469" on="0"/>
        <pt x="186" y="518" on="0"/>
        <pt x="270" y="518" on="1"/>
        <pt x="304" y="518" on="0"/>
        <pt x="379" y="511" on="0"/>
        <pt x="404" y="506" on="1"/>
        <pt x="404" y="451" on="1"/>
        <pt x="342" y="462" on="0"/>
        <pt x="284" y="462" on="1"/>
        <pt x="215" y="462" on="0"/>
        <pt x="152" y="429" on="0"/>
        <pt x="130" y="345" on="0"/>
        <pt x="130" y="256" on="1"/>
        <pt x="130" y="163" on="0"/>
        <pt x="152" y="79" on="0"/>
        <pt x="216" y="48" on="0"/>
        <pt x="287" y="48" on="1"/>
      </contour>
    </TTGlyph>
    <TTGlyph name="ccircumflex" xMin="69" yMin="-8" xMax="409" yMax="743">
      <component glyphName="c" x="0" y="0" flags="0x0"/>
      <component glyphName="uni0302" x="387" y="0" flags="0x0"/>
    </TTGlyph>
    <TTGlyph name="cdotaccent" xMin="69" yMin="-8" xMax="409" yMax="731">
      <component glyphName="c" x="0" y="0" flags="0x0"/>
      <component glyphName="uni0307" x="280" y="0" flags="0x0"/>
    </TTGlyph>
    <TTGlyph name="cedilla" xMin="20" yMin="-190" xMax="125" yMax="8">
      <contour>
        <pt x="20" y="-185" on="1"/>
        <pt x="82" y="8" on="1"/>
        <pt x="125" y="8" on="1"/>
        <pt x="125" y="3" on="1"/>
        <pt x="83" y="-190" on="1"/>
        <pt x="20" y="-190" on="1"/>
      </contour>
    </TTGlyph>
    <TTGlyph name="cent" xMin="69" yMin="-8" xMax="414" yMax="696">
      <contour>
        <pt x="414" y="81" on="1"/>
        <pt x="375" y="71" on="0"/>
        <pt x="300" y="68" on="1"/>
        <pt x="300" y="-8" on="1"/>
        <pt x="250" y="-8" on="1"/>
        <pt x="250" y="69" on="1"/>
        <pt x="174" y="72" on="0"/>
        <pt x="96" y="127" on="0"/>
        <pt x="69" y="239" on="0"/>
        <pt x="69" y="342" on="1"/>
        <pt x="69" y="446" on="0"/>
        <pt x="102" y="563" on="0"/>
        <pt x="180" y="615" on="0"/>
        <pt x="250" y="619" on="1"/>
        <pt x="250" y="696" on="1"/>
        <pt x="300" y="696" on="1"/>
        <pt x="300" y="618" on="1"/>
        <pt x="352" y="617" on="0"/>
        <pt x="409" y="606" on="1"/>
        <pt x="409" y="549" on="1"/>
        <pt x="358" y="560" on="0"/>
        <pt x="300" y="560" on="1"/>
        <pt x="300" y="126" on="1"/>
        <pt x="368" y="128" on="0"/>
        <pt x="414" y="139" on="1"/>
      </contour>
      <contour>
        <pt x="134" y="256" on="0"/>
        <pt x="152" y="169" on="0"/>
        <pt x="200" y="132" on="0"/>
        <pt x="250" y="128" on="1"/>
        <pt x="250" y="559" on="1"/>
        <pt x="200" y="555" on="0"/>
        <pt x="152" y="517" on="0"/>
        <pt x="134" y="430" on="0"/>
        <pt x="134" y="343" on="1"/>
      </contour>
    </TTGlyph>
    <TTGlyph name="circumflex" xMin="20" yMin="603" xMax="296" yMax="743">
      <contour>
        <pt x="20" y="609" on="1"/>
        <pt x="124" y="743" on="1"/>
        <pt x="192" y="743" on="1"/>
        <pt x="296" y="609" on="1"/>
        <pt x="296" y="603" on="1"/>
        <pt x="253" y="603" on="1"/>
        <pt x="158" y="704" on="1"/>
        <pt x="63" y="603" on="1"/>
        <pt x="20" y="603" on="1"/>
      </contour>
    </TTGlyph>
    <TTGlyph name="colon" xMin="64" yMin="0" xMax="138" yMax="510">
      <contour>
        <pt x="64" y="510" on="1"/>
        <pt x="138" y="510" on="1"/>
        <pt x="138" y="424" on="1"/>
        <pt x="64" y="424" on="1"/>
      </contour>
      <contour>
        <pt x="64" y="86" on="1"/>
        <pt x="138" y="86" on="1"/>
        <pt x="138" y="0" on="1"/>
        <pt x="64" y="0" on="1"/>
      </contour>
    </TTGlyph>
    <TTGlyph name="comma" xMin="39" yMin="-113" xMax="138" yMax="86">
      <contour>
        <pt x="74" y="-81" on="0"/>
        <pt x="94" y="-56" on="0"/>
        <pt x="94" y="-17" on="1"/>
        <pt x="94" y="0" on="1"/>
        <pt x="64" y="0" on="1"/>
        <pt x="64" y="86" on="1"/>
        <pt x="138" y="86" on="1"/>
        <pt x="138" y="7" on="1"/>
        <pt x="138" y="-44" on="0"/>
        <pt x="123" y="-93" on="0"/>
        <pt x="82" y="-113" on="0"/>
        <pt x="39" y="-113" on="1"/>
        <pt x="39" y="-81" on="1"/>
      </contour>
    </TTGlyph>
    <TTGlyph name="copyright" xMin="87" yMin="-8" xMax="641" yMax="696">
      <contour>
        <pt x="224" y="-8" on="0"/>
        <pt x="115" y="40" on="0"/>
        <pt x="87" y="171" on="0"/>
        <pt x="87" y="344" on="1"/>
        <pt x="87" y="516" on="0"/>
        <pt x="115" y="648" on="0"/>
        <pt x="224" y="696" on="0"/>
        <pt x="364" y="696" on="1"/>
        <pt x="504" y="696" on="0"/>
        <pt x="613" y="648" on="0"/>
        <pt x="641" y="516" on="0"/>
        <pt x="641" y="344" on="1"/>
        <pt x="641" y="171" on="0"/>
        <pt x="613" y="40" on="0"/>
        <pt x="504" y="-8" on="0"/>
        <pt x="364" y="-8" on="1"/>
      </contour>
      <contour>
        <pt x="489" y="27" on="0"/>
        <pt x="581" y="62" on="0"/>
        <pt x="605" y="180" on="0"/>
        <pt x="605" y="344" on="1"/>
        <pt x="605" y="508" on="0"/>
        <pt x="581" y="625" on="0"/>
        <pt x="490" y="660" on="0"/>
        <pt x="364" y="660" on="1"/>
        <pt x="239" y="660" on="0"/>
        <pt x="148" y="625" on="0"/>
        <pt x="124" y="508" on="0"/>
        <pt x="124" y="344" on="1"/>
        <pt x="124" y="180" on="0"/>
        <pt x="148" y="62" on="0"/>
        <pt x="239" y="27" on="0"/>
        <pt x="364" y="27" on="1"/>
      </contour>
      <contour>
        <pt x="320" y="154" on="0"/>
        <pt x="260" y="181" on="0"/>
        <pt x="239" y="258" on="0"/>
        <pt x="239" y="343" on="1"/>
        <pt x="239" y="428" on="0"/>
        <pt x="260" y="505" on="0"/>
        <pt x="321" y="533" on="0"/>
        <pt x="387" y="533" on="1"/>
        <pt x="444" y="533" on="0"/>
        <pt x="474" y="526" on="1"/>
        <pt x="474" y="486" on="1"/>
        <pt x="437" y="491" on="0"/>
        <pt x="395" y="491" on="1"/>
        <pt x="340" y="491" on="0"/>
        <pt x="297" y="473" on="0"/>
        <pt x="283" y="416" on="0"/>
        <pt x="283" y="343" on="1"/>
        <pt x="283" y="270" on="0"/>
        <pt x="297" y="213" on="0"/>
        <pt x="340" y="195" on="0"/>
        <pt x="395" y="195" on="1"/>
        <pt x="441" y="195" on="0"/>
        <pt x="476" y="200" on="1"/>
        <pt x="476" y="159" on="1"/>
        <pt x="439" y="154" on="0"/>
        <pt x="387" y="154" on="1"/>
      </contour>
    </TTGlyph>
    <TTGlyph name="currency" xMin="69" yMin="-13" xMax="668" yMax="699">
      <contour>
        <pt x="69" y="26" on="1"/>
        <pt x="176" y="131" on="1"/>
        <pt x="159" y="160" on="0"/>
        <pt x="148" y="255" on="0"/>
        <pt x="148" y="344" on="1"/>
        <pt x="148" y="432" on="0"/>
        <pt x="158" y="527" on="0"/>
        <pt x="175" y="556" on="1"/>
        <pt x="69" y="660" on="1"/>
        <pt x="106" y="699" on="1"/>
        <pt x="213" y="593" on="1"/>
        <pt x="237" y="607" on="0"/>
        <pt x="311" y="619" on="0"/>
        <pt x="368" y="619" on="1"/>
        <pt x="426" y="619" on="0"/>
        <pt x="500" y="607" on="0"/>
        <pt x="523" y="592" on="1"/>
        <pt x="631" y="699" on="1"/>
        <pt x="667" y="661" on="1"/>
        <pt x="561" y="557" on="1"/>
        <pt x="578" y="527" on="0"/>
        <pt x="588" y="432" on="0"/>
        <pt x="588" y="344" on="1"/>
        <pt x="588" y="256" on="0"/>
        <pt x="578" y="160" on="0"/>
        <pt x="561" y="131" on="1"/>
        <pt x="668" y="26" on="1"/>
        <pt x="631" y="-13" on="1"/>
        <pt x="522" y="95" on="1"/>
        <pt x="498" y="81" on="0"/>
        <pt x="425" y="69" on="0"/>
        <pt x="368" y="69" on="1"/>
        <pt x="311" y="69" on="0"/>
        <pt x="237" y="81" on="0"/>
        <pt x="213" y="95" on="1"/>
        <pt x="105" y="-12" on="1"/>
      </contour>
      <contour>
        <pt x="449" y="125" on="0"/>
        <pt x="512" y="156" on="0"/>
        <pt x="526" y="236" on="0"/>
        <pt x="526" y="344" on="1"/>
        <pt x="526" y="451" on="0"/>
        <pt x="512" y="532" on="0"/>
        <pt x="449" y="563" on="0"/>
        <pt x="368" y="563" on="1"/>
        <pt x="287" y="563" on="0"/>
        <pt x="224" y="532" on="0"/>
        <pt x="209" y="451" on="0"/>
        <pt x="209" y="344" on="1"/>
        <pt x="209" y="236" on="0"/>
        <pt x="224" y="156" on="0"/>
        <pt x="287" y="125" on="0"/>
        <pt x="368" y="125" on="1"/>
      </contour>
    </TTGlyph>
    <TTGlyph name="d" xMin="69" yMin="-8" xMax="500" yMax="743">
      <contour>
        <pt x="182" y="-8" on="0"/>
        <pt x="101" y="36" on="0"/>
        <pt x="69" y="147" on="0"/>
        <pt x="69" y="255" on="1"/>
        <pt x="69" y="363" on="0"/>
        <pt x="101" y="473" on="0"/>
        <pt x="182" y="518" on="0"/>
        <pt x="262" y="518" on="1"/>
        <pt x="332" y="518" on="0"/>
        <pt x="415" y="483" on="0"/>
        <pt x="434" y="442" on="1"/>
        <pt x="439" y="442" on="1"/>
        <pt x="439" y="743" on="1"/>
        <pt x="500" y="743" on="1"/>
        <pt x="500" y="0" on="1"/>
        <pt x="447" y="0" on="1"/>
        <pt x="443" y="76" on="1"/>
        <pt x="438" y="76" on="1"/>
        <pt x="418" y="26" on="0"/>
        <pt x="329" y="-8" on="0"/>
        <pt x="263" y="-8" on="1"/>
      </contour>
      <contour>
        <pt x="401" y="50" on="0"/>
        <pt x="424" y="114" on="1"/>
        <pt x="434" y="142" on="0"/>
        <pt x="439" y="207" on="0"/>
        <pt x="439" y="264" on="1"/>
        <pt x="439" y="309" on="0"/>
        <pt x="434" y="366" on="0"/>
        <pt x="426" y="388" on="1"/>
        <pt x="412" y="426" on="0"/>
        <pt x="343" y="460" on="0"/>
        <pt x="282" y="460" on="1"/>
        <pt x="212" y="460" on="0"/>
        <pt x="151" y="432" on="0"/>
        <pt x="130" y="349" on="0"/>
        <pt x="130" y="255" on="1"/>
        <pt x="130" y="160" on="0"/>
        <pt x="152" y="78" on="0"/>
        <pt x="214" y="50" on="0"/>
        <pt x="285" y="50" on="1"/>
      </contour>
    </TTGlyph>
    <TTGlyph name="dagger" xMin="53" yMin="0" xMax="379" yMax="688">
      <contour>
        <pt x="189" y="455" on="1"/>
        <pt x="53" y="462" on="1"/>
        <pt x="53" y="503" on="1"/>
        <pt x="189" y="510" on="1"/>
        <pt x="196" y="688" on="1"/>
        <pt x="237" y="688" on="1"/>
        <pt x="243" y="510" on="1"/>
        <pt x="379" y="503" on="1"/>
        <pt x="379" y="462" on="1"/>
        <pt x="243" y="455" on="1"/>
        <pt x="237" y="0" on="1"/>
        <pt x="196" y="0" on="1"/>
      </contour>
    </TTGlyph>
    <TTGlyph name="daggerdbl" xMin="53" yMin="0" xMax="379" yMax="688">
      <contour>
        <pt x="189" y="177" on="1"/>
        <pt x="53" y="184" on="1"/>
        <pt x="53" y="226" on="1"/>
        <pt x="189" y="233" on="1"/>
        <pt x="189" y="455" on="1"/>
        <pt x="53" y="462" on="1"/>
        <pt x="53" y="503" on="1"/>
        <pt x="189" y="510" on="1"/>
        <pt x="196" y="688" on="1"/>
        <pt x="237" y="688" on="1"/>
        <pt x="243" y="510" on="1"/>
        <pt x="379" y="503" on="1"/>
        <pt x="379" y="462" on="1"/>
        <pt x="243" y="455" on="1"/>
        <pt x="243" y="233" on="1"/>
        <pt x="379" y="226" on="1"/>
        <pt x="379" y="184" on="1"/>
        <pt x="243" y="177" on="1"/>
        <pt x="237" y="0" on="1"/>
        <pt x="196" y="0" on="1"/>
      </contour>
    </TTGlyph>
    <TTGlyph name="dcaron" xMin="69" yMin="-8" xMax="622" yMax="743">
      <component glyphName="d" x="0" y="0" flags="0x0"/>
      <component glyphName="caron.loclCSY" x="496" y="0" flags="0x0"/>
    </TTGlyph>
    <TTGlyph name="dcroat" xMin="69" yMin="-8" xMax="568" yMax="743">
      <contour>
        <pt x="568" y="633" on="1"/>
        <pt x="500" y="633" on="1"/>
        <pt x="500" y="0" on="1"/>
        <pt x="447" y="0" on="1"/>
        <pt x="443" y="76" on="1"/>
        <pt x="438" y="76" on="1"/>
        <pt x="418" y="26" on="0"/>
        <pt x="329" y="-8" on="0"/>
        <pt x="263" y="-8" on="1"/>
        <pt x="182" y="-8" on="0"/>
        <pt x="101" y="36" on="0"/>
        <pt x="69" y="147" on="0"/>
        <pt x="69" y="255" on="1"/>
        <pt x="69" y="363" on="0"/>
        <pt x="101" y="473" on="0"/>
        <pt x="182" y="518" on="0"/>
        <pt x="262" y="518" on="1"/>
        <pt x="332" y="518" on="0"/>
        <pt x="415" y="483" on="0"/>
        <pt x="434" y="442" on="1"/>
        <pt x="439" y="442" on="1"/>
        <pt x="439" y="633" on="1"/>
        <pt x="296" y="633" on="1"/>
        <pt x="296" y="688" on="1"/>
        <pt x="439" y="688" on="1"/>
        <pt x="439" y="743" on="1"/>
        <pt x="500" y="743" on="1"/>
        <pt x="500" y="688" on="1"/>
        <pt x="568" y="688" on="1"/>
      </contour>
      <contour>
        <pt x="434" y="142" on="0"/>
        <pt x="439" y="207" on="0"/>
        <pt x="439" y="264" on="1"/>
        <pt x="439" y="309" on="0"/>
        <pt x="434" y="366" on="0"/>
        <pt x="426" y="388" on="1"/>
        <pt x="412" y="426" on="0"/>
        <pt x="343" y="460" on="0"/>
        <pt x="282" y="460" on="1"/>
        <pt x="212" y="460" on="0"/>
        <pt x="151" y="432" on="0"/>
        <pt x="130" y="349" on="0"/>
        <pt x="130" y="255" on="1"/>
        <pt x="130" y="160" on="0"/>
        <pt x="152" y="78" on="0"/>
        <pt x="214" y="50" on="0"/>
        <pt x="285" y="50" on="1"/>
        <pt x="401" y="50" on="0"/>
        <pt x="424" y="114" on="1"/>
      </contour>
    </TTGlyph>
    <TTGlyph name="degree" xMin="66" yMin="397" xMax="321" yMax="696">
      <contour>
        <pt x="134" y="397" on="0"/>
        <pt x="81" y="422" on="0"/>
        <pt x="66" y="480" on="0"/>
        <pt x="66" y="546" on="1"/>
        <pt x="66" y="611" on="0"/>
        <pt x="81" y="670" on="0"/>
        <pt x="134" y="696" on="0"/>
        <pt x="194" y="696" on="1"/>
        <pt x="254" y="696" on="0"/>
        <pt x="307" y="670" on="0"/>
        <pt x="321" y="612" on="0"/>
        <pt x="321" y="546" on="1"/>
        <pt x="321" y="480" on="0"/>
        <pt x="307" y="422" on="0"/>
        <pt x="254" y="397" on="0"/>
        <pt x="194" y="397" on="1"/>
      </contour>
      <contour>
        <pt x="235" y="438" on="0"/>
        <pt x="267" y="454" on="0"/>
        <pt x="274" y="494" on="0"/>
        <pt x="274" y="546" on="1"/>
        <pt x="274" y="599" on="0"/>
        <pt x="267" y="639" on="0"/>
        <pt x="235" y="655" on="0"/>
        <pt x="194" y="655" on="1"/>
        <pt x="153" y="655" on="0"/>
        <pt x="120" y="639" on="0"/>
        <pt x="113" y="599" on="0"/>
        <pt x="113" y="546" on="1"/>
        <pt x="113" y="494" on="0"/>
        <pt x="120" y="454" on="0"/>
        <pt x="153" y="438" on="0"/>
        <pt x="194" y="438" on="1"/>
      </contour>
    </TTGlyph>
    <TTGlyph name="dialog" xMin="59" yMin="-212" xMax="746" yMax="688">
      <contour>
        <pt x="306" y="-127" on="1"/>
        <pt x="494" y="60" on="1"/>
        <pt x="686" y="60" on="1"/>
        <pt x="686" y="628" on="1"/>
        <pt x="119" y="628" on="1"/>
        <pt x="119" y="60" on="1"/>
        <pt x="306" y="60" on="1"/>
        <pt x="306" y="0" on="1"/>
        <pt x="59" y="0" on="1"/>
        <pt x="59" y="688" on="1"/>
        <pt x="746" y="688" on="1"/>
        <pt x="746" y="0" on="1"/>
        <pt x="519" y="0" on="1"/>
        <pt x="306" y="-212" on="1"/>
      </contour>
    </TTGlyph>
    <TTGlyph name="dieresis" xMin="20" yMin="657" xMax="267" yMax="731">
      <contour>
        <pt x="20" y="731" on="1"/>
        <pt x="82" y="731" on="1"/>
        <pt x="82" y="657" on="1"/>
        <pt x="20" y="657" on="1"/>
      </contour>
      <contour>
        <pt x="205" y="731" on="1"/>
        <pt x="267" y="731" on="1"/>
        <pt x="267" y="657" on="1"/>
        <pt x="205" y="657" on="1"/>
      </contour>
    </TTGlyph>
    <TTGlyph name="divide" xMin="70" yMin="28" xMax="470" yMax="478">
      <contour>
        <pt x="240" y="478" on="1"/>
        <pt x="300" y="478" on="1"/>
        <pt x="300" y="406" on="1"/>
        <pt x="240" y="406" on="1"/>
      </contour>
      <contour>
        <pt x="70" y="280" on="1"/>
        <pt x="470" y="280" on="1"/>
        <pt x="470" y="226" on="1"/>
        <pt x="70" y="226" on="1"/>
      </contour>
      <contour>
        <pt x="240" y="100" on="1"/>
        <pt x="300" y="100" on="1"/>
        <pt x="300" y="28" on="1"/>
        <pt x="240" y="28" on="1"/>
      </contour>
    </TTGlyph>
    <TTGlyph name="dollar" xMin="74" yMin="-8" xMax="463" yMax="696">
      <contour>
        <pt x="463" y="162" on="0"/>
        <pt x="431" y="98" on="0"/>
        <pt x="360" y="71" on="0"/>
        <pt x="296" y="69" on="1"/>
        <pt x="296" y="-8" on="1"/>
        <pt x="246" y="-8" on="1"/>
        <pt x="246" y="68" on="1"/>
        <pt x="146" y="72" on="0"/>
        <pt x="90" y="80" on="1"/>
        <pt x="90" y="137" on="1"/>
        <pt x="167" y="127" on="0"/>
        <pt x="246" y="126" on="1"/>
        <pt x="246" y="319" on="1"/>
        <pt x="187" y="325" on="1"/>
        <pt x="142" y="330" on="0"/>
        <pt x="93" y="361" on="0"/>
        <pt x="74" y="417" on="0"/>
        <pt x="74" y="465" on="1"/>
        <pt x="74" y="525" on="0"/>
        <pt x="113" y="590" on="0"/>
        <pt x="186" y="616" on="0"/>
        <pt x="246" y="618" on="1"/>
        <pt x="246" y="696" on="1"/>
        <pt x="296" y="696" on="1"/>
        <pt x="296" y="618" on="1"/>
        <pt x="376" y="616" on="0"/>
        <pt x="435" y="605" on="1"/>
        <pt x="435" y="549" on="1"/>
        <pt x="372" y="558" on="0"/>
        <pt x="296" y="561" on="1"/>
        <pt x="296" y="375" on="1"/>
        <pt x="359" y="369" on="1"/>
        <pt x="401" y="364" on="0"/>
        <pt x="444" y="338" on="0"/>
        <pt x="463" y="279" on="0"/>
        <pt x="463" y="221" on="1"/>
      </contour>
      <contour>
        <pt x="246" y="380" on="1"/>
        <pt x="246" y="561" on="1"/>
        <pt x="207" y="560" on="0"/>
        <pt x="161" y="548" on="0"/>
        <pt x="135" y="508" on="0"/>
        <pt x="135" y="470" on="1"/>
        <pt x="135" y="434" on="0"/>
        <pt x="146" y="400" on="0"/>
        <pt x="174" y="387" on="0"/>
        <pt x="204" y="384" on="1"/>
      </contour>
      <contour>
        <pt x="341" y="128" on="0"/>
        <pt x="385" y="146" on="0"/>
        <pt x="401" y="184" on="0"/>
        <pt x="401" y="220" on="1"/>
        <pt x="401" y="260" on="0"/>
        <pt x="389" y="295" on="0"/>
        <pt x="364" y="307" on="0"/>
        <pt x="334" y="310" on="1"/>
        <pt x="296" y="314" on="1"/>
        <pt x="296" y="126" on="1"/>
      </contour>
    </TTGlyph>
    <TTGlyph name="dotaccent" xMin="20" yMin="657" xMax="82" yMax="731">
      <contour>
        <pt x="20" y="731" on="1"/>
        <pt x="82" y="731" on="1"/>
        <pt x="82" y="657" on="1"/>
        <pt x="20" y="657" on="1"/>
      </contour>
    </TTGlyph>
    <TTGlyph name="dotbelowcomb" xMin="-138" yMin="-149" xMax="-64" yMax="-62">
      <contour>
        <pt x="-138" y="-62" on="1"/>
        <pt x="-64" y="-62" on="1"/>
        <pt x="-64" y="-149" on="1"/>
        <pt x="-138" y="-149" on="1"/>
      </contour>
    </TTGlyph>
    <TTGlyph name="dotlessi" xMin="92" yMin="0" xMax="153" yMax="510">
      <contour>
        <pt x="92" y="510" on="1"/>
        <pt x="153" y="510" on="1"/>
        <pt x="153" y="0" on="1"/>
        <pt x="92" y="0" on="1"/>
      </contour>
    </TTGlyph>
    <TTGlyph name="e" xMin="69" yMin="-8" xMax="491" yMax="518">
      <contour>
        <pt x="491" y="233" on="1"/>
        <pt x="130" y="233" on="1"/>
        <pt x="130" y="150" on="0"/>
        <pt x="152" y="77" on="0"/>
        <pt x="223" y="48" on="0"/>
        <pt x="305" y="48" on="1"/>
        <pt x="343" y="48" on="0"/>
        <pt x="437" y="55" on="0"/>
        <pt x="471" y="60" on="1"/>
        <pt x="471" y="6" on="1"/>
        <pt x="441" y="-1" on="0"/>
        <pt x="342" y="-8" on="0"/>
        <pt x="293" y="-8" on="1"/>
        <pt x="193" y="-8" on="0"/>
        <pt x="99" y="38" on="0"/>
        <pt x="69" y="144" on="0"/>
        <pt x="69" y="254" on="1"/>
        <pt x="69" y="364" on="0"/>
        <pt x="95" y="468" on="0"/>
        <pt x="188" y="518" on="0"/>
        <pt x="292" y="518" on="1"/>
        <pt x="385" y="518" on="0"/>
        <pt x="469" y="470" on="0"/>
        <pt x="491" y="366" on="0"/>
        <pt x="491" y="255" on="1"/>
      </contour>
      <contour>
        <pt x="215" y="462" on="0"/>
        <pt x="151" y="436" on="0"/>
        <pt x="131" y="364" on="0"/>
        <pt x="130" y="282" on="1"/>
        <pt x="432" y="282" on="1"/>
        <pt x="432" y="296" on="1"/>
        <pt x="432" y="371" on="0"/>
        <pt x="407" y="440" on="0"/>
        <pt x="349" y="462" on="0"/>
        <pt x="289" y="462" on="1"/>
      </contour>
    </TTGlyph>
    <TTGlyph name="eacute" xMin="69" yMin="-8" xMax="491" yMax="743">
      <component glyphName="e" x="0" y="0" flags="0x0"/>
      <component glyphName="acute" x="230" y="0" flags="0x0"/>
    </TTGlyph>
    <TTGlyph name="ebreve" xMin="69" yMin="-8" xMax="491" yMax="743">
      <component glyphName="e" x="0" y="0" flags="0x0"/>
      <component glyphName="uni0306" x="433" y="0" flags="0x0"/>
    </TTGlyph>
    <TTGlyph name="ecaron" xMin="69" yMin="-8" xMax="491" yMax="743">
      <component glyphName="e" x="0" y="0" flags="0x0"/>
      <component glyphName="uni030C" x="438" y="0" flags="0x0"/>
    </TTGlyph>
    <TTGlyph name="ecircumflex" xMin="69" yMin="-8" xMax="491" yMax="743">
      <component glyphName="e" x="0" y="0" flags="0x0"/>
      <component glyphName="circumflex" x="123" y="0" flags="0x0"/>
    </TTGlyph>
    <TTGlyph name="edieresis" xMin="69" yMin="-8" xMax="491" yMax="731">
      <component glyphName="e" x="0" y="0" flags="0x0"/>
      <component glyphName="dieresis" x="138" y="0" flags="0x0"/>
    </TTGlyph>
    <TTGlyph name="edotaccent" xMin="69" yMin="-8" xMax="491" yMax="731">
      <component glyphName="e" x="0" y="0" flags="0x0"/>
      <component glyphName="uni0307" x="331" y="0" flags="0x0"/>
    </TTGlyph>
    <TTGlyph name="egrave" xMin="69" yMin="-8" xMax="491" yMax="743">
      <component glyphName="e" x="0" y="0" flags="0x0"/>
      <component glyphName="grave" x="129" y="0" flags="0x0"/>
    </TTGlyph>
    <TTGlyph name="eight" xMin="79" yMin="-8" xMax="603" yMax="696">
      <contour>
        <pt x="232" y="-8" on="0"/>
        <pt x="119" y="34" on="0"/>
        <pt x="79" y="115" on="0"/>
        <pt x="79" y="184" on="1"/>
        <pt x="79" y="242" on="0"/>
        <pt x="106" y="307" on="0"/>
        <pt x="159" y="339" on="0"/>
        <pt x="204" y="349" on="1"/>
        <pt x="204" y="353" on="1"/>
        <pt x="141" y="364" on="0"/>
        <pt x="85" y="440" on="0"/>
        <pt x="85" y="515" on="1"/>
        <pt x="85" y="580" on="0"/>
        <pt x="130" y="658" on="0"/>
        <pt x="241" y="696" on="0"/>
        <pt x="341" y="696" on="1"/>
        <pt x="441" y="696" on="0"/>
        <pt x="552" y="658" on="0"/>
        <pt x="597" y="580" on="0"/>
        <pt x="597" y="515" on="1"/>
        <pt x="597" y="441" on="0"/>
        <pt x="540" y="364" on="0"/>
        <pt x="478" y="353" on="1"/>
        <pt x="478" y="349" on="1"/>
        <pt x="523" y="339" on="0"/>
        <pt x="575" y="307" on="0"/>
        <pt x="603" y="242" on="0"/>
        <pt x="603" y="184" on="1"/>
        <pt x="603" y="116" on="0"/>
        <pt x="563" y="34" on="0"/>
        <pt x="449" y="-8" on="0"/>
        <pt x="341" y="-8" on="1"/>
      </contour>
      <contour>
        <pt x="420" y="378" on="0"/>
        <pt x="500" y="400" on="0"/>
        <pt x="532" y="454" on="0"/>
        <pt x="532" y="506" on="1"/>
        <pt x="532" y="560" on="0"/>
        <pt x="502" y="614" on="0"/>
        <pt x="422" y="636" on="0"/>
        <pt x="341" y="636" on="1"/>
        <pt x="260" y="636" on="0"/>
        <pt x="180" y="614" on="0"/>
        <pt x="150" y="560" on="0"/>
        <pt x="150" y="506" on="1"/>
        <pt x="150" y="453" on="0"/>
        <pt x="182" y="400" on="0"/>
        <pt x="262" y="378" on="0"/>
        <pt x="341" y="378" on="1"/>
      </contour>
      <contour>
        <pt x="421" y="52" on="0"/>
        <pt x="503" y="72" on="0"/>
        <pt x="538" y="127" on="0"/>
        <pt x="538" y="183" on="1"/>
        <pt x="538" y="243" on="0"/>
        <pt x="506" y="299" on="0"/>
        <pt x="425" y="318" on="0"/>
        <pt x="341" y="318" on="1"/>
        <pt x="256" y="318" on="0"/>
        <pt x="176" y="299" on="0"/>
        <pt x="144" y="243" on="0"/>
        <pt x="144" y="183" on="1"/>
        <pt x="144" y="127" on="0"/>
        <pt x="179" y="72" on="0"/>
        <pt x="261" y="52" on="0"/>
        <pt x="341" y="52" on="1"/>
      </contour>
    </TTGlyph>
    <TTGlyph name="eight.dnom" xMin="45" yMin="-4" xMax="352" yMax="382">
      <contour>
        <pt x="135" y="-4" on="0"/>
        <pt x="69" y="18" on="0"/>
        <pt x="45" y="62" on="0"/>
        <pt x="45" y="100" on="1"/>
        <pt x="45" y="146" on="0"/>
        <pt x="78" y="183" on="0"/>
        <pt x="117" y="191" on="1"/>
        <pt x="117" y="193" on="1"/>
        <pt x="81" y="200" on="0"/>
        <pt x="48" y="242" on="0"/>
        <pt x="48" y="283" on="1"/>
        <pt x="48" y="319" on="0"/>
        <pt x="75" y="362" on="0"/>
        <pt x="140" y="382" on="0"/>
        <pt x="198" y="382" on="1"/>
        <pt x="256" y="382" on="0"/>
        <pt x="321" y="362" on="0"/>
        <pt x="348" y="319" on="0"/>
        <pt x="348" y="283" on="1"/>
        <pt x="348" y="242" on="0"/>
        <pt x="315" y="200" on="0"/>
        <pt x="279" y="193" on="1"/>
        <pt x="279" y="191" on="1"/>
        <pt x="319" y="183" on="0"/>
        <pt x="352" y="146" on="0"/>
        <pt x="352" y="100" on="1"/>
        <pt x="352" y="63" on="0"/>
        <pt x="327" y="18" on="0"/>
        <pt x="261" y="-4" on="0"/>
        <pt x="198" y="-4" on="1"/>
      </contour>
      <contour>
        <pt x="240" y="211" on="0"/>
        <pt x="282" y="221" on="0"/>
        <pt x="298" y="248" on="0"/>
        <pt x="298" y="275" on="1"/>
        <pt x="298" y="302" on="0"/>
        <pt x="282" y="328" on="0"/>
        <pt x="240" y="339" on="0"/>
        <pt x="198" y="339" on="1"/>
        <pt x="156" y="339" on="0"/>
        <pt x="114" y="328" on="0"/>
        <pt x="98" y="301" on="0"/>
        <pt x="98" y="275" on="1"/>
        <pt x="98" y="248" on="0"/>
        <pt x="115" y="221" on="0"/>
        <pt x="157" y="211" on="0"/>
        <pt x="198" y="211" on="1"/>
      </contour>
      <contour>
        <pt x="241" y="39" on="0"/>
        <pt x="283" y="48" on="0"/>
        <pt x="302" y="76" on="0"/>
        <pt x="302" y="104" on="1"/>
        <pt x="302" y="134" on="0"/>
        <pt x="285" y="161" on="0"/>
        <pt x="243" y="170" on="0"/>
        <pt x="198" y="170" on="1"/>
        <pt x="154" y="170" on="0"/>
        <pt x="112" y="161" on="0"/>
        <pt x="95" y="134" on="0"/>
        <pt x="95" y="104" on="1"/>
        <pt x="95" y="76" on="0"/>
        <pt x="113" y="48" on="0"/>
        <pt x="156" y="39" on="0"/>
        <pt x="198" y="39" on="1"/>
      </contour>
    </TTGlyph>
    <TTGlyph name="eight.numr" xMin="45" yMin="304" xMax="352" yMax="690">
      <component glyphName="eight.dnom" x="0" y="308" flags="0x4"/>
    </TTGlyph>
    <TTGlyph name="eight.tnum" xMin="68" yMin="-8" xMax="592" yMax="696">
      <contour>
        <pt x="221" y="-8" on="0"/>
        <pt x="108" y="34" on="0"/>
        <pt x="68" y="115" on="0"/>
        <pt x="68" y="184" on="1"/>
        <pt x="68" y="242" on="0"/>
        <pt x="95" y="307" on="0"/>
        <pt x="148" y="339" on="0"/>
        <pt x="193" y="349" on="1"/>
        <pt x="193" y="353" on="1"/>
        <pt x="130" y="364" on="0"/>
        <pt x="74" y="440" on="0"/>
        <pt x="74" y="515" on="1"/>
        <pt x="74" y="580" on="0"/>
        <pt x="119" y="658" on="0"/>
        <pt x="230" y="696" on="0"/>
        <pt x="330" y="696" on="1"/>
        <pt x="430" y="696" on="0"/>
        <pt x="541" y="658" on="0"/>
        <pt x="586" y="580" on="0"/>
        <pt x="586" y="515" on="1"/>
        <pt x="586" y="441" on="0"/>
        <pt x="529" y="364" on="0"/>
        <pt x="467" y="353" on="1"/>
        <pt x="467" y="349" on="1"/>
        <pt x="512" y="339" on="0"/>
        <pt x="564" y="307" on="0"/>
        <pt x="592" y="242" on="0"/>
        <pt x="592" y="184" on="1"/>
        <pt x="592" y="116" on="0"/>
        <pt x="552" y="34" on="0"/>
        <pt x="438" y="-8" on="0"/>
        <pt x="330" y="-8" on="1"/>
      </contour>
      <contour>
        <pt x="409" y="378" on="0"/>
        <pt x="489" y="400" on="0"/>
        <pt x="521" y="453" on="0"/>
        <pt x="521" y="506" on="1"/>
        <pt x="521" y="560" on="0"/>
        <pt x="491" y="614" on="0"/>
        <pt x="411" y="636" on="0"/>
        <pt x="330" y="636" on="1"/>
        <pt x="249" y="636" on="0"/>
        <pt x="169" y="614" on="0"/>
        <pt x="139" y="560" on="0"/>
        <pt x="139" y="506" on="1"/>
        <pt x="139" y="453" on="0"/>
        <pt x="171" y="400" on="0"/>
        <pt x="251" y="378" on="0"/>
        <pt x="330" y="378" on="1"/>
      </contour>
      <contour>
        <pt x="410" y="52" on="0"/>
        <pt x="492" y="72" on="0"/>
        <pt x="527" y="127" on="0"/>
        <pt x="527" y="183" on="1"/>
        <pt x="527" y="243" on="0"/>
        <pt x="495" y="299" on="0"/>
        <pt x="414" y="318" on="0"/>
        <pt x="330" y="318" on="1"/>
        <pt x="245" y="318" on="0"/>
        <pt x="165" y="299" on="0"/>
        <pt x="133" y="243" on="0"/>
        <pt x="133" y="183" on="1"/>
        <pt x="133" y="127" on="0"/>
        <pt x="168" y="72" on="0"/>
        <pt x="250" y="52" on="0"/>
        <pt x="330" y="52" on="1"/>
      </contour>
    </TTGlyph>
    <TTGlyph name="ellipsis" xMin="64" yMin="0" xMax="543" yMax="86">
      <contour>
        <pt x="64" y="86" on="1"/>
        <pt x="138" y="86" on="1"/>
        <pt x="138" y="0" on="1"/>
        <pt x="64" y="0" on="1"/>
      </contour>
      <contour>
        <pt x="266" y="86" on="1"/>
        <pt x="341" y="86" on="1"/>
        <pt x="341" y="0" on="1"/>
        <pt x="266" y="0" on="1"/>
      </contour>
      <contour>
        <pt x="469" y="86" on="1"/>
        <pt x="543" y="86" on="1"/>
        <pt x="543" y="0" on="1"/>
        <pt x="469" y="0" on="1"/>
      </contour>
    </TTGlyph>
    <TTGlyph name="emacron" xMin="69" yMin="-8" xMax="491" yMax="742">
      <component glyphName="e" x="0" y="0" flags="0x0"/>
      <component glyphName="uni0304" x="459" y="0" flags="0x0"/>
    </TTGlyph>
    <TTGlyph name="emdash" xMin="60" yMin="276" xMax="812" yMax="332">
      <contour>
        <pt x="60" y="332" on="1"/>
        <pt x="812" y="332" on="1"/>
        <pt x="812" y="276" on="1"/>
        <pt x="60" y="276" on="1"/>
      </contour>
    </TTGlyph>
    <TTGlyph name="endash" xMin="60" yMin="276" xMax="411" yMax="332">
      <contour>
        <pt x="60" y="332" on="1"/>
        <pt x="411" y="332" on="1"/>
        <pt x="411" y="276" on="1"/>
        <pt x="60" y="276" on="1"/>
      </contour>
    </TTGlyph>
    <TTGlyph name="eng" xMin="92" yMin="-200" xMax="508" yMax="518">
      <contour>
        <pt x="405" y="518" on="0"/>
        <pt x="482" y="478" on="0"/>
        <pt x="508" y="395" on="0"/>
        <pt x="508" y="320" on="1"/>
        <pt x="508" y="-77" on="1"/>
        <pt x="508" y="-134" on="0"/>
        <pt x="477" y="-185" on="0"/>
        <pt x="414" y="-200" on="0"/>
        <pt x="349" y="-200" on="1"/>
        <pt x="349" y="-148" on="1"/>
        <pt x="394" y="-148" on="0"/>
        <pt x="435" y="-138" on="0"/>
        <pt x="447" y="-116" on="0"/>
        <pt x="447" y="-92" on="1"/>
        <pt x="447" y="299" on="1"/>
        <pt x="447" y="373" on="0"/>
        <pt x="427" y="438" on="0"/>
        <pt x="370" y="460" on="0"/>
        <pt x="307" y="460" on="1"/>
        <pt x="236" y="460" on="0"/>
        <pt x="169" y="413" on="0"/>
        <pt x="153" y="335" on="0"/>
        <pt x="153" y="264" on="1"/>
        <pt x="153" y="0" on="1"/>
        <pt x="92" y="0" on="1"/>
        <pt x="92" y="510" on="1"/>
        <pt x="146" y="510" on="1"/>
        <pt x="149" y="433" on="1"/>
        <pt x="154" y="433" on="1"/>
        <pt x="170" y="473" on="0"/>
        <pt x="249" y="518" on="0"/>
        <pt x="329" y="518" on="1"/>
      </contour>
    </TTGlyph>
    <TTGlyph name="eogonek" xMin="69" yMin="-196" xMax="491" yMax="518">
      <contour>
        <pt x="491" y="233" on="1"/>
        <pt x="130" y="233" on="1"/>
        <pt x="130" y="150" on="0"/>
        <pt x="152" y="77" on="0"/>
        <pt x="223" y="48" on="0"/>
        <pt x="305" y="48" on="1"/>
        <pt x="343" y="48" on="0"/>
        <pt x="437" y="55" on="0"/>
        <pt x="471" y="60" on="1"/>
        <pt x="471" y="6" on="1"/>
        <pt x="444" y="-14" on="0"/>
        <pt x="398" y="-81" on="0"/>
        <pt x="398" y="-109" on="1"/>
        <pt x="398" y="-127" on="0"/>
        <pt x="421" y="-150" on="0"/>
        <pt x="445" y="-150" on="1"/>
        <pt x="456" y="-150" on="0"/>
        <pt x="462" y="-149" on="1"/>
        <pt x="462" y="-194" on="1"/>
        <pt x="450" y="-196" on="0"/>
        <pt x="431" y="-196" on="1"/>
        <pt x="385" y="-196" on="0"/>
        <pt x="344" y="-156" on="0"/>
        <pt x="344" y="-124" on="1"/>
        <pt x="344" y="-93" on="0"/>
        <pt x="377" y="-31" on="0"/>
        <pt x="406" y="-3" on="1"/>
        <pt x="348" y="-8" on="0"/>
        <pt x="293" y="-8" on="1"/>
        <pt x="193" y="-8" on="0"/>
        <pt x="99" y="38" on="0"/>
        <pt x="69" y="144" on="0"/>
        <pt x="69" y="254" on="1"/>
        <pt x="69" y="364" on="0"/>
        <pt x="95" y="468" on="0"/>
        <pt x="188" y="518" on="0"/>
        <pt x="292" y="518" on="1"/>
        <pt x="385" y="518" on="0"/>
        <pt x="469" y="470" on="0"/>
        <pt x="491" y="366" on="0"/>
        <pt x="491" y="255" on="1"/>
      </contour>
      <contour>
        <pt x="215" y="462" on="0"/>
        <pt x="151" y="436" on="0"/>
        <pt x="131" y="364" on="0"/>
        <pt x="130" y="282" on="1"/>
        <pt x="432" y="282" on="1"/>
        <pt x="432" y="296" on="1"/>
        <pt x="432" y="371" on="0"/>
        <pt x="407" y="440" on="0"/>
        <pt x="349" y="462" on="0"/>
        <pt x="289" y="462" on="1"/>
      </contour>
    </TTGlyph>
    <TTGlyph name="equal" xMin="70" yMin="125" xMax="470" yMax="380">
      <contour>
        <pt x="70" y="380" on="1"/>
        <pt x="470" y="380" on="1"/>
        <pt x="470" y="326" on="1"/>
        <pt x="70" y="326" on="1"/>
      </contour>
      <contour>
        <pt x="70" y="180" on="1"/>
        <pt x="470" y="180" on="1"/>
        <pt x="470" y="125" on="1"/>
        <pt x="70" y="125" on="1"/>
      </contour>
    </TTGlyph>
    <TTGlyph name="estimated" xMin="82" yMin="-8" xMax="638" yMax="696">
      <contour>
        <pt x="147" y="170" on="0"/>
        <pt x="174" y="55" on="0"/>
        <pt x="255" y="26" on="0"/>
        <pt x="366" y="26" on="1"/>
        <pt x="465" y="26" on="0"/>
        <pt x="551" y="46" on="0"/>
        <pt x="591" y="117" on="0"/>
        <pt x="597" y="200" on="1"/>
        <pt x="633" y="200" on="1"/>
        <pt x="627" y="108" on="0"/>
        <pt x="581" y="22" on="0"/>
        <pt x="473" y="-8" on="0"/>
        <pt x="360" y="-8" on="1"/>
        <pt x="225" y="-8" on="0"/>
        <pt x="113" y="43" on="0"/>
        <pt x="82" y="178" on="0"/>
        <pt x="82" y="344" on="1"/>
        <pt x="82" y="510" on="0"/>
        <pt x="113" y="645" on="0"/>
        <pt x="225" y="696" on="0"/>
        <pt x="360" y="696" on="1"/>
        <pt x="495" y="696" on="0"/>
        <pt x="607" y="645" on="0"/>
        <pt x="638" y="510" on="0"/>
        <pt x="638" y="344" on="1"/>
        <pt x="638" y="323" on="1"/>
        <pt x="146" y="323" on="1"/>
      </contour>
      <contour>
        <pt x="251" y="662" on="0"/>
        <pt x="172" y="632" on="0"/>
        <pt x="146" y="514" on="0"/>
        <pt x="146" y="357" on="1"/>
        <pt x="574" y="357" on="1"/>
        <pt x="574" y="514" on="0"/>
        <pt x="548" y="632" on="0"/>
        <pt x="469" y="662" on="0"/>
        <pt x="360" y="662" on="1"/>
      </contour>
    </TTGlyph>
    <TTGlyph name="eth" xMin="69" yMin="-8" xMax="509" yMax="743">
      <contour>
        <pt x="185" y="-8" on="0"/>
        <pt x="94" y="35" on="0"/>
        <pt x="69" y="137" on="0"/>
        <pt x="69" y="254" on="1"/>
        <pt x="69" y="367" on="0"/>
        <pt x="93" y="472" on="0"/>
        <pt x="180" y="518" on="0"/>
        <pt x="278" y="518" on="1"/>
        <pt x="367" y="518" on="0"/>
        <pt x="416" y="488" on="1"/>
        <pt x="421" y="490" on="1"/>
        <pt x="395" y="567" on="0"/>
        <pt x="350" y="627" on="1"/>
        <pt x="231" y="607" on="1"/>
        <pt x="231" y="655" on="1"/>
        <pt x="320" y="670" on="1"/>
        <pt x="294" y="699" on="0"/>
        <pt x="250" y="736" on="0"/>
        <pt x="247" y="739" on="1"/>
        <pt x="247" y="743" on="1"/>
        <pt x="316" y="743" on="1"/>
        <pt x="355" y="710" on="0"/>
        <pt x="381" y="680" on="1"/>
        <pt x="486" y="699" on="1"/>
        <pt x="486" y="651" on="1"/>
        <pt x="411" y="638" on="1"/>
        <pt x="440" y="596" on="0"/>
        <pt x="487" y="484" on="0"/>
        <pt x="497" y="426" on="1"/>
        <pt x="509" y="353" on="0"/>
        <pt x="509" y="274" on="1"/>
        <pt x="509" y="145" on="0"/>
        <pt x="486" y="37" on="0"/>
        <pt x="396" y="-8" on="0"/>
        <pt x="289" y="-8" on="1"/>
      </contour>
      <contour>
        <pt x="371" y="48" on="0"/>
        <pt x="433" y="77" on="0"/>
        <pt x="448" y="152" on="0"/>
        <pt x="448" y="254" on="1"/>
        <pt x="448" y="342" on="0"/>
        <pt x="433" y="421" on="0"/>
        <pt x="366" y="462" on="0"/>
        <pt x="289" y="462" on="1"/>
        <pt x="208" y="462" on="0"/>
        <pt x="145" y="432" on="0"/>
        <pt x="130" y="356" on="0"/>
        <pt x="130" y="254" on="1"/>
        <pt x="130" y="152" on="0"/>
        <pt x="145" y="77" on="0"/>
        <pt x="207" y="48" on="0"/>
        <pt x="289" y="48" on="1"/>
      </contour>
    </TTGlyph>
    <TTGlyph name="exclam" xMin="78" yMin="0" xMax="152" yMax="688">
      <contour>
        <pt x="86" y="340" on="1"/>
        <pt x="80" y="514" on="0"/>
        <pt x="80" y="570" on="1"/>
        <pt x="80" y="688" on="1"/>
        <pt x="150" y="688" on="1"/>
        <pt x="150" y="570" on="1"/>
        <pt x="150" y="514" on="0"/>
        <pt x="144" y="340" on="1"/>
        <pt x="139" y="189" on="1"/>
        <pt x="91" y="189" on="1"/>
      </contour>
      <contour>
        <pt x="78" y="86" on="1"/>
        <pt x="152" y="86" on="1"/>
        <pt x="152" y="0" on="1"/>
        <pt x="78" y="0" on="1"/>
      </contour>
    </TTGlyph>
    <TTGlyph name="exclam.case" xMin="78" yMin="0" xMax="152" yMax="688">
      <component glyphName="exclam" x="0" y="0" flags="0x0"/>
    </TTGlyph>
    <TTGlyph name="exclam.ss02" xMin="45" yMin="-8" xMax="749" yMax="696">
      <contour>
        <pt x="302" y="-8" on="0"/>
        <pt x="140" y="87" on="0"/>
        <pt x="45" y="249" on="0"/>
        <pt x="45" y="344" on="1"/>
        <pt x="45" y="439" on="0"/>
        <pt x="140" y="601" on="0"/>
        <pt x="302" y="696" on="0"/>
        <pt x="397" y="696" on="1"/>
        <pt x="492" y="696" on="0"/>
        <pt x="654" y="601" on="0"/>
        <pt x="749" y="439" on="0"/>
        <pt x="749" y="344" on="1"/>
        <pt x="749" y="249" on="0"/>
        <pt x="654" y="87" on="0"/>
        <pt x="492" y="-8" on="0"/>
        <pt x="397" y="-8" on="1"/>
      </contour>
      <contour>
        <pt x="480" y="37" on="0"/>
        <pt x="621" y="120" on="0"/>
        <pt x="704" y="261" on="0"/>
        <pt x="704" y="344" on="1"/>
        <pt x="704" y="427" on="0"/>
        <pt x="621" y="568" on="0"/>
        <pt x="480" y="651" on="0"/>
        <pt x="397" y="651" on="1"/>
        <pt x="314" y="651" on="0"/>
        <pt x="173" y="568" on="0"/>
        <pt x="90" y="427" on="0"/>
        <pt x="90" y="344" on="1"/>
        <pt x="90" y="261" on="0"/>
        <pt x="173" y="120" on="0"/>
        <pt x="314" y="37" on="0"/>
        <pt x="397" y="37" on="1"/>
      </contour>
      <contour>
        <pt x="372" y="299" on="0"/>
        <pt x="363" y="420" on="0"/>
        <pt x="363" y="480" on="1"/>
        <pt x="363" y="579" on="1"/>
        <pt x="431" y="579" on="1"/>
        <pt x="431" y="480" on="1"/>
        <pt x="431" y="420" on="0"/>
        <pt x="422" y="299" on="0"/>
        <pt x="417" y="268" on="1"/>
        <pt x="377" y="268" on="1"/>
      </contour>
      <contour>
        <pt x="363" y="191" on="1"/>
        <pt x="431" y="191" on="1"/>
        <pt x="431" y="109" on="1"/>
        <pt x="363" y="109" on="1"/>
      </contour>
    </TTGlyph>
    <TTGlyph name="exclamdbl" xMin="78" yMin="0" xMax="352" yMax="688">
      <component glyphName="exclam" x="200" y="0" flags="0x0"/>
      <component glyphName="exclam" x="0" y="0" flags="0x0"/>
    </TTGlyph>
    <TTGlyph name="exclamdown" xMin="74" yMin="-178" xMax="149" yMax="510">
      <contour>
        <pt x="74" y="510" on="1"/>
        <pt x="149" y="510" on="1"/>
        <pt x="149" y="424" on="1"/>
        <pt x="74" y="424" on="1"/>
      </contour>
      <contour>
        <pt x="77" y="-60" on="1"/>
        <pt x="77" y="-4" on="0"/>
        <pt x="83" y="170" on="1"/>
        <pt x="88" y="321" on="1"/>
        <pt x="135" y="321" on="1"/>
        <pt x="140" y="170" on="1"/>
        <pt x="146" y="-4" on="0"/>
        <pt x="146" y="-60" on="1"/>
        <pt x="146" y="-178" on="1"/>
        <pt x="77" y="-178" on="1"/>
      </contour>
    </TTGlyph>
    <TTGlyph name="exclamdown.case" xMin="74" yMin="0" xMax="149" yMax="688">
      <component glyphName="exclamdown" x="0" y="178" flags="0x4"/>
    </TTGlyph>
    <TTGlyph name="f" xMin="28" yMin="0" xMax="328" yMax="743">
      <contour>
        <pt x="133" y="454" on="1"/>
        <pt x="28" y="454" on="1"/>
        <pt x="28" y="510" on="1"/>
        <pt x="133" y="510" on="1"/>
        <pt x="133" y="603" on="1"/>
        <pt x="133" y="666" on="0"/>
        <pt x="172" y="726" on="0"/>
        <pt x="251" y="743" on="0"/>
        <pt x="328" y="743" on="1"/>
        <pt x="328" y="691" on="1"/>
        <pt x="271" y="691" on="0"/>
        <pt x="216" y="679" on="0"/>
        <pt x="194" y="647" on="0"/>
        <pt x="194" y="614" on="1"/>
        <pt x="194" y="510" on="1"/>
        <pt x="328" y="510" on="1"/>
        <pt x="328" y="454" on="1"/>
        <pt x="194" y="454" on="1"/>
        <pt x="194" y="0" on="1"/>
        <pt x="133" y="0" on="1"/>
      </contour>
    </TTGlyph>
    <TTGlyph name="f_f" xMin="28" yMin="0" xMax="688" yMax="743">
      <component glyphName="f" x="0" y="0" flags="0x0"/>
      <component glyphName="f" x="360" y="0" flags="0x0"/>
    </TTGlyph>
    <TTGlyph name="fi" xMin="28" yMin="0" xMax="517" yMax="743">
      <component glyphName="f" x="0" y="0" flags="0x0"/>
      <component glyphName="i" x="360" y="0" flags="0x0"/>
    </TTGlyph>
    <TTGlyph name="five" xMin="85" yMin="-8" xMax="543" yMax="688">
      <contour>
        <pt x="205" y="52" on="0"/>
        <pt x="282" y="52" on="1"/>
        <pt x="364" y="52" on="0"/>
        <pt x="448" y="79" on="0"/>
        <pt x="479" y="141" on="0"/>
        <pt x="479" y="201" on="1"/>
        <pt x="479" y="266" on="0"/>
        <pt x="446" y="324" on="0"/>
        <pt x="360" y="344" on="0"/>
        <pt x="266" y="344" on="1"/>
        <pt x="210" y="344" on="0"/>
        <pt x="93" y="330" on="1"/>
        <pt x="93" y="688" on="1"/>
        <pt x="492" y="688" on="1"/>
        <pt x="492" y="628" on="1"/>
        <pt x="154" y="628" on="1"/>
        <pt x="154" y="393" on="1"/>
        <pt x="218" y="404" on="0"/>
        <pt x="313" y="404" on="1"/>
        <pt x="411" y="404" on="0"/>
        <pt x="510" y="362" on="0"/>
        <pt x="543" y="281" on="0"/>
        <pt x="543" y="210" on="1"/>
        <pt x="543" y="126" on="0"/>
        <pt x="501" y="34" on="0"/>
        <pt x="391" y="-8" on="0"/>
        <pt x="286" y="-8" on="1"/>
        <pt x="241" y="-8" on="0"/>
        <pt x="128" y="1" on="0"/>
        <pt x="85" y="8" on="1"/>
        <pt x="85" y="64" on="1"/>
      </contour>
    </TTGlyph>
    <TTGlyph name="five.dnom" xMin="50" yMin="-4" xMax="320" yMax="377">
      <contour>
        <pt x="124" y="39" on="0"/>
        <pt x="161" y="39" on="1"/>
        <pt x="207" y="39" on="0"/>
        <pt x="253" y="51" on="0"/>
        <pt x="270" y="82" on="0"/>
        <pt x="270" y="112" on="1"/>
        <pt x="270" y="144" on="0"/>
        <pt x="251" y="173" on="0"/>
        <pt x="204" y="183" on="0"/>
        <pt x="153" y="183" on="1"/>
        <pt x="126" y="183" on="0"/>
        <pt x="54" y="177" on="1"/>
        <pt x="54" y="377" on="1"/>
        <pt x="292" y="377" on="1"/>
        <pt x="292" y="333" on="1"/>
        <pt x="100" y="333" on="1"/>
        <pt x="100" y="221" on="1"/>
        <pt x="138" y="226" on="0"/>
        <pt x="189" y="226" on="1"/>
        <pt x="244" y="226" on="0"/>
        <pt x="301" y="202" on="0"/>
        <pt x="320" y="156" on="0"/>
        <pt x="320" y="117" on="1"/>
        <pt x="320" y="71" on="0"/>
        <pt x="295" y="20" on="0"/>
        <pt x="230" y="-4" on="0"/>
        <pt x="168" y="-4" on="1"/>
        <pt x="101" y="-4" on="0"/>
        <pt x="50" y="5" on="1"/>
        <pt x="50" y="45" on="1"/>
      </contour>
    </TTGlyph>
    <TTGlyph name="five.numr" xMin="50" yMin="304" xMax="320" yMax="685">
      <contour>
        <pt x="124" y="347" on="0"/>
        <pt x="161" y="347" on="1"/>
        <pt x="207" y="347" on="0"/>
        <pt x="253" y="359" on="0"/>
        <pt x="270" y="390" on="0"/>
        <pt x="270" y="420" on="1"/>
        <pt x="270" y="452" on="0"/>
        <pt x="251" y="481" on="0"/>
        <pt x="204" y="491" on="0"/>
        <pt x="153" y="491" on="1"/>
        <pt x="126" y="491" on="0"/>
        <pt x="54" y="485" on="1"/>
        <pt x="54" y="685" on="1"/>
        <pt x="292" y="685" on="1"/>
        <pt x="292" y="641" on="1"/>
        <pt x="100" y="641" on="1"/>
        <pt x="100" y="529" on="1"/>
        <pt x="138" y="534" on="0"/>
        <pt x="189" y="534" on="1"/>
        <pt x="244" y="534" on="0"/>
        <pt x="301" y="510" on="0"/>
        <pt x="320" y="464" on="0"/>
        <pt x="320" y="425" on="1"/>
        <pt x="320" y="379" on="0"/>
        <pt x="295" y="328" on="0"/>
        <pt x="230" y="304" on="0"/>
        <pt x="168" y="304" on="1"/>
        <pt x="101" y="304" on="0"/>
        <pt x="50" y="313" on="1"/>
        <pt x="50" y="353" on="1"/>
      </contour>
    </TTGlyph>
    <TTGlyph name="five.tnum" xMin="106" yMin="-8" xMax="564" yMax="688">
      <contour>
        <pt x="226" y="52" on="0"/>
        <pt x="303" y="52" on="1"/>
        <pt x="385" y="52" on="0"/>
        <pt x="468" y="79" on="0"/>
        <pt x="499" y="141" on="0"/>
        <pt x="499" y="201" on="1"/>
        <pt x="499" y="266" on="0"/>
        <pt x="466" y="324" on="0"/>
        <pt x="381" y="344" on="0"/>
        <pt x="287" y="344" on="1"/>
        <pt x="231" y="344" on="0"/>
        <pt x="114" y="330" on="1"/>
        <pt x="114" y="688" on="1"/>
        <pt x="513" y="688" on="1"/>
        <pt x="513" y="628" on="1"/>
        <pt x="175" y="628" on="1"/>
        <pt x="175" y="393" on="1"/>
        <pt x="250" y="404" on="0"/>
        <pt x="334" y="404" on="1"/>
        <pt x="432" y="404" on="0"/>
        <pt x="531" y="362" on="0"/>
        <pt x="564" y="281" on="0"/>
        <pt x="564" y="210" on="1"/>
        <pt x="564" y="126" on="0"/>
        <pt x="522" y="34" on="0"/>
        <pt x="412" y="-8" on="0"/>
        <pt x="307" y="-8" on="1"/>
        <pt x="262" y="-8" on="0"/>
        <pt x="148" y="1" on="0"/>
        <pt x="106" y="8" on="1"/>
        <pt x="106" y="64" on="1"/>
      </contour>
    </TTGlyph>
    <TTGlyph name="fiveeighths" xMin="50" yMin="-4" xMax="853" yMax="688">
      <component glyphName="five.numr" x="0" y="0" flags="0x0"/>
      <component glyphName="fraction" x="363" y="0" flags="0x0"/>
      <component glyphName="eight.dnom" x="501" y="0" flags="0x0"/>
    </TTGlyph>
    <TTGlyph name="fl" xMin="28" yMin="0" xMax="513" yMax="743">
      <component glyphName="f" x="0" y="0" flags="0x0"/>
      <component glyphName="l" x="360" y="0" flags="0x0"/>
    </TTGlyph>
    <TTGlyph name="florin" xMin="-148" yMin="-191" xMax="378" yMax="743">
      <contour>
        <pt x="304" y="691" on="0"/>
        <pt x="247" y="670" on="0"/>
        <pt x="214" y="603" on="0"/>
        <pt x="197" y="522" on="1"/>
        <pt x="195" y="510" on="1"/>
        <pt x="328" y="510" on="1"/>
        <pt x="317" y="454" on="1"/>
        <pt x="183" y="454" on="1"/>
        <pt x="88" y="13" on="1"/>
        <pt x="67" y="-85" on="0"/>
        <pt x="13" y="-170" on="0"/>
        <pt x="-65" y="-191" on="0"/>
        <pt x="-148" y="-191" on="1"/>
        <pt x="-137" y="-140" on="1"/>
        <pt x="-81" y="-140" on="0"/>
        <pt x="-24" y="-127" on="0"/>
        <pt x="5" y="-90" on="0"/>
        <pt x="14" y="-52" on="1"/>
        <pt x="122" y="454" on="1"/>
        <pt x="17" y="454" on="1"/>
        <pt x="28" y="510" on="1"/>
        <pt x="134" y="510" on="1"/>
        <pt x="135" y="516" on="1"/>
        <pt x="159" y="625" on="0"/>
        <pt x="215" y="719" on="0"/>
        <pt x="294" y="743" on="0"/>
        <pt x="378" y="743" on="1"/>
        <pt x="367" y="691" on="1"/>
      </contour>
    </TTGlyph>
    <TTGlyph name="four" xMin="50" yMin="0" xMax="590" yMax="688">
      <contour>
        <pt x="421" y="166" on="1"/>
        <pt x="50" y="166" on="1"/>
        <pt x="50" y="220" on="1"/>
        <pt x="322" y="688" on="1"/>
        <pt x="394" y="688" on="1"/>
        <pt x="122" y="226" on="1"/>
        <pt x="422" y="226" on="1"/>
        <pt x="432" y="491" on="1"/>
        <pt x="486" y="491" on="1"/>
        <pt x="486" y="226" on="1"/>
        <pt x="590" y="226" on="1"/>
        <pt x="590" y="166" on="1"/>
        <pt x="486" y="166" on="1"/>
        <pt x="486" y="0" on="1"/>
        <pt x="421" y="0" on="1"/>
      </contour>
    </TTGlyph>
    <TTGlyph name="four.dnom" xMin="27" yMin="0" xMax="346" yMax="377">
      <contour>
        <pt x="239" y="86" on="1"/>
        <pt x="27" y="86" on="1"/>
        <pt x="27" y="125" on="1"/>
        <pt x="175" y="377" on="1"/>
        <pt x="230" y="377" on="1"/>
        <pt x="82" y="130" on="1"/>
        <pt x="239" y="130" on="1"/>
        <pt x="250" y="260" on="1"/>
        <pt x="288" y="260" on="1"/>
        <pt x="288" y="130" on="1"/>
        <pt x="346" y="130" on="1"/>
        <pt x="346" y="86" on="1"/>
        <pt x="288" y="86" on="1"/>
        <pt x="288" y="0" on="1"/>
        <pt x="239" y="0" on="1"/>
      </contour>
    </TTGlyph>
    <TTGlyph name="four.numr" xMin="27" yMin="308" xMax="346" yMax="685">
      <component glyphName="four.dnom" x="0" y="308" flags="0x4"/>
    </TTGlyph>
    <TTGlyph name="four.ss01" xMin="50" yMin="0" xMax="590" yMax="688">
      <contour>
        <pt x="590" y="227" on="1"/>
        <pt x="590" y="166" on="1"/>
        <pt x="486" y="166" on="1"/>
        <pt x="486" y="0" on="1"/>
        <pt x="421" y="0" on="1"/>
        <pt x="421" y="166" on="1"/>
        <pt x="50" y="166" on="1"/>
        <pt x="50" y="221" on="1"/>
        <pt x="404" y="688" on="1"/>
        <pt x="486" y="688" on="1"/>
        <pt x="486" y="227" on="1"/>
      </contour>
      <contour>
        <pt x="422" y="227" on="1"/>
        <pt x="422" y="617" on="1"/>
        <pt x="120" y="227" on="1"/>
      </contour>
    </TTGlyph>
    <TTGlyph name="four.tnum" xMin="59" yMin="0" xMax="599" yMax="688">
      <contour>
        <pt x="431" y="166" on="1"/>
        <pt x="59" y="166" on="1"/>
        <pt x="59" y="220" on="1"/>
        <pt x="331" y="688" on="1"/>
        <pt x="403" y="688" on="1"/>
        <pt x="131" y="226" on="1"/>
        <pt x="431" y="226" on="1"/>
        <pt x="441" y="491" on="1"/>
        <pt x="495" y="491" on="1"/>
        <pt x="495" y="226" on="1"/>
        <pt x="599" y="226" on="1"/>
        <pt x="599" y="166" on="1"/>
        <pt x="495" y="166" on="1"/>
        <pt x="495" y="0" on="1"/>
        <pt x="431" y="0" on="1"/>
      </contour>
    </TTGlyph>
    <TTGlyph name="fraction" xMin="-183" yMin="0" xMax="321" yMax="688">
      <contour>
        <pt x="266" y="688" on="1"/>
        <pt x="321" y="688" on="1"/>
        <pt x="-128" y="0" on="1"/>
        <pt x="-183" y="0" on="1"/>
      </contour>
    </TTGlyph>
    <TTGlyph name="g" xMin="69" yMin="-206" xMax="500" yMax="518">
      <contour>
        <pt x="177" y="-206" on="0"/>
        <pt x="93" y="-198" on="1"/>
        <pt x="93" y="-143" on="1"/>
        <pt x="184" y="-150" on="0"/>
        <pt x="264" y="-150" on="1"/>
        <pt x="344" y="-150" on="0"/>
        <pt x="416" y="-117" on="0"/>
        <pt x="439" y="-35" on="0"/>
        <pt x="439" y="52" on="1"/>
        <pt x="439" y="70" on="1"/>
        <pt x="434" y="70" on="1"/>
        <pt x="416" y="29" on="0"/>
        <pt x="332" y="-6" on="0"/>
        <pt x="263" y="-6" on="1"/>
        <pt x="182" y="-6" on="0"/>
        <pt x="101" y="38" on="0"/>
        <pt x="69" y="147" on="0"/>
        <pt x="69" y="255" on="1"/>
        <pt x="69" y="363" on="0"/>
        <pt x="101" y="474" on="0"/>
        <pt x="182" y="518" on="0"/>
        <pt x="263" y="518" on="1"/>
        <pt x="329" y="518" on="0"/>
        <pt x="418" y="483" on="0"/>
        <pt x="438" y="433" on="1"/>
        <pt x="443" y="433" on="1"/>
        <pt x="447" y="510" on="1"/>
        <pt x="500" y="510" on="1"/>
        <pt x="500" y="68" on="1"/>
        <pt x="500" y="-42" on="0"/>
        <pt x="469" y="-154" on="0"/>
        <pt x="374" y="-206" on="0"/>
        <pt x="276" y="-206" on="1"/>
      </contour>
      <contour>
        <pt x="343" y="52" on="0"/>
        <pt x="410" y="83" on="0"/>
        <pt x="423" y="116" on="1"/>
        <pt x="433" y="140" on="0"/>
        <pt x="439" y="202" on="0"/>
        <pt x="439" y="255" on="1"/>
        <pt x="439" y="307" on="0"/>
        <pt x="434" y="368" on="0"/>
        <pt x="425" y="390" on="1"/>
        <pt x="411" y="427" on="0"/>
        <pt x="343" y="460" on="0"/>
        <pt x="285" y="460" on="1"/>
        <pt x="214" y="460" on="0"/>
        <pt x="152" y="432" on="0"/>
        <pt x="130" y="349" on="0"/>
        <pt x="130" y="255" on="1"/>
        <pt x="130" y="161" on="0"/>
        <pt x="152" y="80" on="0"/>
        <pt x="214" y="52" on="0"/>
        <pt x="285" y="52" on="1"/>
      </contour>
    </TTGlyph>
    <TTGlyph name="g_tilde.loclGUA" xMin="69" yMin="-206" xMax="500" yMax="743">
      <component glyphName="g" x="0" y="0" flags="0x0"/>
      <component glyphName="tildecomb" x="492" y="0" flags="0x0"/>
    </TTGlyph>
    <TTGlyph name="gbreve" xMin="69" yMin="-206" xMax="500" yMax="743">
      <component glyphName="g" x="0" y="0" flags="0x0"/>
      <component glyphName="uni0306" x="449" y="0" flags="0x0"/>
    </TTGlyph>
    <TTGlyph name="gcaron" xMin="69" yMin="-206" xMax="500" yMax="743">
      <component glyphName="g" x="0" y="0" flags="0x0"/>
      <component glyphName="uni030C" x="454" y="0" flags="0x0"/>
    </TTGlyph>
    <TTGlyph name="gcircumflex" xMin="69" yMin="-206" xMax="500" yMax="743">
      <component glyphName="g" x="0" y="0" flags="0x0"/>
      <component glyphName="uni0302" x="454" y="0" flags="0x0"/>
    </TTGlyph>
    <TTGlyph name="gcommaaccent" xMin="69" yMin="-206" xMax="500" yMax="792">
      <component glyphName="g" x="0" y="0" flags="0x0"/>
      <component glyphName="uni0312" x="661" y="0" flags="0x0"/>
    </TTGlyph>
    <TTGlyph name="gdotaccent" xMin="69" yMin="-206" xMax="500" yMax="731">
      <component glyphName="g" x="0" y="0" flags="0x0"/>
      <component glyphName="uni0307" x="347" y="0" flags="0x0"/>
    </TTGlyph>
    <TTGlyph name="germandbls" xMin="92" yMin="0" xMax="540" yMax="750">
      <contour>
        <pt x="255" y="0" on="1"/>
        <pt x="255" y="56" on="1"/>
        <pt x="318" y="56" on="1"/>
        <pt x="395" y="56" on="0"/>
        <pt x="458" y="77" on="0"/>
        <pt x="479" y="149" on="0"/>
        <pt x="479" y="237" on="1"/>
        <pt x="479" y="307" on="0"/>
        <pt x="451" y="379" on="0"/>
        <pt x="386" y="407" on="0"/>
        <pt x="324" y="407" on="1"/>
        <pt x="288" y="407" on="1"/>
        <pt x="288" y="463" on="1"/>
        <pt x="324" y="463" on="1"/>
        <pt x="404" y="463" on="0"/>
        <pt x="470" y="512" on="0"/>
        <pt x="470" y="573" on="1"/>
        <pt x="470" y="621" on="0"/>
        <pt x="443" y="672" on="0"/>
        <pt x="376" y="694" on="0"/>
        <pt x="312" y="694" on="1"/>
        <pt x="253" y="694" on="0"/>
        <pt x="186" y="668" on="0"/>
        <pt x="153" y="596" on="0"/>
        <pt x="153" y="526" on="1"/>
        <pt x="153" y="0" on="1"/>
        <pt x="92" y="0" on="1"/>
        <pt x="92" y="535" on="1"/>
        <pt x="92" y="611" on="0"/>
        <pt x="134" y="704" on="0"/>
        <pt x="233" y="750" on="0"/>
        <pt x="319" y="750" on="1"/>
        <pt x="402" y="750" on="0"/>
        <pt x="494" y="712" on="0"/>
        <pt x="531" y="636" on="0"/>
        <pt x="531" y="575" on="1"/>
        <pt x="531" y="515" on="0"/>
        <pt x="475" y="451" on="0"/>
        <pt x="415" y="441" on="1"/>
        <pt x="415" y="437" on="1"/>
        <pt x="479" y="426" on="0"/>
        <pt x="540" y="337" on="0"/>
        <pt x="540" y="242" on="1"/>
        <pt x="540" y="147" on="0"/>
        <pt x="510" y="46" on="0"/>
        <pt x="424" y="0" on="0"/>
        <pt x="338" y="0" on="1"/>
      </contour>
    </TTGlyph>
    <TTGlyph name="grave" xMin="20" yMin="603" xMax="193" yMax="743">
      <contour>
        <pt x="20" y="738" on="1"/>
        <pt x="20" y="743" on="1"/>
        <pt x="90" y="743" on="1"/>
        <pt x="193" y="608" on="1"/>
        <pt x="193" y="603" on="1"/>
        <pt x="147" y="603" on="1"/>
      </contour>
    </TTGlyph>
    <TTGlyph name="gravecomb" xMin="-193" yMin="603" xMax="-20" yMax="743">
      <contour>
        <pt x="-193" y="738" on="1"/>
        <pt x="-193" y="743" on="1"/>
        <pt x="-123" y="743" on="1"/>
        <pt x="-20" y="608" on="1"/>
        <pt x="-20" y="603" on="1"/>
        <pt x="-66" y="603" on="1"/>
      </contour>
    </TTGlyph>
    <TTGlyph name="gravecomb.case" xMin="-193" yMin="748" xMax="-20" yMax="888">
      <contour>
        <pt x="-193" y="883" on="1"/>
        <pt x="-193" y="888" on="1"/>
        <pt x="-123" y="888" on="1"/>
        <pt x="-20" y="753" on="1"/>
        <pt x="-20" y="748" on="1"/>
        <pt x="-66" y="748" on="1"/>
      </contour>
    </TTGlyph>
    <TTGlyph name="greater" xMin="70" yMin="45" xMax="470" yMax="461">
      <contour>
        <pt x="70" y="103" on="1"/>
        <pt x="422" y="253" on="1"/>
        <pt x="70" y="403" on="1"/>
        <pt x="70" y="461" on="1"/>
        <pt x="470" y="288" on="1"/>
        <pt x="470" y="218" on="1"/>
        <pt x="70" y="45" on="1"/>
      </contour>
    </TTGlyph>
    <TTGlyph name="greaterequal" xMin="70" yMin="-1" xMax="470" yMax="591">
      <contour>
        <pt x="70" y="232" on="1"/>
        <pt x="423" y="382" on="1"/>
        <pt x="70" y="532" on="1"/>
        <pt x="70" y="591" on="1"/>
        <pt x="470" y="417" on="1"/>
        <pt x="470" y="347" on="1"/>
        <pt x="70" y="174" on="1"/>
      </contour>
      <contour>
        <pt x="70" y="54" on="1"/>
        <pt x="470" y="54" on="1"/>
        <pt x="470" y="-1" on="1"/>
        <pt x="70" y="-1" on="1"/>
      </contour>
    </TTGlyph>
    <TTGlyph name="guillemotleft" xMin="52" yMin="99" xMax="391" yMax="510">
      <contour>
        <pt x="52" y="304" on="1"/>
        <pt x="184" y="510" on="1"/>
        <pt x="231" y="510" on="1"/>
        <pt x="115" y="304" on="1"/>
        <pt x="231" y="99" on="1"/>
        <pt x="184" y="99" on="1"/>
      </contour>
      <contour>
        <pt x="213" y="304" on="1"/>
        <pt x="345" y="510" on="1"/>
        <pt x="391" y="510" on="1"/>
        <pt x="275" y="304" on="1"/>
        <pt x="391" y="99" on="1"/>
        <pt x="345" y="99" on="1"/>
      </contour>
    </TTGlyph>
    <TTGlyph name="guillemotright" xMin="74" yMin="99" xMax="413" yMax="510">
      <contour>
        <pt x="190" y="304" on="1"/>
        <pt x="74" y="510" on="1"/>
        <pt x="120" y="510" on="1"/>
        <pt x="252" y="304" on="1"/>
        <pt x="120" y="99" on="1"/>
        <pt x="74" y="99" on="1"/>
      </contour>
      <contour>
        <pt x="350" y="304" on="1"/>
        <pt x="235" y="510" on="1"/>
        <pt x="281" y="510" on="1"/>
        <pt x="413" y="304" on="1"/>
        <pt x="281" y="99" on="1"/>
        <pt x="235" y="99" on="1"/>
      </contour>
    </TTGlyph>
    <TTGlyph name="guilsinglleft" xMin="52" yMin="99" xMax="230" yMax="510">
      <contour>
        <pt x="52" y="304" on="1"/>
        <pt x="184" y="510" on="1"/>
        <pt x="230" y="510" on="1"/>
        <pt x="114" y="304" on="1"/>
        <pt x="230" y="99" on="1"/>
        <pt x="184" y="99" on="1"/>
      </contour>
    </TTGlyph>
    <TTGlyph name="guilsinglright" xMin="74" yMin="99" xMax="252" yMax="510">
      <contour>
        <pt x="190" y="304" on="1"/>
        <pt x="74" y="510" on="1"/>
        <pt x="120" y="510" on="1"/>
        <pt x="252" y="304" on="1"/>
        <pt x="120" y="99" on="1"/>
        <pt x="74" y="99" on="1"/>
      </contour>
    </TTGlyph>
    <TTGlyph name="h" xMin="92" yMin="0" xMax="508" yMax="743">
      <contour>
        <pt x="447" y="299" on="1"/>
        <pt x="447" y="373" on="0"/>
        <pt x="427" y="438" on="0"/>
        <pt x="370" y="460" on="0"/>
        <pt x="307" y="460" on="1"/>
        <pt x="236" y="460" on="0"/>
        <pt x="169" y="413" on="0"/>
        <pt x="153" y="335" on="0"/>
        <pt x="153" y="264" on="1"/>
        <pt x="153" y="0" on="1"/>
        <pt x="92" y="0" on="1"/>
        <pt x="92" y="743" on="1"/>
        <pt x="153" y="743" on="1"/>
        <pt x="153" y="440" on="1"/>
        <pt x="158" y="440" on="1"/>
        <pt x="173" y="475" on="0"/>
        <pt x="250" y="518" on="0"/>
        <pt x="328" y="518" on="1"/>
        <pt x="405" y="518" on="0"/>
        <pt x="482" y="478" on="0"/>
        <pt x="508" y="395" on="0"/>
        <pt x="508" y="320" on="1"/>
        <pt x="508" y="0" on="1"/>
        <pt x="447" y="0" on="1"/>
      </contour>
    </TTGlyph>
    <TTGlyph name="hbar" xMin="25" yMin="0" xMax="508" yMax="743">
      <contour>
        <pt x="405" y="518" on="0"/>
        <pt x="482" y="478" on="0"/>
        <pt x="508" y="395" on="0"/>
        <pt x="508" y="320" on="1"/>
        <pt x="508" y="0" on="1"/>
        <pt x="447" y="0" on="1"/>
        <pt x="447" y="299" on="1"/>
        <pt x="447" y="373" on="0"/>
        <pt x="427" y="438" on="0"/>
        <pt x="370" y="460" on="0"/>
        <pt x="307" y="460" on="1"/>
        <pt x="236" y="460" on="0"/>
        <pt x="169" y="413" on="0"/>
        <pt x="153" y="335" on="0"/>
        <pt x="153" y="264" on="1"/>
        <pt x="153" y="0" on="1"/>
        <pt x="92" y="0" on="1"/>
        <pt x="92" y="633" on="1"/>
        <pt x="25" y="633" on="1"/>
        <pt x="25" y="688" on="1"/>
        <pt x="92" y="688" on="1"/>
        <pt x="92" y="743" on="1"/>
        <pt x="153" y="743" on="1"/>
        <pt x="153" y="688" on="1"/>
        <pt x="296" y="688" on="1"/>
        <pt x="296" y="633" on="1"/>
        <pt x="153" y="633" on="1"/>
        <pt x="153" y="440" on="1"/>
        <pt x="158" y="440" on="1"/>
        <pt x="173" y="475" on="0"/>
        <pt x="250" y="518" on="0"/>
        <pt x="328" y="518" on="1"/>
      </contour>
    </TTGlyph>
    <TTGlyph name="hcircumflex" xMin="-15" yMin="0" xMax="508" yMax="921">
      <component glyphName="h" x="0" y="0" flags="0x0"/>
      <component glyphName="uni0302" x="281" y="178" flags="0x4"/>
    </TTGlyph>
    <TTGlyph name="hookabovecomb" xMin="-267" yMin="607" xMax="-25" yMax="798">
      <contour>
        <pt x="-194" y="617" on="1"/>
        <pt x="-194" y="642" on="0"/>
        <pt x="-177" y="662" on="0"/>
        <pt x="-151" y="669" on="1"/>
        <pt x="-127" y="676" on="1"/>
        <pt x="-91" y="685" on="0"/>
        <pt x="-71" y="700" on="0"/>
        <pt x="-71" y="719" on="1"/>
        <pt x="-71" y="738" on="0"/>
        <pt x="-87" y="755" on="0"/>
        <pt x="-120" y="759" on="0"/>
        <pt x="-156" y="759" on="1"/>
        <pt x="-202" y="759" on="0"/>
        <pt x="-267" y="754" on="1"/>
        <pt x="-267" y="791" on="1"/>
        <pt x="-222" y="798" on="0"/>
        <pt x="-154" y="798" on="1"/>
        <pt x="-105" y="798" on="0"/>
        <pt x="-52" y="788" on="0"/>
        <pt x="-25" y="757" on="0"/>
        <pt x="-25" y="725" on="1"/>
        <pt x="-25" y="692" on="0"/>
        <pt x="-48" y="662" on="0"/>
        <pt x="-85" y="652" on="1"/>
        <pt x="-112" y="644" on="1"/>
        <pt x="-134" y="638" on="0"/>
        <pt x="-151" y="631" on="0"/>
        <pt x="-155" y="620" on="0"/>
        <pt x="-155" y="607" on="1"/>
        <pt x="-194" y="607" on="1"/>
      </contour>
    </TTGlyph>
    <TTGlyph name="hookabovecomb.case" xMin="-267" yMin="730" xMax="-25" yMax="921">
      <contour>
        <pt x="-194" y="740" on="1"/>
        <pt x="-194" y="765" on="0"/>
        <pt x="-177" y="784" on="0"/>
        <pt x="-151" y="792" on="1"/>
        <pt x="-127" y="799" on="1"/>
        <pt x="-91" y="808" on="0"/>
        <pt x="-71" y="823" on="0"/>
        <pt x="-71" y="842" on="1"/>
        <pt x="-71" y="861" on="0"/>
        <pt x="-87" y="878" on="0"/>
        <pt x="-120" y="882" on="0"/>
        <pt x="-156" y="882" on="1"/>
        <pt x="-202" y="882" on="0"/>
        <pt x="-267" y="877" on="1"/>
        <pt x="-267" y="914" on="1"/>
        <pt x="-222" y="921" on="0"/>
        <pt x="-154" y="921" on="1"/>
        <pt x="-105" y="921" on="0"/>
        <pt x="-52" y="911" on="0"/>
        <pt x="-25" y="880" on="0"/>
        <pt x="-25" y="848" on="1"/>
        <pt x="-25" y="815" on="0"/>
        <pt x="-48" y="785" on="0"/>
        <pt x="-85" y="775" on="1"/>
        <pt x="-112" y="767" on="1"/>
        <pt x="-134" y="761" on="0"/>
        <pt x="-151" y="754" on="0"/>
        <pt x="-155" y="743" on="0"/>
        <pt x="-155" y="730" on="1"/>
        <pt x="-194" y="730" on="1"/>
      </contour>
    </TTGlyph>
    <TTGlyph name="house" xMin="57" yMin="0" xMax="686" yMax="695">
      <contour>
        <pt x="57" y="410" on="1"/>
        <pt x="344" y="695" on="1"/>
        <pt x="398" y="695" on="1"/>
        <pt x="686" y="410" on="1"/>
        <pt x="686" y="0" on="1"/>
        <pt x="57" y="0" on="1"/>
      </contour>
      <contour>
        <pt x="634" y="47" on="1"/>
        <pt x="634" y="393" on="1"/>
        <pt x="372" y="652" on="1"/>
        <pt x="109" y="393" on="1"/>
        <pt x="109" y="47" on="1"/>
      </contour>
    </TTGlyph>
    <TTGlyph name="hungarumlaut" xMin="20" yMin="606" xMax="377" yMax="740">
      <contour>
        <pt x="20" y="611" on="1"/>
        <pt x="121" y="740" on="1"/>
        <pt x="184" y="740" on="1"/>
        <pt x="184" y="735" on="1"/>
        <pt x="61" y="606" on="1"/>
        <pt x="20" y="606" on="1"/>
      </contour>
      <contour>
        <pt x="212" y="611" on="1"/>
        <pt x="313" y="740" on="1"/>
        <pt x="377" y="740" on="1"/>
        <pt x="377" y="735" on="1"/>
        <pt x="254" y="606" on="1"/>
        <pt x="212" y="606" on="1"/>
      </contour>
    </TTGlyph>
    <TTGlyph name="hyphen" xMin="62" yMin="255" xMax="297" yMax="316">
      <contour>
        <pt x="62" y="316" on="1"/>
        <pt x="297" y="316" on="1"/>
        <pt x="297" y="255" on="1"/>
        <pt x="62" y="255" on="1"/>
      </contour>
    </TTGlyph>
    <TTGlyph name="i" xMin="89" yMin="0" xMax="157" yMax="743">
      <contour>
        <pt x="89" y="743" on="1"/>
        <pt x="157" y="743" on="1"/>
        <pt x="157" y="664" on="1"/>
        <pt x="89" y="664" on="1"/>
      </contour>
      <contour>
        <pt x="92" y="510" on="1"/>
        <pt x="153" y="510" on="1"/>
        <pt x="153" y="0" on="1"/>
        <pt x="92" y="0" on="1"/>
      </contour>
    </TTGlyph>
    <TTGlyph name="i.loclTRK" xMin="92" yMin="0" xMax="154" yMax="731">
      <component glyphName="dotlessi" x="0" y="0" flags="0x0"/>
      <component glyphName="uni0307" x="174" y="0" flags="0x0"/>
    </TTGlyph>
    <TTGlyph name="iacute" xMin="90" yMin="0" xMax="263" yMax="743">
      <component glyphName="dotlessi" x="0" y="0" flags="0x0"/>
      <component glyphName="acute" x="70" y="0" flags="0x0"/>
    </TTGlyph>
    <TTGlyph name="iacute_j.loclNLD" xMin="92" yMin="-200" xMax="514" yMax="743">
      <component glyphName="dotlessi" x="0" y="0" flags="0x0"/>
      <component glyphName="acutecomb" x="288" y="0" flags="0x0"/>
      <component glyphName="uni0237" x="246" y="0" flags="0x0"/>
      <component glyphName="acutecomb" x="534" y="0" flags="0x0"/>
    </TTGlyph>
    <TTGlyph name="ibreve" xMin="-11" yMin="0" xMax="256" yMax="743">
      <component glyphName="dotlessi" x="0" y="0" flags="0x0"/>
      <component glyphName="uni0306" x="276" y="0" flags="0x0"/>
    </TTGlyph>
    <TTGlyph name="icircumflex" xMin="-15" yMin="0" xMax="261" yMax="743">
      <component glyphName="dotlessi" x="0" y="0" flags="0x0"/>
      <component glyphName="circumflex" x="-35" y="0" flags="0x0"/>
    </TTGlyph>
    <TTGlyph name="idieresis" xMin="0" yMin="0" xMax="247" yMax="731">
      <component glyphName="dotlessi" x="0" y="0" flags="0x0"/>
      <component glyphName="dieresis" x="-20" y="0" flags="0x0"/>
    </TTGlyph>
    <TTGlyph name="igrave" xMin="-17" yMin="0" xMax="156" yMax="743">
      <component glyphName="dotlessi" x="0" y="0" flags="0x0"/>
      <component glyphName="grave" x="-37" y="0" flags="0x0"/>
    </TTGlyph>
    <TTGlyph name="ij" xMin="89" yMin="-200" xMax="403" yMax="743">
      <component glyphName="i" x="0" y="0" flags="0x0"/>
      <component glyphName="j" x="246" y="0" flags="0x0"/>
    </TTGlyph>
    <TTGlyph name="imacron" xMin="5" yMin="0" xMax="240" yMax="742">
      <component glyphName="dotlessi" x="0" y="0" flags="0x0"/>
      <component glyphName="uni0304" x="302" y="0" flags="0x0"/>
    </TTGlyph>
    <TTGlyph name="infinity" xMin="66" yMin="53" xMax="970" yMax="459">
      <contour>
        <pt x="197" y="53" on="0"/>
        <pt x="102" y="99" on="0"/>
        <pt x="66" y="186" on="0"/>
        <pt x="66" y="256" on="1"/>
        <pt x="66" y="325" on="0"/>
        <pt x="102" y="413" on="0"/>
        <pt x="197" y="459" on="0"/>
        <pt x="284" y="459" on="1"/>
        <pt x="381" y="459" on="0"/>
        <pt x="485" y="384" on="0"/>
        <pt x="519" y="318" on="1"/>
        <pt x="553" y="385" on="0"/>
        <pt x="657" y="459" on="0"/>
        <pt x="755" y="459" on="1"/>
        <pt x="842" y="459" on="0"/>
        <pt x="935" y="413" on="0"/>
        <pt x="970" y="326" on="0"/>
        <pt x="970" y="256" on="1"/>
        <pt x="970" y="185" on="0"/>
        <pt x="935" y="99" on="0"/>
        <pt x="842" y="53" on="0"/>
        <pt x="755" y="53" on="1"/>
        <pt x="657" y="53" on="0"/>
        <pt x="553" y="127" on="0"/>
        <pt x="519" y="194" on="1"/>
        <pt x="486" y="127" on="0"/>
        <pt x="381" y="53" on="0"/>
        <pt x="284" y="53" on="1"/>
      </contour>
      <contour>
        <pt x="374" y="105" on="0"/>
        <pt x="466" y="186" on="0"/>
        <pt x="491" y="256" on="1"/>
        <pt x="466" y="326" on="0"/>
        <pt x="374" y="407" on="0"/>
        <pt x="285" y="407" on="1"/>
        <pt x="217" y="407" on="0"/>
        <pt x="145" y="373" on="0"/>
        <pt x="119" y="309" on="0"/>
        <pt x="119" y="256" on="1"/>
        <pt x="119" y="202" on="0"/>
        <pt x="145" y="138" on="0"/>
        <pt x="217" y="105" on="0"/>
        <pt x="285" y="105" on="1"/>
      </contour>
      <contour>
        <pt x="821" y="105" on="0"/>
        <pt x="892" y="138" on="0"/>
        <pt x="917" y="202" on="0"/>
        <pt x="917" y="256" on="1"/>
        <pt x="917" y="309" on="0"/>
        <pt x="892" y="373" on="0"/>
        <pt x="821" y="407" on="0"/>
        <pt x="753" y="407" on="1"/>
        <pt x="664" y="407" on="0"/>
        <pt x="572" y="326" on="0"/>
        <pt x="548" y="256" on="1"/>
        <pt x="572" y="186" on="0"/>
        <pt x="664" y="105" on="0"/>
        <pt x="753" y="105" on="1"/>
      </contour>
    </TTGlyph>
    <TTGlyph name="integral" xMin="66" yMin="-190" xMax="305" yMax="696">
      <contour>
        <pt x="66" y="-139" on="1"/>
        <pt x="111" y="-139" on="0"/>
        <pt x="157" y="-130" on="0"/>
        <pt x="176" y="-107" on="0"/>
        <pt x="176" y="-84" on="1"/>
        <pt x="176" y="-72" on="0"/>
        <pt x="172" y="-17" on="1"/>
        <pt x="134" y="548" on="1"/>
        <pt x="133" y="566" on="0"/>
        <pt x="133" y="589" on="1"/>
        <pt x="133" y="637" on="0"/>
        <pt x="171" y="683" on="0"/>
        <pt x="240" y="696" on="0"/>
        <pt x="305" y="696" on="1"/>
        <pt x="305" y="645" on="1"/>
        <pt x="260" y="645" on="0"/>
        <pt x="214" y="636" on="0"/>
        <pt x="195" y="613" on="0"/>
        <pt x="195" y="590" on="1"/>
        <pt x="197" y="544" on="1"/>
        <pt x="234" y="-18" on="1"/>
        <pt x="237" y="-68" on="0"/>
        <pt x="237" y="-83" on="1"/>
        <pt x="237" y="-132" on="0"/>
        <pt x="200" y="-177" on="0"/>
        <pt x="131" y="-190" on="0"/>
        <pt x="66" y="-190" on="1"/>
      </contour>
    </TTGlyph>
    <TTGlyph name="iogonek" xMin="36" yMin="-196" xMax="154" yMax="731">
      <contour>
        <pt x="154" y="731" on="1"/>
        <pt x="154" y="657" on="1"/>
        <pt x="92" y="657" on="1"/>
        <pt x="92" y="731" on="1"/>
      </contour>
      <contour>
        <pt x="90" y="-127" on="0"/>
        <pt x="112" y="-150" on="0"/>
        <pt x="137" y="-150" on="1"/>
        <pt x="147" y="-150" on="0"/>
        <pt x="154" y="-149" on="1"/>
        <pt x="154" y="-194" on="1"/>
        <pt x="140" y="-196" on="0"/>
        <pt x="123" y="-196" on="1"/>
        <pt x="36" y="-196" on="0"/>
        <pt x="36" y="-122" on="1"/>
        <pt x="36" y="-92" on="0"/>
        <pt x="70" y="-27" on="0"/>
        <pt x="97" y="0" on="1"/>
        <pt x="92" y="0" on="1"/>
        <pt x="92" y="510" on="1"/>
        <pt x="153" y="510" on="1"/>
        <pt x="153" y="0" on="1"/>
        <pt x="131" y="-18" on="0"/>
        <pt x="90" y="-82" on="0"/>
        <pt x="90" y="-108" on="1"/>
      </contour>
    </TTGlyph>
    <TTGlyph name="itilde" xMin="-54" yMin="0" xMax="299" yMax="743">
      <component glyphName="dotlessi" x="0" y="0" flags="0x0"/>
      <component glyphName="tildecomb" x="319" y="0" flags="0x0"/>
    </TTGlyph>
    <TTGlyph name="j" xMin="-6" yMin="-200" xMax="157" yMax="743">
      <contour>
        <pt x="89" y="743" on="1"/>
        <pt x="157" y="743" on="1"/>
        <pt x="157" y="664" on="1"/>
        <pt x="89" y="664" on="1"/>
      </contour>
      <contour>
        <pt x="-6" y="-148" on="1"/>
        <pt x="39" y="-148" on="0"/>
        <pt x="80" y="-138" on="0"/>
        <pt x="92" y="-116" on="0"/>
        <pt x="92" y="-92" on="1"/>
        <pt x="92" y="510" on="1"/>
        <pt x="153" y="510" on="1"/>
        <pt x="153" y="-77" on="1"/>
        <pt x="153" y="-134" on="0"/>
        <pt x="122" y="-185" on="0"/>
        <pt x="59" y="-200" on="0"/>
        <pt x="-6" y="-200" on="1"/>
      </contour>
    </TTGlyph>
    <TTGlyph name="jcircumflex" xMin="-15" yMin="-200" xMax="261" yMax="743">
      <component glyphName="uni0237" x="0" y="0" flags="0x0"/>
      <component glyphName="uni0302" x="281" y="0" flags="0x0"/>
    </TTGlyph>
    <TTGlyph name="k" xMin="92" yMin="0" xMax="495" yMax="743">
      <contour>
        <pt x="227" y="230" on="1"/>
        <pt x="153" y="230" on="1"/>
        <pt x="153" y="0" on="1"/>
        <pt x="92" y="0" on="1"/>
        <pt x="92" y="743" on="1"/>
        <pt x="153" y="743" on="1"/>
        <pt x="153" y="287" on="1"/>
        <pt x="227" y="287" on="1"/>
        <pt x="421" y="510" on="1"/>
        <pt x="492" y="510" on="1"/>
        <pt x="276" y="263" on="1"/>
        <pt x="495" y="0" on="1"/>
        <pt x="421" y="0" on="1"/>
      </contour>
    </TTGlyph>
    <TTGlyph name="kcommaaccent" xMin="92" yMin="-250" xMax="495" yMax="743">
      <component glyphName="k" x="0" y="0" flags="0x0"/>
      <component glyphName="uni0326" x="377" y="0" flags="0x0"/>
    </TTGlyph>
    <TTGlyph name="kgreenlandic" xMin="92" yMin="0" xMax="495" yMax="510">
      <contour>
        <pt x="227" y="230" on="1"/>
        <pt x="153" y="230" on="1"/>
        <pt x="153" y="0" on="1"/>
        <pt x="92" y="0" on="1"/>
        <pt x="92" y="510" on="1"/>
        <pt x="153" y="510" on="1"/>
        <pt x="153" y="287" on="1"/>
        <pt x="227" y="287" on="1"/>
        <pt x="421" y="510" on="1"/>
        <pt x="492" y="510" on="1"/>
        <pt x="276" y="263" on="1"/>
        <pt x="495" y="0" on="1"/>
        <pt x="421" y="0" on="1"/>
      </contour>
    </TTGlyph>
    <TTGlyph name="l" xMin="92" yMin="0" xMax="153" yMax="743">
      <contour>
        <pt x="92" y="743" on="1"/>
        <pt x="153" y="743" on="1"/>
        <pt x="153" y="0" on="1"/>
        <pt x="92" y="0" on="1"/>
      </contour>
    </TTGlyph>
</ttFont>
